/* XPM */
static char *result[] = {
/* columns rows colors chars-per-pixel */
"26 31 84 1 ",
"  c #8F6B34",
". c #987C35",
"X c #91713C",
"o c #9E7638",
"O c #9D7B3C",
"+ c #A77A32",
"@ c #A7753A",
"# c #A37B3D",
"$ c #AA7C3C",
"% c #9E7941",
"& c #AC7645",
"* c #A57D42",
"= c #AA7E44",
"- c #A67F4B",
"; c #B07F4A",
": c #A7803F",
"> c #AA803C",
", c #A48243",
"< c #AA8145",
"1 c #A98C47",
"2 c #A4804C",
"3 c #AD854A",
"4 c #AC8C4A",
"5 c #B38043",
"6 c #B58840",
"7 c #B4834C",
"8 c #B28A4C",
"9 c #BA8D4E",
"0 c #AF924E",
"q c #B9904F",
"w c #A38653",
"e c #AC8953",
"r c #AD8D5B",
"t c #B58E52",
"y c #BC8E55",
"u c #B68F59",
"i c #BD8C58",
"p c #AF9056",
"a c #AD975D",
"s c #B69254",
"d c #BB9355",
"f c #B69955",
"g c #BB9954",
"h c #B4945D",
"j c #BC945A",
"k c #B0995F",
"l c #BE9A5C",
"z c #BEA15C",
"x c #AA8766",
"c c #A98B64",
"v c #A68B6C",
"b c #B59461",
"n c #BD9762",
"m c #B09A60",
"M c #BF9B60",
"N c #BFA261",
"B c #C0944B",
"V c #C48F5D",
"C c #C19555",
"Z c #C49A55",
"A c #CB9D56",
"S c #C3955C",
"D c #C39B5C",
"F c #C99D5D",
"G c #C4A25C",
"H c #CCA15E",
"J c #D0A35B",
"K c #D6A95F",
"L c #C69560",
"P c #C99362",
"I c #C59D62",
"U c #CA9C63",
"Y c #CF9E6A",
"T c #D19E63",
"R c #C6A263",
"E c #CAA263",
"W c #C5A867",
"Q c #CFA867",
"! c #CCA469",
"~ c #CEA86B",
"^ c #D0A563",
"/ c #D4A864",
"( c #D3A369",
") c #D1AA6D",
/* pixels */
"vvcccxrpudhkajbkmmhbwX,hMt",
"bDisNnulRIGRDDRDDSnUs,9QWR",
"hB$#zRDDDDEEg9js948d8O3EEE",
"sA;<GRFGDDEHddd9tddD8$3EDD",
"dATEWE(EDDEFDD8>tEEEd#8El9",
"uA()zIQEDZDDDD8#jQ!!j*8!g3",
"uAPDfsSCsdCjdjDgIEIUs*;juu",
"jJFlfsstsdddsdDEIDlId;3jyd",
"*>78,<838<32<<3338383#,8<3",
" +@#O###<#***###O###*#*<##",
"4B9t0t<-ttdIjjdd9tddgtyjsg",
"jAds0t=-jSIIEDEEDdDFDsCEIF",
"nHSDfj<*jIdsDIIEDdjDgqgEDR",
"j/^QRl3-LUt3jEEEUFjssqDQE/",
"hASIWl<;DICyCHDAHEADDdD!Ej",
"wy;elD==DU^E/HADHEUEUDID9*",
"eCijNI;*SSDAEJHAHE^EUEID93",
"uUY!WI--SddqZDDZDDDDDDCsys",
"rDUIzl;*t9ssdZDZDZDDDDdssd",
"X$=*,<&*<=<*<<<==<<=#$<<:*",
"X$-*,<<<==3===*&*=<<:,*<,=",
"hC;*fljDDIduuue*yIIEDDDDUD",
"hC;<sjCRRIjjji3*dIDIDDEDEI",
"hHSlzDZREnIILIe*dIltdED<8j",
"hJ(~zRZDHDDRIItodIh3s)Co*s",
"hHUI19dZGDjdn!e#jRDsDEI89j",
"hZLl.,qqGEs3jIt*dWIDDIDsds",
"eZUI1qBgGEg8II4#tDDjDISdCD",
"-CPLRI!UUDEEUD8#8jdtudt!!Q",
"-BVnhjdgsgsddd8<3ytttttIjj",
" $&*,**#$,=#*<##,<=#**#*o*"
};
