/* XPM */
static char *result[] = {
/* columns rows colors chars-per-pixel */
"51 51 105 2 ",
"   c #4A821F",
".  c #4E8523",
"X  c #4F8629",
"o  c #518524",
"O  c #548B26",
"+  c #588D23",
"@  c #51862C",
"#  c #548B2B",
"$  c #598E2C",
"%  c #579029",
"&  c #5A932D",
"*  c #578635",
"=  c #568B32",
"-  c #598E33",
";  c #568C38",
":  c #5A8C39",
">  c #5D9434",
",  c #5F9932",
"<  c #5E9439",
"1  c #61972E",
"2  c #619A2F",
"3  c #609633",
"4  c #639B35",
"5  c #689D33",
"6  c #60963B",
"7  c #649C3B",
"8  c #689F39",
"9  c #65A035",
"0  c #69A236",
"q  c #67A13B",
"w  c #6AA33D",
"e  c #6FA83D",
"r  c #71A63E",
"t  c #72AB3F",
"y  c #669C41",
"u  c #689F42",
"i  c #67A241",
"p  c #6CA543",
"a  c #6EAA43",
"s  c #6EA449",
"d  c #6CA848",
"f  c #71A644",
"g  c #73AB45",
"h  c #79AF47",
"j  c #71A74A",
"k  c #75AD4A",
"l  c #79AE4C",
"z  c #76B046",
"x  c #7AB446",
"c  c #76B14A",
"v  c #7BB44C",
"b  c #7DB84D",
"n  c #76AD51",
"m  c #79AF51",
"M  c #7DB552",
"N  c #7EB952",
"B  c #7FB558",
"V  c #81B74F",
"C  c #82BB4D",
"Z  c #80B653",
"A  c #83BB54",
"S  c #88BD53",
"D  c #80B659",
"F  c #85BC5A",
"G  c #89BE5D",
"H  c #87C056",
"J  c #8AC255",
"K  c #8FC857",
"L  c #8BC35C",
"P  c #8FC85E",
"I  c #90C956",
"U  c #91C65E",
"Y  c #90C95D",
"T  c #8DC562",
"R  c #8FC862",
"E  c #91C663",
"W  c #92CA63",
"Q  c #98CD65",
"!  c #93C76A",
"~  c #95CB6A",
"^  c #99CC6D",
"/  c #97D064",
"(  c #9AD367",
")  c #97D069",
"_  c #9AD36B",
"`  c #9DD572",
"'  c #9FD871",
"]  c #A1DA6D",
"[  c #A0D771",
"{  c #A4DB74",
"}  c #A8DF77",
"|  c #A5DD7B",
" . c #AADE79",
".. c #A7E077",
"X. c #A7E079",
"o. c #ACE47C",
"O. c #B0E77F",
"+. c #B1EA7F",
"@. c #ADE582",
"#. c #AFE881",
"$. c #B2E782",
"%. c #B2EA84",
"&. c #B2EA88",
"*. c #B9F08A",
"=. c #BAF291",
/* pixels */
"b x b ] o.o.J x A g q e p w w f g k a 6 6 i j d n u s 7 g Z v N a k e p 4 g e g e e p p 7 = # & c a z ",
"C x x ] +.+.K z A z 0 e e q q w f h v 7 < - s k n s j i g Z v v g c g p 0 f e g g e p p < = = < c z g ",
"C x b Q ] ] L v v h 0 4 q g g p c a p 8 y 6 s M j u s w f A v M g g g e 0 0 c v v p 8 u < X X < a z a ",
"x b C C b b A L P H N v L ' { ~ O # 7 ~ @.` s . 6 > 6 4 p M v A L L R v A b _ { { F k n n u y s c d c ",
"g b b g 0 e A W R F c v W o.#.{ & O . _ @.=.d X @ # > > w M M M L H P c v v ' %.#.T d j j u y s k c k ",
"b C C e z z H H R H b M W X.X.' . % $ | | &.u . - > 7 7 i A M M R L P A C A _ o.@.T j d n s s n d k k ",
"J J H h v z c a a e w e c N A v p p 4 N m F g p i p n j k T F A g g g v v v l v A p > > < ; ; < d d a ",
"P R W c h q q & & 4 7 e e g g g h g c g j a g j c M F M D ~ T L 0 0 9 A C A e 4 7 > X # ; * = ; p p i ",
"L W W v g t 0 & , 4 0 p f f a a f p a c c c g h c j Z v F ^ T R e e g v M N g w i > = @ * * ; ; s i d ",
"p p p p g f p q e a h z h c v b P R P a 0 q k k k a c p p M n m p f g c A N x p a i y u y 6 6 y < y 7 ",
"O . o 4 f f p g h v M b v v V A X.#.X.e & % h k c w 6 & < p u i j j k v Z M v g k c n n j u u u q < 7 ",
"% . O 4 w e f l g c v v Z v v v o.#.o.0 & + x l C w & > 6 s s s M k k M M v k k k k n n j s s s < > > ",
"d j a i 8 p j v c k f g v v b c ) W W e e 1 x x M c g k d u y y u y u d v k k k k p i p p d j j i q i ",
"F T L j q p v M A k w w h b A C F v b e x t b b c H R ~ c # @ = # X = 7 s j k M M p 6 6 i k k j d c c ",
"R ~ R n 8 i v M M k e q f v b A b v v g z t b A v P R ~ M X X # # X ; 6 p p j M M i , 4 p j k k d a a ",
"! ~ T k 8 u j v k g p e g c c c F A C z e t b H H H M F M > < < < > < u s p p k k 8 4 7 p h j f v c c ",
"O.{ %.8 $ w $ $ @ f E ~ m $ O > A c C x J t / o.o.H 8 u m B M M g f e p p p > X O 8 k c g z z g N v N ",
"$. .$.f 1 4 $ # o f ! ^ l @ o > N x C t x x ( +.#.H 6 6 k M b c h z g p p q , O . q k g t g z t C N A ",
"{ [ [ f 4 1 > $ & f G E l : > 6 M v C x C C / ] ..F p p v A b N a f f i w 6 > # > w g g f z x z v v v ",
"5 8 8 4 r p F L D Z l l m l j a 8 q e e e e t e e q 7 i 8 4 q e v M Z M M F M j d a p p h v v c c k z ",
"4 5 4 4 e 6 A F ^ A f g c F M m i g f z t t 9 & & 7 g j p q e r k l v M B F B n M j 8 8 k A N v f g g ",
"> & 3 4 a p H W L D k j k M c n 7 7 6 a t z 4 % > < 8 w w e 0 5 M M M M M D D D M k i p k M v h z g g ",
"h p j w a q a g g k k h g g g d u u 8 F J H h p f k c k v C x z p d p 6 < < f k n M B M k p p a c c c ",
"g p v w a w q p q e a g g c k k < < < G P P a 0 q c A b v b x x 8 s u > X # i n j F ~ ~ v < , 7 b c v ",
"c g c 7 q , a a q g h g a g g p u 6 u F R W c w q k M k v C C x d p u = . - p n j F T ~ M 3 6 7 M n M ",
"w p g T R W c q q k A N v c v v - ; < B H L f q p v T F F H J x , < 6 u i p d p p N D T M 7 w w i d d ",
"a e 4 _ { &.F e w b U W H A b v @ @ = c M A e w 8 B ~ ~ P P K H . X > j B M p w p k l M k i p u < < < ",
"7 q p { #.%.v , w c L W P N v c = ; # k M A a q 8 M T R P P K J # X - j F v a w q h k M l i p 8 < y 6 ",
"h f l S L H v c V V V V C x h h < ; > N L L e > 7 j B M N H H N w 6 8 k N c g e e v A H v p a i < < < ",
"F l h $ # # v Q G V f r g g g x > < < L W R 7 . O < u i a v b v n n n M A c g g f H L R F g k p * * ; ",
"l Z S & + o l L U S g r t h f f < < q L R L q O . > p u p c b x M M M M v v z t a H P P A h j d * * ; ",
"S G G 1 $ $ Z E G V h V h h e w i < 7 N L H 0 > & p B k h k k g n M v k k v z g g H H H A l c p > - ; ",
" . .{ g 8 p l m m G G ~ M o O $ p i a a a z v C b _ ' %.T o # $ j i s < p w z z k a z a z c M M k j k ",
"O.O.O.h 8 5 h D M G G E n # # # i i i a d z c b g _ o.*.U o # $ u 8 d i a q d a z a d d c N N M c z g ",
"] ] ] V w 8 g Z Z G E E v 1 & $ i i i a c c z z c W | o.G # $ > i p k q a q k c c d e d k d n d c a k ",
"x t h h V V g f 8 M G E A c h x w w d c v v c g t b N L S j m M k d k , 7 4 v L L z 9 , i i i i c a k ",
"5 1 5 g A L f 8 8 v W U S C b b q w p g v N c g h c g v M v Z M l k g 1 3 4 A Q E h 3 - > < < < k d k ",
"r 0 t l v S p 8 w V W J V S x h q p a g c c h a h v A M v c l f h f h 3 1 4 V E E h 8 4 7 < < q k k z ",
"A A A F l Z 7 > O 4 b h C ] ( ( g g g f a a 0 , % q c c l Z A A f t t 1 3 5 V Y G A Z D f : - 7 v c c ",
"E E G G m F 3 @ @ 4 l f S O.o.} v N v f q 4 & + & 4 h p g Z v k h f g 1 2 5 S Q U U Q ! m - @ > b b b ",
"! ^ ! G B m u # @ 7 n f D $.$. .l v j p e w >   . 9 d d d N N a t r z + 2 2 H P G U ! ! l * @ 6 b b b ",
"u j u s j j y @ - y m n l G D V W Q W 4 4 > N F N A N N b N b b r e z H J J K P E S l Z f 5 6 u v b b ",
"* @ - 6 j u 6 * @ 6 D D f 4 $ 4 O.o.O.$ # o _ &.#.` R R L b c b q 0 e X.+.+.P P Q V 8 f j f f f M b v ",
". . @ 6 s u - @ @ 3 D D f 3 $ w o.o. .& O   ) %.#.` T R L N c c 8 8 a ..o.+.P K G V g g f u w p F A A ",
"r w r l Z l l n l g k f f l h Z E Q Q w , q F ! ~ H k k c N c c f f z H K P H b A x z d f f w f p f f ",
"W Y Y Y W Q { $.@.F 4 O f E U A x A V Z m B M B B d , & i b N b A b N 0 i a z b b t 9 9 f h g j @ * * ",
"I I K J J Y [ O.*.F , + f Q Y J h h g A N F M c c d > & q b N b M N M q 9 9 a z x e 9 9 e c g d : * ; ",
"C J J J J Y Q _ [ v 5 2 z J J L V v j M M M M B N d q q d c N c d c c a a a a z z z a e a g a p : : : ",
"0 q p v N v c g f z t f x Y Y S 4 > 7 c N N v b N c g g v v M c 7 , 7 d N c d q e d z g a c a a p i d ",
"e q p c N M c g a h f t x Y Y A 7 < 7 c B N v b b c z a c M v c 7 < 7 c N M d i i a a z a k k a i i i ",
"w w p c N M z g f z t f b Y Y S 6 > 7 c N v v N b c z d c M v c , < 7 d N N a q i d z a g c a a i i i "
};
