/* XPM */
static char *result[] = {
/* columns rows colors chars-per-pixel */
"51 51 16 1 ",
"  c #240700",
". c #362411",
"X c #5A2D02",
"o c #6B3611",
"O c #74491B",
"+ c #5A4940",
"@ c gray42",
"# c #8D6336",
"$ c #956B36",
"% c #A67C51",
"& c #BE9D5A",
"* c #959595",
"= c #D7C78D",
"- c gray81",
"; c white",
": c None",
/* pixels */
":::::::::::::::::::::::::::::::::::::::::::::::::::",
":::::::::::::::::::::::::::::::::::::::::::::::::::",
":::::::::::::::::::::::::::::::::::::::::::::::::::",
":::::::::::::::::::::::::::::::::::::::::::::::::::",
":::::::::::::::::::::::::::::::::::::::::::::::::::",
":::::::::::::::::::::::::::::::::::::::::::::::::::",
"::::::::::::::++..++..       ..++..++::::::::::::::",
"::::::::::::::++..++..       ..++..++::::::::::::::",
"::::::::::::::::....oo##%%%##oo  ..::::::::::::::::",
"::::::::::::::::....oo##%%%##oo  ..::::::::::::::::",
"::::::::::::::++  ....oo%%%oo  ..  ++::::::::::::::",
"::::::::::::::++  ....oo%%%oo  ..  ++::::::::::::::",
"::::::::::::++  oooo  ..%%%..  oooo  ::::::::::::::",
"::::::::::::++  oooo  ..%%%..  oooo  ::::::::::::::",
"::::::::::::  oooo@@..  %%%  ..@@oooo  ::::::::::::",
"::::::::::::  oooo@@..  %%%  ..@@oooo  ::::::::::::",
"::::::::::++..##**--**  ooo  **--**##..++::::::::::",
"::::::::::++..##**--**  ooo  **--**##..++::::::::::",
"::::::::::  oo%%--;;--#######--;;--%%oo  ::::::::::",
"::::::::::  oo%%--;;--#######--;;--%%oo  ::::::::::",
"::::::::++..##%%;;--  #######  --;;%%##..++::::::::",
"::::::::++..##%%;;--  #######  --;;%%##..++::::::::",
"::::::::  oo%%%%--;;  %%%%%%%  ;;--%%%%oo  ::::::::",
"::::::::  oo%%%%--;;  %%%%%%%  ;;--%%%%oo  ::::::::",
"::::::++..##%%%%##----%%%%%%%----##%%%%##..++::::::",
"::::::++..##%%%%##----%%%%%%%----##%%%%##..++::::::",
"::::::++..##%%%%##----%%%%%%%----##%%%%##..++::::::",
"::::::  oo##--##%%%%%%%%%%%%%%%%%%%##--##oo  ::::::",
"::::::  oo##--##%%%%%%%%%%%%%%%%%%%##--##oo  ::::::",
"::::::  oo##--;;%%####ooooooo####%%;;--##oo  ::::::",
"::::::  oo##--;;%%####ooooooo####%%;;--##oo  ::::::",
"::::::..oo##**##oooo##%%%%%%%##oooo##**##oo..::::::",
"::::::..oo##**##oooo##%%%%%%%##oooo##**##oo..::::::",
"::::::++  oooooo##%%###########oo......oo  ++::::::",
"::::::++  oooooo##%%###########oo......oo  ++::::::",
"::::::::++  oo####ooooooooooooo..OOOOoo  ++::::::::",
"::::::::++  oo####ooooooooooooo..OOOOoo  ++::::::::",
"::::::::::++    ..oo$$&&&&&&&$$oooooooooo  ::::::::",
"::::::::::++    ..oo$$&&&&&&&$$oooooooooo  ::::::::",
"::::::::::::::++  oo$$&&=====ooooOOOOOOoo  ::::::::",
"::::::::::::::++  oo$$&&=====ooooOOOOOOoo  ::::::::",
"::::::::::::::::++..oo$$&&&&&ooOO$$$$$$OO  ::::::::",
"::::::::::::::::++..oo$$&&&&&ooOO$$$$$$OO  ::::::::",
"::::::::::::::::::++  oo$$$$$XX$$$$$$OO  ++::::::::",
"::::::::::::::::::++  oo$$$$$XX$$$$$$OO  ++::::::::",
"::::::::::::::::::::++                 ++::::::::::",
"::::::::::::::::::::++                 ++::::::::::",
":::::::::::::::::::::::::::::::::::::::::::::::::::",
":::::::::::::::::::::::::::::::::::::::::::::::::::",
":::::::::::::::::::::::::::::::::::::::::::::::::::",
":::::::::::::::::::::::::::::::::::::::::::::::::::"
};
