/* XPM */
static char *result[] = {
/* columns rows colors chars-per-pixel */
"51 51 15 1 ",
"  c #240700",
". c #362411",
"X c #5A2D02",
"o c #6B3611",
"O c #74491B",
"+ c #5A4940",
"@ c #8D6336",
"# c #956B36",
"$ c #A67C51",
"% c #BE9D5A",
"& c #959595",
"* c #D7C78D",
"= c gray81",
"- c white",
"; c None",
/* pixels */
";;;;;;;;;;;;;;;;;;;;;;;;;;;;;;;;;;;;;;;;;;;;;;;;;;;",
";;;;;;;;;;;;;;;;;;;;;;;;;;;;;;;;;;;;;;;;;;;;;;;;;;;",
";;;;;;;;;;;;;;;;;;;;;;;;;;;;;;;;;;;;;;;;;;;;;;;;;;;",
";;;;;;;;;;;;;;;;;;;;;;;;;;;;;;;;;;;;;;;;;;;;;;;;;;;",
";;;;;;;;;;;;;;;;;;;;;;;;;;;;;;;;;;;;;;;;;;;;;;;;;;;",
";;;;;;;;;;;;;;;;;;;;;;;;;;;;;;;;;;;;;;;;;;;;;;;;;;;",
";;;;;;;;;;;;;;;;;;;;;;;;;;;;;;;;;;;;;;;;;;;;;;;;;;;",
";;;;;;;;;;;;;;;;;;;;++.      ..++;;;;;;;;;;;;;;;;;;",
";;;;;;;;;;;;;;;.. ++  o@@$$$@oo  +  ..;;;;;;;;;;;;;",
";;;;;;;;;;;;;;;.. ++  o@@$$$@oo  +  ..;;;;;;;;;;;;;",
";;;;;;;;;;;;;..     ..@$$$$$$@@..     .;;;;;;;;;;;;",
";;;;;;;;;;;;;..     ..@$$$$$$@@..     .;;;;;;;;;;;;",
";;;;;;;;;;;;;;;++ ..  o@@$$$@oo  .  ++;;;;;;;;;;;;;",
";;;;;;;;;;;;;;;  ooo++ oo$$$o  ++ooo  ;;;;;;;;;;;;;",
";;;;;;;;;;;;;;;  ooo++ oo$$$o  ++ooo  ;;;;;;;;;;;;;",
";;;;;;;;;;;;;++..@&&==&  ooo &&==&@@..+;;;;;;;;;;;;",
";;;;;;;;;;;;;++..@&&==&  ooo &&==&@@..+;;;;;;;;;;;;",
";;;;;;;;;;;;;  oo$==--=@@@@@@==--=$$oo ;;;;;;;;;;;;",
";;;;;;;;;;;;+..@@$--== @@@@@@  ==-$$@@.++;;;;;;;;;;",
";;;;;;;;;;;;+..@@$--== @@@@@@  ==-$$@@.++;;;;;;;;;;",
";;;;;;;;;;;; oo$$$==-- $$$$$$  --=$$$$o  ;;;;;;;;;;",
";;;;;;;;;;;; oo$$$==-- $$$$$$  --=$$$$o  ;;;;;;;;;;",
";;;;;;;;;;++.@@$$$@@===$$$$$$====@$$$$@..++;;;;;;;;",
";;;;;;;;;;  o@@==@$$$$$$$$$$$$$$$$@@==@oo  ;;;;;;;;",
";;;;;;;;;;  o@@==@$$$$$$$$$$$$$$$$@@==@oo  ;;;;;;;;",
";;;;;;;;;;  o@@==-$$@@@oooooo@@@@$--==@oo  ;;;;;;;;",
";;;;;;;;;;  o@@==-$$@@@oooooo@@@@$--==@oo  ;;;;;;;;",
";;;;;;;;;;  o@@==-$$@@@oooooo@@@@$--==@oo  ;;;;;;;;",
";;;;;;;;;;..o@@&&@oooo@$$$$$$@@ooo@@&&@oo..;;;;;;;;",
";;;;;;;;;;++ ooooo@@$$@@@@@@@@@$$@ooooo  ++;;;;;;;;",
";;;;;;;;;;++ ooooo@@$$@@@@@@@@@$$@ooooo  ++;;;;;;;;",
";;;;;;;;;;;;+  oo@@@ooooooooooooo@@@oo ++;;;;;;;;;;",
";;;;;;;;;;;;+  oo@@@ooooooooooooo@@@oo ++;;;;;;;;;;",
";;;;;;;;;;;;;++   ..oo#%%%%%%##oo.    +;;;;;;;;;;;;",
";;;;;;;;;;;;;;;;;+  ##%******%%## ;;;;;;;;;;;;;;;;;",
";;;;;;;;;;;;;;;;;+  ##%******%%## ;;;;;;;;;;;;;;;;;",
";;;;;;;;;;;;;;;++ ..##%******%%##.  ++;;;;;;;;;;;;;",
";;;;;;;;;;;;;;;++ ..##%******%%##.  ++;;;;;;;;;;;;;",
";;;;;;;;;;;;;++  XXX++#$$$$$$##++XXX  +;;;;;;;;;;;;",
";;;;;;;;;;;;;  XXOOOXXX      XXXXOOOXX ;;;;;;;;;;;;",
";;;;;;;;;;;;;  XXOOOXXX      XXXXOOOXX ;;;;;;;;;;;;",
";;;;;;;;;;;;;..XXXXXXX ++;;;+  XXXXXXX.;;;;;;;;;;;;",
";;;;;;;;;;;;;..XXXXXXX ++;;;+  XXXXXXX.;;;;;;;;;;;;",
";;;;;;;;;;;;;;;       +;;;;;;++       ;;;;;;;;;;;;;",
";;;;;;;;;;;;;;;;;;;;;;;;;;;;;;;;;;;;;;;;;;;;;;;;;;;",
";;;;;;;;;;;;;;;;;;;;;;;;;;;;;;;;;;;;;;;;;;;;;;;;;;;",
";;;;;;;;;;;;;;;;;;;;;;;;;;;;;;;;;;;;;;;;;;;;;;;;;;;",
";;;;;;;;;;;;;;;;;;;;;;;;;;;;;;;;;;;;;;;;;;;;;;;;;;;",
";;;;;;;;;;;;;;;;;;;;;;;;;;;;;;;;;;;;;;;;;;;;;;;;;;;",
";;;;;;;;;;;;;;;;;;;;;;;;;;;;;;;;;;;;;;;;;;;;;;;;;;;",
";;;;;;;;;;;;;;;;;;;;;;;;;;;;;;;;;;;;;;;;;;;;;;;;;;;"
};
