/* XPM */
static char *result[] = {
/* columns rows colors chars-per-pixel */
"51 51 12 1 ",
"  c #240700",
". c #362411",
"X c #5A2D02",
"o c #6B3611",
"O c #74491B",
"+ c #5A4940",
"@ c #8D6336",
"# c #956B36",
"$ c #A67C51",
"% c #BE9D5A",
"& c #D7C78D",
"* c None",
/* pixels */
"***************************************************",
"***************************************************",
"***************************************************",
"***************************************************",
"***************************************************",
"***************************************************",
"**************++..++..       ..++..++**************",
"**************++..++..       ..++..++**************",
"****************++  oo@@$$$@@oo  ++****************",
"****************++  oo@@$$$@@oo  ++****************",
"**************++  oo@@$$$$$$$@@oo  ++**************",
"**************++  oo@@$$$$$$$@@oo  ++**************",
"************++  oo@@$$$$$$$$$$$@@oo  ++************",
"************++  oo@@$$$$$$$$$$$@@oo  ++************",
"************  oo@@$$$$$$$$$$$$$$$@@oo  ************",
"************  oo@@$$$$$$$$$$$$$$$@@oo  ************",
"**********++..@@$$$$$$$$$$$$$$$$$$$@@..++**********",
"**********++..@@$$$$$$$$$$$$$$$$$$$@@..++**********",
"**********  oo$$$$$$$$$$$$$$$$$$$$$$$oo  **********",
"**********  oo$$$$$$$$$$$$$$$$$$$$$$$oo  **********",
"********++..@@$$$$$$$$$$$$$$$$$$$$$$$@@..++********",
"********++..@@$$$$$$$$$$$$$$$$$$$$$$$@@..++********",
"********  oo$$$$$$$$$$$$$$$$$$$$$$$$$$$oo  ********",
"********  oo$$$$$$$$$$$$$$$$$$$$$$$$$$$oo  ********",
"******++..@@$$$$$$$$$$$$$$$$$$$$$$$$$$$@@..++******",
"******++..@@$$$$$$$$$$$$$$$$$$$$$$$$$$$@@..++******",
"******++..@@$$$$$$$$$$$$$$$$$$$$$$$$$$$@@..++******",
"******  oo@@$$$$$$$$$$$$$$$$$$$$$$$$$$$@@oo  ******",
"******  oo@@$$$$$$$$$$$$$$$$$$$$$$$$$$$@@oo  ******",
"******  oo@@@@$$$$$$@@@@@@@@@@@$$$$$$@@@@oo  ******",
"******  oo@@@@$$$$$$@@@@@@@@@@@$$$$$$@@@@oo  ******",
"******..oo@@@@@@@@@@@@@@@@@@@@@@@@@@@@@@@oo..******",
"******..oo@@@@@@@@@@@@@@@@@@@@@@@@@@@@@@@oo..******",
"******++  oo@@@@@@@@@@ooooooo@@@@@@@@@@oo  ++******",
"******++  oo@@@@@@@@@@ooooooo@@@@@@@@@@oo  ++******",
"********++  ooooooooXXXXooooooooooooooo  ++********",
"********++  ooooooooXXXXooooooooooooooo  ++********",
"**********++    ..ooOOOOXXX%%##oo....  ++**********",
"**********++    ..ooOOOOXXX%%##oo....  ++**********",
"**************++  XX####OOO&&%%##XXXX  ************",
"**************++  XX####OOO&&%%##XXXX  ************",
"**************  XXOO####OOO&&%%##XX  ++************",
"**************  XXOO####OOO&&%%##XX  ++************",
"**************  XX####OOXXX$$##..  ++**************",
"**************  XX####OOXXX$$##..  ++**************",
"**************++               ++******************",
"**************++               ++******************",
"***************************************************",
"***************************************************",
"***************************************************",
"***************************************************"
};
