/* XPM */
static char *result[] = {
/* columns rows colors chars-per-pixel */
"51 51 16 1 ",
"  c #240700",
". c #362411",
"X c #401B00",
"o c #5A2D02",
"O c #6B3611",
"+ c #74491B",
"@ c #5A4940",
"# c #8D6336",
"$ c #956B36",
"% c #A67C51",
"& c #BE9D5A",
"* c #959595",
"= c #D7C78D",
"- c gray81",
"; c white",
": c None",
/* pixels */
":::::::::::::::::::::::::::::::::::::::::::::::::::",
":::::::::::::::::::::::::::::::::::::::::::::::::::",
"::::::::::::::::::@@..           @@::::::::::::::::",
"::::::::::::::::::@@..           @@::::::::::::::::",
"::::::::::::::::@@  OO#####OO....  @@::::::::::::::",
"::::::::::::::::@@  OO#####OO....  @@::::::::::::::",
"::::::::::::::@@  OO##%%%%%####OO..  ::::::::::::::",
"::::::::::::::@@  OO##%%%%%####OO..  ::::::::::::::",
"::::::::::::@@  OO##%%%%%%%%%####..  @@::::::::::::",
"::::::::::::@@  OO##%%%%%%%%%####..  @@::::::::::::",
"::::::::::::  OO##%%%%%%%%%%%%%--**..  ::::::::::::",
"::::::::::::  OO##%%%%%%%%%%%%%--**..  ::::::::::::",
"::::::::::@@..##%%%%%%%%%%%%%%%--;;&&..@@::::::::::",
"::::::::::@@..##%%%%%%%%%%%%%%%--;;&&..@@::::::::::",
"::::::::::  OO%%%%%%%%%%%%%%%%%--;;  OO  ::::::::::",
"::::::::::  OO%%%%%%%%%%%%%%%%%--;;  OO  ::::::::::",
"::::::::@@..##%%%%%%%%%%%%%%%%%&&;;  ##..@@::::::::",
"::::::::@@..##%%%%%%%%%%%%%%%%%&&;;  ##..@@::::::::",
"::::::::  OO%%%%%%%%%%%%%%%%%%%%%----%%OO  ::::::::",
"::::::::  OO%%%%%%%%%%%%%%%%%%%%%----%%OO  ::::::::",
"::::::@@  ##%%%%%%%%%%%%%%%%%%%%%%%%%%%##..@@::::::",
"::::::@@  ##%%%%%%%%%%%%%%%%%%%%%%%%%%%##..@@::::::",
"::::::  OO##%%%%%%%%%%%%%%%%%%%%%--%%%%##OO  ::::::",
"::::::  OO##%%%%%%%%%%%%%%%%%%%%%--%%%%##OO  ::::::",
"::::::  OO####%%%%%%%%%%%%%%%##**;;**##OOOO  ::::::",
"::::::  OO####%%%%%%%%%%%%%%%##**;;**##OOOO  ::::::",
"::::::  OO####%%%%%%%%%%%%%%%##**;;**##OOOO  ::::::",
"::::::..OOOO#####################--OOOO##OO..::::::",
"::::::..OOOO#####################--OOOO##OO..::::::",
"::::::@@  OOOOOO#################OO####OO  @@::::::",
"::::::@@  OOOOOO#################OO####OO  @@::::::",
"::::::::@@  ..XXXXOOOOOOOOOOOOO####OO..XXXX  ::::::",
"::::::::@@  ..XXXXOOOOOOOOOOOOO####OO..XXXX  ::::::",
"::::::::::::  ooooOO$$$$$$$$$$$OOXXXXXXXXXX  ::::::",
"::::::::::::  ooooOO$$$$$$$$$$$OOXXXXXXXXXX  ::::::",
"::::::::::::  oooooooo$$&&&==&&OOXXXXXXXX  @@::::::",
"::::::::::::  oooooooo$$&&&==&&OOXXXXXXXX  @@::::::",
"::::::::::::  XXoo++++oo$$$&&$$XXXXXX    @@::::::::",
"::::::::::::  XXoo++++oo$$$&&$$XXXXXX    @@::::::::",
"::::::::::::@@  XXoooooo...          @@::::::::::::",
"::::::::::::@@  XXoooooo...          @@::::::::::::",
"::::::::::::::@@        @@@::::::::::::::::::::::::",
"::::::::::::::@@        @@@::::::::::::::::::::::::",
":::::::::::::::::::::::::::::::::::::::::::::::::::",
":::::::::::::::::::::::::::::::::::::::::::::::::::",
":::::::::::::::::::::::::::::::::::::::::::::::::::",
":::::::::::::::::::::::::::::::::::::::::::::::::::",
":::::::::::::::::::::::::::::::::::::::::::::::::::",
":::::::::::::::::::::::::::::::::::::::::::::::::::",
":::::::::::::::::::::::::::::::::::::::::::::::::::",
":::::::::::::::::::::::::::::::::::::::::::::::::::"
};
