/* XPM */
static char *result[] = {
/* columns rows colors chars-per-pixel */
"51 51 216 2 ",
"   c #010101",
".  c #00050A",
"X  c #02080C",
"o  c #0C0806",
"O  c #190E02",
"+  c #170C00",
"@  c #1D1202",
"#  c #151108",
"$  c #010D13",
"%  c #07131B",
"&  c #12121A",
"*  c #291805",
"=  c #351B02",
"-  c #362103",
";  c #071A23",
":  c #1B1B23",
">  c #131724",
",  c #151E31",
"<  c #241D25",
"1  c #05242D",
"2  c #072839",
"3  c #19253C",
"4  c #282939",
"5  c #253635",
"6  c #382820",
"7  c #482905",
"8  c #5A3307",
"9  c #573B1E",
"0  c #673906",
"q  c #723E0A",
"w  c #593B25",
"e  c #43383B",
"r  c #553D30",
"t  c #6C4408",
"y  c #784507",
"u  c #74520D",
"i  c #734A17",
"p  c #544A3B",
"a  c #5C4B33",
"s  c #64472A",
"d  c #795228",
"f  c #725534",
"g  c #6D4C2E",
"h  c #766B3E",
"j  c #062D42",
"k  c #06334B",
"l  c #133852",
"z  c #2A2C46",
"x  c #292F4A",
"c  c #232A46",
"v  c #2A314C",
"b  c #2F3045",
"n  c #36364A",
"m  c #273757",
"M  c #373C58",
"N  c #413C41",
"B  c #413C49",
"V  c #443E54",
"C  c #09425D",
"Z  c #3F4157",
"A  c #0B4768",
"S  c #194B68",
"D  c #0B516F",
"F  c #165769",
"G  c #0A557A",
"H  c #18537B",
"J  c #104C73",
"K  c #274869",
"L  c #3A4D6B",
"P  c #374764",
"I  c #2A5B7A",
"U  c #3C5A77",
"Y  c #31536E",
"T  c #176578",
"R  c #296371",
"E  c #494758",
"W  c #514A4F",
"Q  c #74584A",
"!  c #6B6947",
"~  c #677259",
"^  c #454D65",
"/  c #4D536D",
"(  c #555769",
")  c #475A77",
"_  c #436D72",
"`  c #56667B",
"'  c #50716D",
"]  c #666D71",
"[  c #854A0E",
"{  c #8B4D0D",
"}  c #81460C",
"|  c #8A5207",
" . c #9C5A0B",
".. c #95590A",
"X. c #935D1D",
"o. c #A55E0A",
"O. c #9F6117",
"+. c #AB640B",
"@. c #A5620B",
"#. c #B76B09",
"$. c #BE710A",
"%. c #A46413",
"&. c #AD711A",
"*. c #B17215",
"=. c #BB7A14",
"-. c #845622",
";. c #986C27",
":. c #8F7034",
">. c #A77424",
",. c #C47207",
"<. c #C27108",
"1. c #C87B0C",
"2. c #C36F05",
"3. c #846758",
"4. c #AA7549",
"5. c #B97F51",
"6. c #B57E52",
"7. c #B07443",
"8. c #8B7369",
"9. c #8B6F62",
"0. c #A07B6A",
"q. c #99843E",
"w. c #D5870F",
"e. c #CE8D17",
"r. c #C88716",
"t. c #D78F14",
"y. c #D4951B",
"u. c #D79A1E",
"i. c #DC9A19",
"p. c #D89516",
"a. c #E09B16",
"s. c #E29E1A",
"d. c #AA904A",
"f. c #AAA553",
"g. c #BA8869",
"h. c #A78270",
"j. c #928D4E",
"k. c #D29D7A",
"l. c #CF9B7A",
"z. c #D7A17D",
"x. c #095B85",
"c. c #145B86",
"v. c #0B648C",
"b. c #146789",
"n. c #0B6B9D",
"m. c #0D6796",
"M. c #156A95",
"N. c #19759C",
"B. c #2D6583",
"V. c #35748C",
"C. c #2B7292",
"Z. c #237396",
"A. c #327A91",
"S. c #2A6990",
"D. c #0A6EA4",
"F. c #0B73AC",
"G. c #0D73A9",
"H. c #1373A5",
"J. c #167FA3",
"K. c #136FA2",
"L. c #2B7EA0",
"P. c #4C6988",
"I. c #53718F",
"U. c #577795",
"Y. c #497487",
"T. c #657F96",
"R. c #6A7D89",
"E. c #31819A",
"W. c #1A83AE",
"Q. c #1587B9",
"!. c #2887A7",
"~. c #2B98BA",
"^. c #3791A6",
"/. c #448087",
"(. c #78888D",
"). c #6F8A9F",
"_. c #5E97B5",
"`. c #6793AC",
"'. c #7C97A9",
"]. c #47ABB6",
"[. c #1B99C9",
"{. c #188FC1",
"}. c #259CC2",
"|. c #1FA0D0",
" X c #2AA4C6",
".X c #25AAD4",
"XX c #2AB5DB",
"oX c #2CBDE4",
"OX c #29B7E1",
"+X c #4EBDC5",
"@X c #2EC1E6",
"#X c #2EC2E9",
"$X c #88908E",
"%X c #A29F9A",
"&X c #BFA194",
"*X c #849EAC",
"=X c #89A2AF",
"-X c #87A0AE",
";X c #8AA4B2",
":X c #8DACBE",
">X c #DDA987",
",X c #DAA683",
"<X c #E4B494",
"1X c #E4AE89",
"2X c #DCBDAC",
"3X c #F2C5A8",
"4X c #F7CFB5",
"5X c #F8CDB1",
"6X c #FBD2B8",
"7X c #E2C2B0",
"8X c #D8CECC",
"9X c #E2CEC6",
"0X c #D5D6E0",
"qX c #D9E3F1",
"wX c #EFEBF1",
"eX c None",
/* pixels */
"eXeXeXeXeXeXeXeXeXeXeXeXeXeXeXeXeXeXeXeXeXeXeXeXeXeXeXeXeXeXeXeXeXeXeXeXeXeXeXeXeXeXeXeXeXeXeXeXeXeXeX",
"eXeXeXeXeXeXeXeXeXeXeXeXeXeXeXeXeXeXeXeXeXeXeXeXeXeXeXeXeXeXeXeXeXeXeXeXeXeXeXeXeXeXeXeXeXeXeXeXeXeXeX",
"eXeXeXeXeXeXeXeXeXeXeXeXeXeXeXeXeXeXeXeXeXeXeXeXeXeXeXeXeXeXeXeXeXeXeXeXeXeXeXeXeXeXeXeXeXeXeXeXeXeXeX",
"eXeXeXeXeXeXeXeXeXeXeXeXeXeXeXeXeXeXeXeXeXeXeXeXeXeXeXeXeXeXeXeXeXeXeXeXeXeXeXeXeXeXeXeXeXeXeXeXeXeXeX",
"eXeXeXeXeXeXeXeXeXeXeXeXeXeXeXeXeXeXeXeXeXeXeXeXeXeXeXeXeXeXeXeXeXeXeXeXeXeXeXeXeXeXeXeXeXeXeXeXeXeXeX",
"eXeXeXeXeXeXeXeXeXeXeXeXeXeXeXeXeXeXeX                  eXeXeXeXeXeXeXeXeXeXeXeXeXeXeXeXeXeXeXeXeXeXeX",
"eXeXeXeXeXeXeXeXeXeXeXeXeXeXeXeXeX    7 0 u u u u u t 8 o   eXeXeXeXeXeXeXeXeXeXeXeXeXeXeXeXeXeXeXeXeX",
"eXeXeXeXeXeXeXeXeXeXeXeXeXeXeXeXO * @ | w.s.s.s.s.s.t.$.= @ @ eXeXeXeXeXeXeXeXeXeXeXeXeXeXeXeXeXeXeXeX",
"eXeXeXeXeXeXeXeXeXeXeXeXeXeXeX  8 <.e.p.i.i.i.i.i.i.i.i.y.r...  eXeXeXeXeXeXeXeXeXeXeXeXeXeXeXeXeXeXeX",
"eXeXeXeXeXeXeXeXeXeXeXeXeXeXo 7 ..t.i.i.i.i.i.i.i.i.i.i.i.p.1.8 * eXeXeXeXeXeXeXeXeXeXeXeXeXeXeXeXeXeX",
"eXeXeXeXeXeXeXeXeXeXeXeXeXeX  q *.i.i.i.i.i.i.i.i.i.i.i.i.i.e.{ *   eXeXeXeXeXeXeXeXeXeXeXeXeXeXeXeXeX",
"eXeXeXeXeXeXeXeXeXeXeXeXeXeX  q *.i.i.i.i.i.i.i.i.i.i.i.i.i.e.{ *   eXeXeXeXeXeXeXeXeXeXeXeXeXeXeXeXeX",
"eXeXeXeXeXeXeXeXeXeXeXeXeXeX   .+.%.i.i.i.i.i.i.i.i.i.i.i.=. .#.=   eXeXeXeXeXeXeXeXeXeXeXeXeXeXeXeXeX",
"eXeXeXeXeXeXeXeXeXeXeXeXeX* 7 #.+. .=.e.i.a.i.i.i.i.i.i.r.%. .$.y - eXeXeXeXeXeXeXeXeXeXeXeXeXeXeXeXeX",
"eXeXeXeXeXeXeXeXeXeXeXeX  7 ,.$.2.$.[ *.u.y.y.u.y.y.e.e.{ o.2.$.,...  eXeXeXeXeXeXeXeXeXeXeXeXeXeXeXeX",
"eXeXeXeXeXeXeXeXeXeXeXeX  7 ,.$.2.#.{ s N N N 5 p n W e } o.,.2.,.|   eXeXeXeXeXeXeXeXeXeXeXeXeXeXeXeX",
"eXeXeXeXeXeXeXeXeXeXeXeX. * -.#.O.d w E L L ) P.` ^ L L r s -.2.X.9   eXeXeXeXeXeXeXeXeXeXeXeXeXeXeXeX",
"eXeXeXeXeXeXeXeXeXeXeXeX  & n O.g m v ) U.U.*X;X;XT.I.I.M m B %.p c   eXeXeXeXeXeXeXeXeXeXeXeXeXeXeXeX",
"eXeXeXeXeXeXeXeXeXeXeXeX  : ^ n P P.P.).-X-X-X;X;X*X*X*XI.P.P.b E n   eXeXeXeXeXeXeXeXeXeXeXeXeXeXeXeX",
"eXeXeXeXeXeXeXeXeXeXeXeX  : ^ U L P P ).;X;X;X;X;X;X;X*XL P P / / B   eXeXeXeXeXeXeXeXeXeXeXeXeXeXeXeX",
"eXeXeXeXeXeXeXeXeXeXeXeX  : V ` / E ( R.R.$X$X$X$X$X$XR./ ^ E I.^ 4   eXeXeXeXeXeXeXeXeXeXeXeXeXeXeXeX",
"eXeXeXeXeXeXeXeXeXeXeXeXeXeX. E 8.k.wX( + } [ [ [ [ 7 & 0X2Xg.( :   eXeXeXeXeXeXeXeXeXeXeXeXeXeXeXeXeX",
"eXeXeXeXeXeXeXeXeXeXeXeXeXeX  x 3.,XwX`.K d.5.5.5.5.] c.qX7Xg.M &   eXeXeXeXeXeXeXeXeXeXeXeXeXeXeXeXeX",
"eXeXeXeXeXeXeXeXeXeXeXeXeX2 2 , W h.9X:X`.>X1X>X>X1X%X_.8X&X3.< 2 2 eXeXeXeXeXeXeXeXeXeXeXeXeXeXeXeXeX",
"eXeXeXeXeXeXeXeXeXeXeXeXz K H.% > n l.<X4X4X4X4X5X5X4X5Xl.Q c . G M.x eXeXeXeXeXeXeXeXeXeXeXeXeXeXeXeX",
"eXeXeXeXeXeXeXeXeXeXeXeXc B.OX XS o n 0.1X6X<X,X,X5X<Xl.W < ; ~..X~.x eXeXeXeXeXeXeXeXeXeXeXeXeXeXeXeX",
"eXeXeXeXeXeXeXeXeXeXeXeXeXI !.oX!.F J W 3.9.4.4.7.0.3.Q K S T oX~.C.v eXeXeXeXeXeXeXeXeXeXeXeXeXeXeXeX",
"eXeXeXeXeXeXeXeXeXeXeXeXeXeXv }.OXOXQ.k .   8 } q O . % D..X#XXXI z eXeXeXeXeXeXeXeXeXeXeXeXeXeXeXeXeX",
"eXeXeXeXeXeXeXeXeXeXeXeXeXeXz % C Q.oXXX~.^ n b b V V.XXoX[.K.m n v eXeXeXeXeXeXeXeXeXeXeXeXeXeXeXeXeX",
"eXeXeXeXeXeXeXeXeXeXeXeXeXeX> F b.m.C.C.B.M g -.d U S.V.C.M.M.!.l & eXeXeXeXeXeXeXeXeXeXeXeXeXeXeXeXeX",
"eXeXeXeXeXeXeXeXeXeXeXeXeXeX1 XX}.b.m v x K ;.1.1.A.c.z m H J.#XF % eXeXeXeXeXeXeXeXeXeXeXeXeXeXeXeXeX",
"eXeXeXeXeXeXeXeXeXeXeXeXz B.oX#X#XoXF.S P XXf.i.u.+X!.v n.[.@X@XoX~.x eXeXeXeXeXeXeXeXeXeXeXeXeXeXeXeX",
"eXeXeXeXeXeXeXeXeXeXeXx c.J.oX[.Q.N.2 A K.@Xf.i.u.+X~.x.j G W.Q.XX.Xc.K eXeXeXeXeXeXeXeXeXeXeXeXeXeXeX",
"eXeXeXeXeXeXeXeXeXeXeXN _ ^..Xc.G D   A Q..Xf.a.u.].[.n.X 2 v.G Q. XV.W e eXeXeXeXeXeXeXeXeXeXeXeXeXeX",
"eXeXeXeXeXeXeXeXeXeXeX[ r.j.F.%   eX  A F.F.d.a.u.A.F.n.$ eXeX  D /.p...y eXeXeXeXeXeXeXeXeXeXeXeXeXeX",
"eXeXeXeXeXeXeXeXeXeXeX@ %.=.;.o   $ G n.F.F.d.a.u.A.F.D.x.k     s >.1.7 @ eXeXeXeXeXeXeXeXeXeXeXeXeXeX",
"eXeXeXeXeXeXeXeXeXeXeX  0 y y O   X ' C.F.G.q.t.r.A.F.H.' 5     8 y y * eXeXeXeXeXeXeXeXeXeXeXeXeXeXeX",
"eXeXeXeXeXeXeXeXeXeXeXeX      eXeX# #.' H.H.:.<.#.V.H.N.>.8   eX      eXeXeXeXeXeXeXeXeXeXeXeXeXeXeXeX",
"eXeXeXeXeXeXeXeXeXeXeXeXeXeXeX  k m.I h *.&.<.<.$.&.&.;.R b.G X eXeXeXeXeXeXeXeXeXeXeXeXeXeXeXeXeXeXeX",
"eXeXeXeXeXeXeXeXeXeXeXeXeXeXeX  k n.n._ ~ ~ f d d h ! ~ M.n.G X eXeXeXeXeXeXeXeXeXeXeXeXeXeXeXeXeXeXeX",
"eXeXeXeXeXeXeXeXeXeXeXeXeXeXeX. 2 b.D.D.D.n.l c c D x.F.G.M.A X eXeXeXeXeXeXeXeXeXeXeXeXeXeXeXeXeXeXeX",
"eXeXeXeXeXeXeXeXeXeXeXeXeXeXeXz x m v.v.D . .       j b.v.S v c eXeXeXeXeXeXeXeXeXeXeXeXeXeXeXeXeXeXeX",
"eXeXeXeXeXeXeXeXeXeXeXeXeXeXeX& 6 s p 5 1 eXeXeXeXeX; 2 p a w & eXeXeXeXeXeXeXeXeXeXeXeXeXeXeXeXeXeXeX",
"eXeXeXeXeXeXeXeXeXeXeXeXeXeXeX  = q q =   eXeXeXeXeXeX  0 0 0   eXeXeXeXeXeXeXeXeXeXeXeXeXeXeXeXeXeXeX",
"eXeXeXeXeXeXeXeXeXeXeXeXeXeXeXeXeX    eXeXeXeXeXeXeXeXeX      eXeXeXeXeXeXeXeXeXeXeXeXeXeXeXeXeXeXeXeX",
"eXeXeXeXeXeXeXeXeXeXeXeXeXeXeXeXeXeXeXeXeXeXeXeXeXeXeXeXeXeXeXeXeXeXeXeXeXeXeXeXeXeXeXeXeXeXeXeXeXeXeX",
"eXeXeXeXeXeXeXeXeXeXeXeXeXeXeXeXeXeXeXeXeXeXeXeXeXeXeXeXeXeXeXeXeXeXeXeXeXeXeXeXeXeXeXeXeXeXeXeXeXeXeX",
"eXeXeXeXeXeXeXeXeXeXeXeXeXeXeXeXeXeXeXeXeXeXeXeXeXeXeXeXeXeXeXeXeXeXeXeXeXeXeXeXeXeXeXeXeXeXeXeXeXeXeX",
"eXeXeXeXeXeXeXeXeXeXeXeXeXeXeXeXeXeXeXeXeXeXeXeXeXeXeXeXeXeXeXeXeXeXeXeXeXeXeXeXeXeXeXeXeXeXeXeXeXeXeX",
"eXeXeXeXeXeXeXeXeXeXeXeXeXeXeXeXeXeXeXeXeXeXeXeXeXeXeXeXeXeXeXeXeXeXeXeXeXeXeXeXeXeXeXeXeXeXeXeXeXeXeX",
"eXeXeXeXeXeXeXeXeXeXeXeXeXeXeXeXeXeXeXeXeXeXeXeXeXeXeXeXeXeXeXeXeXeXeXeXeXeXeXeXeXeXeXeXeXeXeXeXeXeXeX"
};
