/* XPM */
static char *result[] = {
/* columns rows colors chars-per-pixel */
"51 51 207 2 ",
"   c #010101",
".  c #090502",
"X  c #0E0801",
"o  c #0A0A0D",
"O  c #150C01",
"+  c #010D13",
"@  c #0C0C12",
"#  c #03141B",
"$  c #151418",
"%  c #1E1201",
"&  c #251503",
"*  c #2A1902",
"=  c #2C1906",
"-  c #331E02",
";  c #3B2907",
":  c #3B2305",
">  c #31301E",
",  c #051926",
"<  c #161B2A",
"1  c #151F32",
"2  c #04202B",
"3  c #062937",
"4  c #1C2437",
"5  c #26283B",
"6  c #382E2F",
"7  c #452803",
"8  c #4D2C05",
"9  c #532E09",
"0  c #5D3405",
"q  c #4E3A1F",
"w  c #663B07",
"e  c #713E07",
"r  c #45383A",
"t  c #563D30",
"y  c #784707",
"u  c #7A4C1C",
"i  c #544239",
"p  c #634224",
"a  c #724F28",
"s  c #785024",
"d  c #6C5636",
"f  c #685A39",
"g  c #775B3D",
"h  c #07334A",
"j  c #0A3C54",
"k  c #083955",
"l  c #133049",
"z  c #292B45",
"x  c #2A2E49",
"c  c #242A44",
"v  c #2C324C",
"b  c #27304E",
"n  c #34354B",
"m  c #373645",
"M  c #233D5C",
"N  c #2E3B5B",
"B  c #273653",
"V  c #383D56",
"C  c #473F4A",
"Z  c #174A5D",
"A  c #0E4352",
"S  c #39445E",
"D  c #394947",
"F  c #07476B",
"G  c #194867",
"H  c #1A4D75",
"J  c #0B587D",
"K  c #165475",
"L  c #2B4A64",
"P  c #2B4F6D",
"I  c #394865",
"U  c #2F5B7D",
"Y  c #196276",
"T  c #23667F",
"R  c #4C464D",
"E  c #484658",
"W  c #5D4F53",
"Q  c #476359",
"!  c #586955",
"~  c #73734F",
"^  c #697052",
"/  c #474A63",
"(  c #445C7A",
")  c #4D5D79",
"_  c #5B5B6F",
"`  c #715E62",
"'  c #497A7C",
"]  c #516B79",
"[  c #72666E",
"{  c #8B4D0D",
"}  c #8D5208",
"|  c #98570A",
" . c #824D16",
".. c #8D5413",
"X. c #A25D08",
"o. c #9C6017",
"O. c #9C6219",
"+. c #9C6B1F",
"@. c #A8640A",
"#. c #BD6E09",
"$. c #B46909",
"%. c #A46513",
"&. c #AE6F12",
"*. c #B37613",
"=. c #AC6E11",
"-. c #855624",
";. c #9A6E24",
":. c #98722E",
">. c #996639",
",. c #A66B37",
"<. c #AA6C36",
"1. c #A77120",
"2. c #C37106",
"3. c #C27209",
"4. c #C37B0E",
"5. c #817142",
"6. c #AB7C5C",
"7. c #907267",
"8. c #C58615",
"9. c #D69115",
"0. c #DA9313",
"q. c #D69418",
"w. c #D99718",
"e. c #DC9A19",
"r. c #D28912",
"t. c #E19A15",
"y. c #E09D19",
"u. c #838958",
"i. c #8B9F6B",
"p. c #B5876A",
"a. c #AF866E",
"s. c #91AB71",
"d. c #88AC7B",
"f. c #C0865B",
"g. c #C49675",
"h. c #D59D77",
"j. c #C7906C",
"k. c #0B5A82",
"l. c #185783",
"z. c #3A5F83",
"x. c #0E6285",
"c. c #0A638A",
"v. c #0D6594",
"b. c #0C6A9C",
"n. c #136494",
"m. c #167195",
"M. c #277B98",
"N. c #296C8E",
"B. c #0C6FA4",
"V. c #0C73AB",
"C. c #0B73AA",
"Z. c #1274A4",
"A. c #1A76A3",
"S. c #0B76B1",
"D. c #0977B3",
"F. c #287CA5",
"G. c #4D6C8C",
"H. c #4F6684",
"J. c #526A86",
"K. c #577491",
"L. c #627D95",
"P. c #7A7C83",
"I. c #1483B6",
"U. c #1D8BAD",
"Y. c #2489A7",
"T. c #2486B0",
"R. c #2E9BBE",
"E. c #2893BA",
"W. c #38A0B8",
"Q. c #508582",
"!. c #62A092",
"~. c #7B95A7",
"^. c #6F8BA0",
"/. c #65B6A8",
"(. c #198FC1",
"). c #289DC0",
"_. c #1FA4D3",
"`. c #27A5CD",
"'. c #24A9D4",
"]. c #2BB6DC",
"[. c #2DBDE4",
"{. c #26B7E3",
"}. c #2EC3EA",
"|. c #30C2E9",
" X c #A19488",
".X c #859DAB",
"XX c #899FA9",
"oX c #829AA7",
"OX c #89A2AF",
"+X c #8BA4B0",
"@X c #AAACB6",
"#X c #C19C85",
"$X c #D3A98D",
"%X c #E1AF8E",
"&X c #E8B694",
"*X c #C7B4B0",
"=X c #ECBEA1",
"-X c #DDC3B8",
";X c #F4C9AD",
":X c #F4CBB2",
">X c #ECCBB6",
",X c #90B7D1",
"<X c #C8CAD4",
"1X c #E9D5CE",
"2X c #C3D3E1",
"3X c #F1E7E8",
"4X c None",
/* pixels */
"4X4X4X4X4X4X4X4X4X4X4X4X4X4X4X4X4X4X4X4X4X4X4X4X4X4X4X4X4X4X4X4X4X4X4X4X4X4X4X4X4X4X4X4X4X4X4X4X4X4X4X",
"4X4X4X4X4X4X4X4X4X4X4X4X4X4X4X4X4X4X4X4X4X4X4X4X4X4X4X4X4X4X4X4X4X4X4X4X4X4X4X4X4X4X4X4X4X4X4X4X4X4X4X",
"4X4X4X4X4X4X4X4X4X4X4X4X4X4X4X4X4X4X4X4X4X4X4X4X4X4X4X4X4X4X4X4X4X4X4X4X4X4X4X4X4X4X4X4X4X4X4X4X4X4X4X",
"4X4X4X4X4X4X4X4X4X4X4X4X4X4X4X4X4X4X4X4X4X4X4X4X4X4X4X4X4X4X4X4X4X4X4X4X4X4X4X4X4X4X4X4X4X4X4X4X4X4X4X",
"4X4X4X4X4X4X4X4X4X4X4X4X4X4X4X4X4X4X4X4X4X                4X4X4X4X4X4X4X4X4X4X4X4X4X4X4X4X4X4X4X4X4X4X",
"4X4X4X4X4X4X4X4X4X4X4X4X4X4X4X4X4X4X4X4X4X: ; ; ; ; ; ; : & 4X4X4X4X4X4X4X4X4X4X4X4X4X4X4X4X4X4X4X4X4X",
"4X4X4X4X4X4X4X4X4X4X4X4X4X4X4X4X4X4X    * #.9.e.e.e.e.q.4.0     4X4X4X4X4X4X4X4X4X4X4X4X4X4X4X4X4X4X4X",
"4X4X4X4X4X4X4X4X4X4X4X4X4X4X4X4X4XO } @.*.q.w.e.e.e.e.w.9.8.=.| :   4X4X4X4X4X4X4X4X4X4X4X4X4X4X4X4X4X",
"4X4X4X4X4X4X4X4X4X4X4X4X4X4X4X4X& 7 4.q.e.e.e.w.e.e.e.e.e.e.e.r.w & 4X4X4X4X4X4X4X4X4X4X4X4X4X4X4X4X4X",
"4X4X4X4X4X4X4X4X4X4X4X4X4X4X4X  7 ..q.e.e.e.e.e.e.e.e.e.w.e.e.e.%.0 . 4X4X4X4X4X4X4X4X4X4X4X4X4X4X4X4X",
"4X4X4X4X4X4X4X4X4X4X4X4X4X4X4X  - ..w.e.e.e.e.e.e.e.e.e.e.e.e.e.%.w   4X4X4X4X4X4X4X4X4X4X4X4X4X4X4X4X",
"4X4X4X4X4X4X4X4X4X4X4X4X4X4X4X  9 @.*.8.e.e.e.e.e.e.e.w.e.e.q.&.@.y   4X4X4X4X4X4X4X4X4X4X4X4X4X4X4X4X",
"4X4X4X4X4X4X4X4X4X4X4X4X4X4X4XO e #.{ *.q.e.e.e.e.e.e.w.e.q.8.{ $.| O 4X4X4X4X4X4X4X4X4X4X4X4X4X4X4X4X",
"4X4X4X4X4X4X4X4X4X4X4X4X4X4XX | #.2.#.X.| w.y.y.e.e.t.e.e.*.{ #.3.#.$.*   4X4X4X4X4X4X4X4X4X4X4X4X4X4X",
"4X4X4X4X4X4X4X4X4X4X4X4X4X4X. @.3.2.2.X. .d d d d d d d d s } 2.3.#.#.*   4X4X4X4X4X4X4X4X4X4X4X4X4X4X",
"4X4X4X4X4X4X4X4X4X4X4X4X4X4X.  .@.3.o. .p N N V I I I N N t u o.$.#.o.&   4X4X4X4X4X4X4X4X4X4X4X4X4X4X",
"4X4X4X4X4X4X4X4X4X4X4X4X4X4X  c a #.m x V G.G.L.+X+X^.G.G./ b v o.o.x @   4X4X4X4X4X4X4X4X4X4X4X4X4X4X",
"4X4X4X4X4X4X4X4X4X4X4X4X4X4X  V C C ( H.J.~.~.~.OX+XoX~.~.K.z.H.R C E @   4X4X4X4X4X4X4X4X4X4X4X4X4X4X",
"4X4X4X4X4X4X4X4X4X4X4X4X4X4X. E / I ( ( J.XX+X+XOX+X+X+X+XL.( ( I I / @   4X4X4X4X4X4X4X4X4X4X4X4X4X4X",
"4X4X4X4X4X4X4X4X4X4X4X4X4X4X. V ( H.n x / oXXXXX.XXXXX.XXX) n x ) J./ $   4X4X4X4X4X4X4X4X4X4X4X4X4X4X",
"4X4X4X4X4X4X4X4X4X4X4X4X4X4X4Xo z _ 6.*X@X< p -.-.-.-.s $ P.<Xp.[ V @ 4X4X4X4X4X4X4X4X4X4X4X4X4X4X4X4X",
"4X4X4X4X4X4X4X4X4X4X4X4X4X4X4X  < E g.1X<Xk g <.,.<.<.>.l XX3Xh.` c   4X4X4X4X4X4X4X4X4X4X4X4X4X4X4X4X",
"4X4X4X4X4X4X4X4X4X4X4X4X4X4X4X+ < m 6.=X2XF. Xh.h.#Xh.g.T.,X1Xg.W 1 + 4X4X4X4X4X4X4X4X4X4X4X4X4X4X4X4X",
"4X4X4X4X4X4X4X4X4X4X4X4X4X4Xb v.k . V 7.%X-X>X:X:X:X:X:X>X&Xp.C $ , b.M x 4X4X4X4X4X4X4X4X4X4X4X4X4X4X",
"4X4X4X4X4X4X4X4X4X4X4X4X4X4Xv ).U.Y < r 7.%X;X;X&X%X;X:X&Xa.W $ G Y.`.L c 4X4X4X4X4X4X4X4X4X4X4X4X4X4X",
"4X4X4X4X4X4X4X4X4X4X4X4X4X4XB R.].].3 l S 6.#X#Xf.f.p.$X6._ b , Y.|.`.L x 4X4X4X4X4X4X4X4X4X4X4X4X4X4X",
"4X4X4X4X4X4X4X4X4X4X4X4X4X4X4Xx M.|.].(.k.    = { { 9 .   k I.{.}.).B 4X4X4X4X4X4X4X4X4X4X4X4X4X4X4X4X",
"4X4X4X4X4X4X4X4X4X4X4X4X4X4X4Xv x A I._.`.Y.S C r r 6 V Y.)._.(.N.P x 4X4X4X4X4X4X4X4X4X4X4X4X4X4X4X4X",
"4X4X4X4X4X4X4X4X4X4X4X4X4X4X4X5 2 3 v.U.).).) E i t E z.E.R.E.b.H B 4 4X4X4X4X4X4X4X4X4X4X4X4X4X4X4X4X",
"4X4X4X4X4X4X4X4X4X4X4X4X4X4X4X  A V.x.G x x b i 3.2.~ V.b v B x.Z.k.  4X4X4X4X4X4X4X4X4X4X4X4X4X4X4X4X",
"4X4X4X4X4X4X4X4X4X4X4X4X4X4X{ | ! C.V.n.H x Y.!.9.0.i.`.B H Z.'.].T.5 4X4X4X4X4X4X4X4X4X4X4X4X4X4X4X4X",
"4X4X4X4X4X4X4X4X4X4X4X4X4X4X9 $.f F F k j H )./.t.t.s.[.Y G J |.|.`.N.L 4X4X4X4X4X4X4X4X4X4X4X4X4X4X4X",
"4X4X4X4X4X4X4X4X4X4X4X4X4X4X. | 0       , B.'./.e.t.s.{.D.h # ].|.|.}.P z 4X4X4X4X4X4X4X4X4X4X4X4X4X4X",
"4X4X4X4X4X4X4X4X4X4X4X4X4X4X4XO .   4X  # C.D.Q.e.t.u.D.D.h # S.'.}.}.P z 4X4X4X4X4X4X4X4X4X4X4X4X4X4X",
"4X4X4X4X4X4X4X4X4X4X4X4X4X4X4X4X4X4X  h F V.C.' e.t.u.C.C.J k j A.W.d.f t 4X4X4X4X4X4X4X4X4X4X4X4X4X4X",
"4X4X4X4X4X4X4X4X4X4X4X4X4X4X4X4X4X4X  Z A.V.D.' 0.0.u.D.S.A.Y   Z ' 9.} e 4X4X4X4X4X4X4X4X4X4X4X4X4X4X",
"4X4X4X4X4X4X4X4X4X4X4X4X4X4X4X4X4X4X  y :.C.C.' 3.2.~ D.C.^ @.  y 4.3.*   4X4X4X4X4X4X4X4X4X4X4X4X4X4X",
"4X4X4X4X4X4X4X4X4X4X4X4X4X4X4X4X4X4X< D ! >.~ :.2.2.&.~ ~ ^ I A > 7 7 % 4X4X4X4X4X4X4X4X4X4X4X4X4X4X4X",
"4X4X4X4X4X4X4X4X4X4X4X4X4X4X4X4X4X4Xx K T :.;.+.o.o.O.;.+.! c.c.2     4X4X4X4X4X4X4X4X4X4X4X4X4X4X4X4X",
"4X4X4X4X4X4X4X4X4X4X4X4X4X4X4X4X4X4Xx x.C.C.n.K v x L x.J x.x.x.2   4X4X4X4X4X4X4X4X4X4X4X4X4X4X4X4X4X",
"4X4X4X4X4X4X4X4X4X4X4X4X4X4X4X4X4X4X@ F S.S.B.b.n., < L x.x.J M 4 4X4X4X4X4X4X4X4X4X4X4X4X4X4X4X4X4X4X",
"4X4X4X4X4X4X4X4X4X4X4X4X4X4X4X4X4X4X  h n.V.V.B.b.# @ v G K G x 4X4X4X4X4X4X4X4X4X4X4X4X4X4X4X4X4X4X4X",
"4X4X4X4X4X4X4X4X4X4X4X4X4X4X4X4X4X4X  < N Z.Z.b.J +   4Xv v v 4X4X4X4X4X4X4X4X4X4X4X4X4X4X4X4X4X4X4X4X",
"4X4X4X4X4X4X4X4X4X4X4X4X4X4X4X4X4X4X4Xz m a s q + 4X4X4X4X4X4X4X4X4X4X4X4X4X4X4X4X4X4X4X4X4X4X4X4X4X4X",
"4X4X4X4X4X4X4X4X4X4X4X4X4X4X4X4X4X4X4X< > X.X.e   4X4X4X4X4X4X4X4X4X4X4X4X4X4X4X4X4X4X4X4X4X4X4X4X4X4X",
"4X4X4X4X4X4X4X4X4X4X4X4X4X4X4X4X4X4X4X  & @.$.y   4X4X4X4X4X4X4X4X4X4X4X4X4X4X4X4X4X4X4X4X4X4X4X4X4X4X",
"4X4X4X4X4X4X4X4X4X4X4X4X4X4X4X4X4X4X4X4X4XX X X 4X4X4X4X4X4X4X4X4X4X4X4X4X4X4X4X4X4X4X4X4X4X4X4X4X4X4X",
"4X4X4X4X4X4X4X4X4X4X4X4X4X4X4X4X4X4X4X4X4X4X4X4X4X4X4X4X4X4X4X4X4X4X4X4X4X4X4X4X4X4X4X4X4X4X4X4X4X4X4X",
"4X4X4X4X4X4X4X4X4X4X4X4X4X4X4X4X4X4X4X4X4X4X4X4X4X4X4X4X4X4X4X4X4X4X4X4X4X4X4X4X4X4X4X4X4X4X4X4X4X4X4X",
"4X4X4X4X4X4X4X4X4X4X4X4X4X4X4X4X4X4X4X4X4X4X4X4X4X4X4X4X4X4X4X4X4X4X4X4X4X4X4X4X4X4X4X4X4X4X4X4X4X4X4X",
"4X4X4X4X4X4X4X4X4X4X4X4X4X4X4X4X4X4X4X4X4X4X4X4X4X4X4X4X4X4X4X4X4X4X4X4X4X4X4X4X4X4X4X4X4X4X4X4X4X4X4X"
};
