/* XPM */
static char *result[] = {
/* columns rows colors chars-per-pixel */
"51 51 205 2 ",
"   c #010100",
".  c #0E0801",
"X  c #030609",
"o  c #060A0E",
"O  c #140C01",
"+  c #190E01",
"@  c #1E1105",
"#  c #020C12",
"$  c #0B0D14",
"%  c #12131B",
"&  c #0F1015",
"*  c #2C1803",
"=  c #211301",
"-  c #341E02",
";  c #271F15",
":  c #3B2907",
">  c #392205",
",  c #212119",
"<  c #0A1825",
"1  c #1B1A24",
"2  c #151A27",
"3  c #211D31",
"4  c #1B2338",
"5  c #072432",
"6  c #22252B",
"7  c #202334",
"8  c #3E3439",
"9  c #472904",
"0  c #53330C",
"q  c #693B08",
"w  c #723E0A",
"e  c #47393B",
"r  c #5B3E2A",
"t  c #784508",
"y  c #754615",
"u  c #6A4015",
"i  c #554237",
"p  c #5F523F",
"a  c #724F24",
"s  c #795226",
"d  c #6D5636",
"f  c #694220",
"g  c #163645",
"h  c #053954",
"j  c #14334A",
"k  c #2A2C45",
"l  c #2A2F4A",
"z  c #2B314C",
"x  c #353548",
"c  c #2D3C5C",
"v  c #263955",
"b  c #343D58",
"n  c #493E41",
"m  c #144156",
"M  c #094058",
"N  c #21445D",
"B  c #275057",
"V  c #064364",
"C  c #084464",
"Z  c #08496B",
"A  c #1A4B6D",
"S  c #174567",
"D  c #155578",
"F  c #0B5271",
"G  c #274363",
"H  c #394664",
"J  c #28556D",
"K  c #295B7B",
"L  c #17657E",
"P  c #2C607F",
"I  c #484658",
"U  c #4F4344",
"Y  c #6C5755",
"T  c #715F59",
"R  c #5A6A55",
"E  c #4A6154",
"W  c #786B4F",
"Q  c #474B65",
"!  c #41536E",
"~  c #445B7A",
"^  c #465874",
"/  c #53566E",
"(  c #48617F",
")  c #586A6A",
"_  c #8A4D0C",
"`  c #844B0A",
"'  c #91520C",
"]  c #945809",
"[  c #975F1A",
"{  c #895318",
"}  c #A55E09",
"|  c #9C6219",
" . c #AA6509",
".. c #B36A0C",
"X. c #BD6E09",
"o. c #B56907",
"O. c #BD710C",
"+. c #B4710D",
"@. c #AC6A11",
"#. c #A46416",
"$. c #AC7519",
"%. c #B37614",
"&. c #845524",
"*. c #9A6C21",
"=. c #8D7238",
"-. c #966E28",
";. c #A56B37",
":. c #AB6C36",
">. c #C47207",
",. c #C17109",
"<. c #C97D0C",
"1. c #827141",
"2. c #9D7358",
"3. c #826A66",
"4. c #A47B65",
"5. c #7F9065",
"6. c #A0893D",
"7. c #C98916",
"8. c #D28C14",
"9. c #D88F14",
"0. c #DA9415",
"q. c #DC9A19",
"w. c #D5961B",
"e. c #E09A16",
"r. c #E09E1A",
"t. c #9D8B41",
"y. c #A49447",
"u. c #A08F43",
"i. c #AAA554",
"p. c #B88E77",
"a. c #B88B6E",
"s. c #C1875C",
"d. c #D39D78",
"f. c #D99E77",
"g. c #C79675",
"h. c #165A84",
"j. c #095D8A",
"k. c #0D6285",
"l. c #0C648D",
"z. c #0C6495",
"x. c #0B6A9D",
"c. c #126699",
"v. c #1C7890",
"b. c #266688",
"n. c #28758F",
"m. c #267699",
"M. c #337893",
"N. c #0D6FA3",
"B. c #0C73AC",
"V. c #0E75AB",
"C. c #1273A5",
"Z. c #1873A0",
"A. c #0976B1",
"S. c #107CB2",
"D. c #4E6C8C",
"F. c #496381",
"G. c #557492",
"H. c #637F94",
"J. c #627385",
"K. c #358296",
"L. c #1C86AD",
"P. c #1988B8",
"I. c #1D93B9",
"U. c #2789AC",
"Y. c #2A8BB7",
"T. c #2B9ABC",
"R. c #338AAC",
"E. c #6E869A",
"W. c #64A898",
"Q. c #4282A3",
"!. c #7A94A6",
"~. c #47AFBB",
"^. c #1B98C9",
"/. c #158DC3",
"(. c #2C9CC1",
"). c #1FA1CE",
"_. c #2EA6CA",
"`. c #27ABD4",
"'. c #2AB3D9",
"]. c #2DBDE3",
"[. c #4EBBC3",
"{. c #71A8C8",
"}. c #2EC1E7",
"|. c #2EC4EB",
" X c #30C6ED",
".X c #869EAB",
"XX c #899FA9",
"oX c #89A2AF",
"OX c #8BA4B0",
"+X c #889090",
"@X c #DAA684",
"#X c #C6A999",
"$X c #D4AE96",
"%X c #E7B797",
"&X c #E1AF8E",
"*X c #D6B6A6",
"=X c #E8C8B4",
"-X c #F5CBB1",
";X c #EFC8AF",
":X c #BDBFCB",
">X c #D9DEE7",
",X c #DAE0EC",
"<X c #EFE8EB",
"1X c #D0CED7",
"2X c None",
/* pixels */
"2X2X2X2X2X2X2X2X2X2X2X2X2X2X2X2X2X2X2X2X2X2X2X2X2X2X2X2X2X2X2X2X2X2X2X2X2X2X2X2X2X2X2X2X2X2X2X2X2X2X2X",
"2X2X2X2X2X2X2X2X2X2X2X2X2X2X2X2X2X2X2X2X2X2X2X2X2X2X2X2X2X2X2X2X2X2X2X2X2X2X2X2X2X2X2X2X2X2X2X2X2X2X2X",
"2X2X2X2X2X2X2X2X2X2X2X2X2X2X2X2X2X2X2X2X2X2X2X2X2X2X2X2X2X2X2X2X2X2X2X2X2X2X2X2X2X2X2X2X2X2X2X2X2X2X2X",
"2X2X2X2X2X2X2X2X2X2X2X2X2X2X2X2X2X2X2X2X2X2X2X2X2X2X2X2X2X2X2X2X2X2X2X2X2X2X2X2X2X2X2X2X2X2X2X2X2X2X2X",
"2X2X2X2X2X2X2X2X2X2X2X2X2X2X2X2X2X2X2X2X2X2X2X                2X2X2X2X2X2X2X2X2X2X2X2X2X2X2X2X2X2X2X2X",
"2X2X2X2X2X2X2X2X2X2X2X2X2X2X2X2X2X2X2X2X2X2X2X* > : : : : : > * 2X2X2X2X2X2X2X2X2X2X2X2X2X2X2X2X2X2X2X",
"2X2X2X2X2X2X2X2X2X2X2X2X2X2X2X2X2X2X2X2X    O o.8.q.q.q.q.w.<.t     2X2X2X2X2X2X2X2X2X2X2X2X2X2X2X2X2X",
"2X2X2X2X2X2X2X2X2X2X2X2X2X2X2X2X2X2X2X  `  .%.w.0.q.q.q.q.q.9.7.%.] 9   2X2X2X2X2X2X2X2X2X2X2X2X2X2X2X",
"2X2X2X2X2X2X2X2X2X2X2X2X2X2X2X2X2X2X@ - +.9.r.q.q.q.w.q.q.q.q.q.e.8.t * 2X2X2X2X2X2X2X2X2X2X2X2X2X2X2X",
"2X2X2X2X2X2X2X2X2X2X2X2X2X2X2X2X2X  * { 8.q.q.q.q.q.q.q.q.q.q.q.q.q.%.w . 2X2X2X2X2X2X2X2X2X2X2X2X2X2X",
"2X2X2X2X2X2X2X2X2X2X2X2X2X2X2X2X2X  * ` 8.q.q.q.q.q.q.q.q.q.q.q.q.r.@.w   2X2X2X2X2X2X2X2X2X2X2X2X2X2X",
"2X2X2X2X2X2X2X2X2X2X2X2X2X2X2X2X2X  - } @.7.q.q.q.q.q.q.q.q.q.q.q.%.@._ . 2X2X2X2X2X2X2X2X2X2X2X2X2X2X",
"2X2X2X2X2X2X2X2X2X2X2X2X2X2X2X2X2XO 9 >.' @.9.q.q.q.q.q.q.q.q.0.8.' }  .= 2X2X2X2X2X2X2X2X2X2X2X2X2X2X",
"2X2X2X2X2X2X2X2X2X2X2X2X2X2X2X2X  _ O.>.,.} ' w.e.e.q.e.q.q.r.%._ o.,.X.o.9   2X2X2X2X2X2X2X2X2X2X2X2X",
"2X2X2X2X2X2X2X2X2X2X2X2X2X2X2X2X  ] >.>.>.} ` d d d d d d d d s _ ,.,.,.>.9   2X2X2X2X2X2X2X2X2X2X2X2X",
"2X2X2X2X2X2X2X2X2X2X2X2X2X2X2X2X  y @.X.#.{ f b c c H H H c G i y [ @.X.#.>   2X2X2X2X2X2X2X2X2X2X2X2X",
"2X2X2X2X2X2X2X2X2X2X2X2X2X2X2X2X  4 i X.n z z D.D.G.XXoX!.D.D.! k l a ..x %   2X2X2X2X2X2X2X2X2X2X2X2X",
"2X2X2X2X2X2X2X2X2X2X2X2X2X2X2X2X  x I e ^ F.F.!.!.!.oXoX.X!.!.E.F.F.I n Q 1   2X2X2X2X2X2X2X2X2X2X2X2X",
"2X2X2X2X2X2X2X2X2X2X2X2X2X2X2X2X  x Q H H ~ ( !.OXoXoXoXoXoXOXE.~ F.H H Q 1   2X2X2X2X2X2X2X2X2X2X2X2X",
"2X2X2X2X2X2X2X2X2X2X2X2X2X2X2X2X  x / D.b x H !.oXoXoXoX.X.XoXJ.z z ! D.Q 1   2X2X2X2X2X2X2X2X2X2X2X2X",
"2X2X2X2X2X2X2X2X2X2X2X2X2X2X2X2X2X$ 7 / 4.#X:X6 i &.&.&.&.&.; ) 1Xp.3.Q & 2X2X2X2X2X2X2X2X2X2X2X2X2X2X",
"2X2X2X2X2X2X2X2X2X2X2X2X2X2X2X2X2X  % I a.=X,Xv p :.;.;.;.;.4 H.<X@X3.x   2X2X2X2X2X2X2X2X2X2X2X2X2X2X",
"2X2X2X2X2X2X2X2X2X2X2X2X2X2X2X2X2X# < k 4.*X>XY.+Xf.d.d.d.d.Q.{.<Xg.Y 4 # 2X2X2X2X2X2X2X2X2X2X2X2X2X2X",
"2X2X2X2X2X2X2X2X2X2X2X2X2X2X2X2Xz h.Z   7 3.@X=X;X-X-X-X-X-X=X%Xd.I 1 # z.A l 2X2X2X2X2X2X2X2X2X2X2X2X",
"2X2X2X2X2X2X2X2X2X2X2X2X2X2X2X2Xl U.T.L 2 8 3.@X;X-X&X&X%X-X%Xp.Y 1 m v._.K k 2X2X2X2X2X2X2X2X2X2X2X2X",
"2X2X2X2X2X2X2X2X2X2X2X2X2X2X2X2Xl R.'.}.M 4 c 2.p.@Xs.a.g.@Xa.T j 5 v. X`.K k 2X2X2X2X2X2X2X2X2X2X2X2X",
"2X2X2X2X2X2X2X2X2X2X2X2X2X2X2X2X2Xl P }.].^.z.o   @ ` { q     j A.'.}.'.v 2X2X2X2X2X2X2X2X2X2X2X2X2X2X",
"2X2X2X2X2X2X2X2X2X2X2X2X2X2X2X2X2Xz N P L.^.`.U.J 8 8 e 8 x v.I.`./.L g z 2X2X2X2X2X2X2X2X2X2X2X2X2X2X",
"2X2X2X2X2X2X2X2X2X2X2X2X2X2X2X2X2X4 k N z.S.T.(.M.H i i U H R.T.T.N.V < 4 2X2X2X2X2X2X2X2X2X2X2X2X2X2X",
"2X2X2X2X2X2X2X2X2X2X2X2X2X2X2X2X2X  5 B.l.J l k h.n.X.>.| v z z z k.x.z.o 2X2X2X2X2X2X2X2X2X2X2X2X2X2X",
"2X2X2X2X2X2X2X2X2X2X2X2X2X2X2X2X2X3 A ].'./.c.l m.[.w.0.y._.N c D N.B.m.] ' _ 2X2X2X2X2X2X2X2X2X2X2X2X",
"2X2X2X2X2X2X2X2X2X2X2X2X2X2X2X2X2Xb.U.].].L.V A (.[.q.0.i.}.b.S h V Z N X.t 9 2X2X2X2X2X2X2X2X2X2X2X2X",
"2X2X2X2X2X2X2X2X2X2X2X2X2X2X2X2Xl (.|.|.|.L X N.^.[.w.q.i.].P.V       +  .9   2X2X2X2X2X2X2X2X2X2X2X2X",
"2X2X2X2X2X2X2X2X2X2X2X2X2X2X2X2Xl (.|.|./.h X x.A.K.w.e.t.L.A.V   2X    O 2X2X2X2X2X2X2X2X2X2X2X2X2X2X",
"2X2X2X2X2X2X2X2X2X2X2X2X2X2X2X2Xr 5.W./.Z h V N.N.M.w.r.u.B.B.l.h # 2X2X2X2X2X2X2X2X2X2X2X2X2X2X2X2X2X",
"2X2X2X2X2X2X2X2X2X2X2X2X2X2X2X2Xt <.6.n.# g m.B.B.M.w.q.t.B.B.V.n.# 2X2X2X2X2X2X2X2X2X2X2X2X2X2X2X2X2X",
"2X2X2X2X2X2X2X2X2X2X2X2X2X2X2X2X. ] ,.@.@ 9 $.Z.A.n.O.>.=.V.A.)  .O 2X2X2X2X2X2X2X2X2X2X2X2X2X2X2X2X2X",
"2X2X2X2X2X2X2X2X2X2X2X2X2X2X2X2X2X> 9 9 g B R W W =.>.>.+.W =.W E 7 2X2X2X2X2X2X2X2X2X2X2X2X2X2X2X2X2X",
"2X2X2X2X2X2X2X2X2X2X2X2X2X2X2X2X2X    X F l.L -.| *.| | | *.-.R l.v 2X2X2X2X2X2X2X2X2X2X2X2X2X2X2X2X2X",
"2X2X2X2X2X2X2X2X2X2X2X2X2X2X2X2X2X2X2X  F k.k.k.k.D z l N L N.V.N.v 2X2X2X2X2X2X2X2X2X2X2X2X2X2X2X2X2X",
"2X2X2X2X2X2X2X2X2X2X2X2X2X2X2X2X2X2X2X2Xv A k.k.A l $ S c.N.B.V.N.< 2X2X2X2X2X2X2X2X2X2X2X2X2X2X2X2X2X",
"2X2X2X2X2X2X2X2X2X2X2X2X2X2X2X2X2X2X2X2Xl m D A S 4   F V.B.B.Z.D o 2X2X2X2X2X2X2X2X2X2X2X2X2X2X2X2X2X",
"2X2X2X2X2X2X2X2X2X2X2X2X2X2X2X2X2X2X2X2X2X2Xl l 2X2X  h l.C.V.D k X 2X2X2X2X2X2X2X2X2X2X2X2X2X2X2X2X2X",
"2X2X2X2X2X2X2X2X2X2X2X2X2X2X2X2X2X2X2X2X2X2X2X2X2X2X2X# , a y i l 2X2X2X2X2X2X2X2X2X2X2X2X2X2X2X2X2X2X",
"2X2X2X2X2X2X2X2X2X2X2X2X2X2X2X2X2X2X2X2X2X2X2X2X2X2X2X  * } } u 2 2X2X2X2X2X2X2X2X2X2X2X2X2X2X2X2X2X2X",
"2X2X2X2X2X2X2X2X2X2X2X2X2X2X2X2X2X2X2X2X2X2X2X2X2X2X2X  -  .o.q   2X2X2X2X2X2X2X2X2X2X2X2X2X2X2X2X2X2X",
"2X2X2X2X2X2X2X2X2X2X2X2X2X2X2X2X2X2X2X2X2X2X2X2X2X2X2X2X2X. . O 2X2X2X2X2X2X2X2X2X2X2X2X2X2X2X2X2X2X2X",
"2X2X2X2X2X2X2X2X2X2X2X2X2X2X2X2X2X2X2X2X2X2X2X2X2X2X2X2X2X2X2X2X2X2X2X2X2X2X2X2X2X2X2X2X2X2X2X2X2X2X2X",
"2X2X2X2X2X2X2X2X2X2X2X2X2X2X2X2X2X2X2X2X2X2X2X2X2X2X2X2X2X2X2X2X2X2X2X2X2X2X2X2X2X2X2X2X2X2X2X2X2X2X2X",
"2X2X2X2X2X2X2X2X2X2X2X2X2X2X2X2X2X2X2X2X2X2X2X2X2X2X2X2X2X2X2X2X2X2X2X2X2X2X2X2X2X2X2X2X2X2X2X2X2X2X2X",
"2X2X2X2X2X2X2X2X2X2X2X2X2X2X2X2X2X2X2X2X2X2X2X2X2X2X2X2X2X2X2X2X2X2X2X2X2X2X2X2X2X2X2X2X2X2X2X2X2X2X2X"
};
