/* XPM */
static char *result[] = {
/* columns rows colors chars-per-pixel */
"51 51 184 2 ",
"   c #010001",
".  c #0C0701",
"X  c #0F0801",
"o  c #010A0F",
"O  c #0A090E",
"+  c #010609",
"@  c #130A01",
"#  c #1A0F02",
"$  c #1E1103",
"%  c #020D11",
"&  c #0A0C13",
"*  c #04131A",
"=  c #131418",
"-  c #241301",
";  c #281703",
":  c #2B1902",
">  c #311F03",
",  c #241F11",
"<  c #3B2505",
"1  c #22261E",
"2  c #3B2D11",
"3  c #011722",
"4  c #031C2A",
"5  c #161A26",
"6  c #07202F",
"7  c #192726",
"8  c #082A39",
"9  c #162A3C",
"0  c #20212D",
"q  c #252531",
"w  c #2C2C3A",
"e  c #492A06",
"r  c #5A2F05",
"t  c #5C3405",
"y  c #5A3205",
"u  c #4E311A",
"i  c #653A06",
"p  c #4D3A34",
"a  c #443A3D",
"s  c #744405",
"d  c #794705",
"f  c #7D440B",
"g  c #4F413C",
"h  c #534139",
"j  c #694C28",
"k  c #704821",
"l  c #67512D",
"z  c #664C34",
"x  c #78522B",
"c  c #1A2942",
"v  c #07394E",
"b  c #0A354A",
"n  c #2A2C46",
"m  c #2A2E49",
"M  c #2B304C",
"N  c #223248",
"B  c #323344",
"V  c #3A3849",
"C  c #263552",
"Z  c #273B59",
"A  c #333753",
"S  c #363A56",
"D  c #3A3C54",
"F  c #383C58",
"G  c #223E61",
"H  c #463E46",
"J  c #0F424E",
"K  c #09435C",
"L  c #11425D",
"P  c #20405F",
"I  c #074A6B",
"U  c #094865",
"Y  c #135261",
"T  c #0E4E75",
"R  c #1C4B73",
"E  c #09537C",
"W  c #0A587B",
"Q  c #125B7F",
"!  c #18527E",
"~  c #224265",
"^  c #19697D",
"/  c #1B627C",
"(  c #3F6562",
")  c #2C607E",
"_  c #48475E",
"`  c #48465B",
"'  c #546855",
"]  c #556654",
"[  c #48665C",
"{  c #64725C",
"}  c #4B4B64",
"|  c #4E4E68",
" . c #4A7171",
".. c #5A7E71",
"X. c #59776A",
"o. c #864A0C",
"O. c #8A4E0D",
"+. c #855409",
"@. c #8C5109",
"#. c #92520C",
"$. c #9A570A",
"%. c #9B5B0D",
"&. c #935D1C",
"*. c #855917",
"=. c #A05C0B",
"-. c #9F630A",
";. c #8F6410",
":. c #99661B",
">. c #A9610A",
",. c #AF6809",
"<. c #B56B0B",
"1. c #BC6E09",
"2. c #B16609",
"3. c #BD710B",
"4. c #A46412",
"5. c #AA6B12",
"6. c #AA6B16",
"7. c #B97212",
"8. c #BA7913",
"9. c #8A6C2F",
"0. c #9E6E21",
"q. c #C57307",
"w. c #C17008",
"e. c #C97508",
"r. c #C97B0C",
"t. c #7E875A",
"y. c #618270",
"u. c #CC800E",
"i. c #C98614",
"p. c #D68C12",
"a. c #D08711",
"s. c #DA9516",
"d. c #D29118",
"f. c #DC9A19",
"g. c #DA9718",
"h. c #E19E1A",
"j. c #0F5F81",
"k. c #0B5780",
"l. c #105C82",
"z. c #105A8E",
"x. c #0E5F94",
"c. c #0E6185",
"v. c #0C6388",
"b. c #166C8D",
"n. c #156384",
"m. c #1A718A",
"M. c #0B6292",
"N. c #086599",
"B. c #136495",
"V. c #1C739D",
"C. c #1C7896",
"Z. c #286183",
"A. c #397282",
"S. c #216F97",
"D. c #237397",
"F. c #287395",
"G. c #0C6FA6",
"H. c #0C73AC",
"J. c #1477A6",
"K. c #0C77B0",
"L. c #1A89AE",
"P. c #198DB8",
"I. c #1F95BE",
"U. c #2C83A5",
"Y. c #2C8BAE",
"T. c #3F94A2",
"R. c #2D9BBE",
"E. c #2297BB",
"W. c #3799B0",
"Q. c #1E9ECC",
"!. c #229EC2",
"~. c #2D9DC0",
"^. c #1FA4D3",
"/. c #26A4CB",
"(. c #2AAFD1",
"). c #25A9D2",
"_. c #29B0D4",
"`. c #2DB6DC",
"'. c #2AB6DC",
"]. c #2CBBE2",
"[. c #2EC1E7",
"{. c #2FC4EB",
"}. c #30C7ED",
"|. c None",
/* pixels */
"|.|.|.|.|.|.|.|.|.|.|.|.|.|.|.|.|.|.|.|.|.|.|.|.|.|.|.|.|.|.|.|.|.|.|.|.|.|.|.|.|.|.|.|.|.|.|.|.|.|.|.",
"|.|.|.|.|.|.|.|.|.|.|.|.|.|.|.|.|.|.|.|.|.|.|.|.|.|.|.|.|.|.|.|.|.|.|.|.|.|.|.|.|.|.|.|.|.|.|.|.|.|.|.",
"|.|.|.|.|.|.|.|.|.|.|.|.|.|.|.|.|.|.|.|.|.|.|.|.|.|.|.|.|.|.|.|.|.|.|.|.|.|.|.|.|.|.|.|.|.|.|.|.|.|.|.",
"|.|.|.|.|.|.|.|.|.|.|.|.|.|.|.|.|.|.|.|.|.|.|.|.|.|.|.|.|.|.|.|.|.|.|.|.|.|.|.|.|.|.|.|.|.|.|.|.|.|.|.",
"|.|.|.|.|.|.|.|.|.|.|.|.|.|.|.|.|.|.|.|.|.|.|.|.|.|.|.|.|.|.|.|.|.|.|.|.|.|.|.|.|.|.|.|.|.|.|.|.|.|.|.",
"|.|.|.|.|.|.|.|.|.|.|.|.|.|.|.|.|.|.|.|.|.|.|.|.|.|.|.|.|.|.|.|.|.|.|.|.|.|.|.|.|.|.|.|.|.|.|.|.|.|.|.",
"|.|.|.|.|.|.|.|.|.|.|.|.|.|.|.|.|.|.|.|.|.|.|.|.|.|.|.|.|.|.|.|.|.|.|.|.|.|.|.|.|.|.|.|.|.|.|.|.|.|.|.",
"|.|.|.|.|.|.|.|.|.|.|.|.|.|.|.|.|.|.|.|.|.|.|.|.|.|.|.|.|.|.|.|.|.|.|.|.|.|.|.|.|.|.|.|.|.|.|.|.|.|.|.",
"|.|.|.|.|.|.|.|.|.|.|.|.|.|.|.|.|.|.|.|.                  |.|.|.|.|.|.|.|.|.|.|.|.|.|.|.|.|.|.|.|.|.|.",
"|.|.|.|.|.|.|.|.|.|.|.|.|.|.|.|.|.|.    s +.;.;.;.;.;.+.i     |.|.|.|.|.|.|.|.|.|.|.|.|.|.|.|.|.|.|.|.",
"|.|.|.|.|.|.|.|.|.|.|.|.|.|.|.|.|.: > < ,.p.h.h.h.h.h.p.-.< > ; |.|.|.|.|.|.|.|.|.|.|.|.|.|.|.|.|.|.|.",
"|.|.|.|.|.|.|.|.|.|.|.|.|.|.|.|.  @.u.f.f.f.f.f.f.f.f.f.g.g.r.s   |.|.|.|.|.|.|.|.|.|.|.|.|.|.|.|.|.|.",
"|.|.|.|.|.|.|.|.|.|.|.|.|.|.|.$ i 8.g.f.f.f.f.f.f.f.f.f.f.f.s.5.t X |.|.|.|.|.|.|.|.|.|.|.|.|.|.|.|.|.",
"|.|.|.|.|.|.|.|.|.|.|.|.|.|.  $ O.i.f.f.f.f.f.f.f.f.f.f.f.f.f.8.f @ |.|.|.|.|.|.|.|.|.|.|.|.|.|.|.|.|.",
"|.|.|.|.|.|.|.|.|.|.|.|.|.|.  $ f i.f.f.f.f.f.f.f.f.f.f.f.g.f.8.f X |.|.|.|.|.|.|.|.|.|.|.|.|.|.|.|.|.",
"|.|.|.|.|.|.|.|.|.|.|.|.|.|.  - <.%.5.f.f.g.f.f.f.f.f.f.f.f.4.%.>.@ |.|.|.|.|.|.|.|.|.|.|.|.|.|.|.|.|.",
"|.|.|.|.|.|.|.|.|.|.|.|.|.|.e s 3.#.%.a.f.f.f.f.f.f.f.f.g.u.#.%.1.i < |.|.|.|.|.|.|.|.|.|.|.|.|.|.|.|.",
"|.|.|.|.|.|.|.|.|.|.|.|.|.  d e.1.$.$.1.i.d.d.d.d.d.d.g.i.<.#.=.w.e.i   |.|.|.|.|.|.|.|.|.|.|.|.|.|.|.",
"|.|.|.|.|.|.|.|.|.|.|.|.|.  d q.w.1.>.o.O.O.O.O.O.O.O.O.o.o.2.w.w.q.t   |.|.|.|.|.|.|.|.|.|.|.|.|.|.|.",
"|.|.|.|.|.|.|.|.|.|.|.|.|.  d e.w.w.1.>.>.>.>.>.>.>.>.>.>.>.1.w.1.q.i   |.|.|.|.|.|.|.|.|.|.|.|.|.|.|.",
"|.|.|.|.|.|.|.|.|.|.|.|.|.  i 5.w.1.w.w.w.q.w.q.w.w.w.w.q.w.w.w.1.4.e   |.|.|.|.|.|.|.|.|.|.|.|.|.|.|.",
"|.|.|.|.|.|.|.|.|.|.|.|.|.  0 H 1.w.w.w.w.w.3.w.w.w.w.w.w.w.w.w.<.H 5   |.|.|.|.|.|.|.|.|.|.|.|.|.|.|.",
"|.|.|.|.|.|.|.|.|.|.|.|.|.  w ` h >.e.w.w.w.w.w.w.w.w.w.w.q.q.&.p } 7   |.|.|.|.|.|.|.|.|.|.|.|.|.|.|.",
"|.|.|.|.|.|.|.|.|.|.|.|.|.  w | A x &.&.<.w.w.w.w.w.w.w.<.&.&.l S } q   |.|.|.|.|.|.|.|.|.|.|.|.|.|.|.",
"|.|.|.|.|.|.|.|.|.|.|.|.|.  w | } A m B 4.1.1.<.1.1.1.1.&.m m F | | q   |.|.|.|.|.|.|.|.|.|.|.|.|.|.|.",
"|.|.|.|.|.|.|.|.|.|.|.|.|.|.O 5 } } } } H a H H a H a a H } } } | = O |.|.|.|.|.|.|.|.|.|.|.|.|.|.|.|.",
"|.|.|.|.|.|.|.|.|.|.|.|.|.|.= 5 w w w w A F F F S S F F A w w w w = |.|.|.|.|.|.|.|.|.|.|.|.|.|.|.|.|.",
"|.|.|.|.|.|.|.|.|.|.|.|.|.|.Z N & % % + D } H } ` ` } ` B + % % * M Z |.|.|.|.|.|.|.|.|.|.|.|.|.|.|.|.",
"|.|.|.|.|.|.|.|.|.|.|.|.|.m U.`.(.(.Q.z.* . + . .   O   6 N./.(.(.].F.n |.|.|.|.|.|.|.|.|.|.|.|.|.|.|.",
"|.|.|.|.|.|.|.|.|.|.|.|.|.m D.^.{.{.'.Q.m.^ ^ ^ n.^ ^ ^ C.Q.].{.{.!.Z.n |.|.|.|.|.|.|.|.|.|.|.|.|.|.|.",
"|.|.|.|.|.|.|.|.|.|.|.|.|.m ! J._.].].{.}.{.}.}.}.}.{.{.{.{.{.].(.G.R n |.|.|.|.|.|.|.|.|.|.|.|.|.|.|.",
"|.|.|.|.|.|.|.|.|.|.|.|.|.|.C Z v.).{.[.[.[.{.[.[.[.[.[.[.{.{.E.c.C |.|.|.|.|.|.|.|.|.|.|.|.|.|.|.|.|.",
"|.|.|.|.|.|.|.|.|.|.|.|.|.|.O 9 /.L.m.Z.`.}.}.{.{.{.].{./.) C.P.E.5 |.|.|.|.|.|.|.|.|.|.|.|.|.|.|.|.|.",
"|.|.|.|.|.|.|.|.|.|.|.|.|.|.8 Y [.P.n.~ Y.R.~.~.R.R.~.~.U.P b.E.].J 9 |.|.|.|.|.|.|.|.|.|.|.|.|.|.|.|.",
"|.|.|.|.|.|.|.|.|.|.|.|.|.n Y.}.[.{.).G.Z m m M M M M m ~ H._.[.[.{.F.m |.|.|.|.|.|.|.|.|.|.|.|.|.|.|.",
"|.|.|.|.|.|.|.|.|.|.|.|.Z x./.].P.J.T 4 l.B.B.B.B.B.B.B.T 4 c.I.}.}.I.z.C |.|.|.|.|.|.|.|.|.|.|.|.|.|.",
"|.|.|.|.|.|.|.|.|.|.|.p g ..W.I.I W b   M.H.H.H.K.H.H.K.E   K b.C.Q.T.X.g |.|.|.|.|.|.|.|.|.|.|.|.|.|.",
"|.|.|.|.|.|.|.|.|.|.|.f o.s.y.E   |.|.o M.H.H.H.H.H.H.H.E + |.|.+ M.t.p.o.|.|.|.|.|.|.|.|.|.|.|.|.|.|.",
"|.|.|.|.|.|.|.|.|.|.|.X ; 3.8.*.    8 N.H.H.G.H.H.H.H.H.G.N.3   X :.8.,.# |.|.|.|.|.|.|.|.|.|.|.|.|.|.",
"|.|.|.|.|.|.|.|.|.|.|.|.@ t i r     7 { V.H.H.H.H.H.H.H.D.{ =   X t i t   |.|.|.|.|.|.|.|.|.|.|.|.|.|.",
"|.|.|.|.|.|.|.|.|.|.|.|.|.      |.% 2 6.A.D.V.S.S.C.D.C. .5.1 o |.      |.|.|.|.|.|.|.|.|.|.|.|.|.|.|.",
"|.|.|.|.|.|.|.|.|.|.|.|.|.|.|.|.  K l./ 0.3.7.7.3.7.7.7.9./ Q v   |.|.|.|.|.|.|.|.|.|.|.|.|.|.|.|.|.|.",
"|.|.|.|.|.|.|.|.|.|.|.|.|.|.|.|.  U v.c.[ ' ' z z z ' ' ( c.v.v   |.|.|.|.|.|.|.|.|.|.|.|.|.|.|.|.|.|.",
"|.|.|.|.|.|.|.|.|.|.|.|.|.|.|.|.& L Q c.v.W U c 9 c I W c.c.Q b O |.|.|.|.|.|.|.|.|.|.|.|.|.|.|.|.|.|.",
"|.|.|.|.|.|.|.|.|.|.|.|.|.|.|.|.m m P c.v.v           K v.c.Z n m |.|.|.|.|.|.|.|.|.|.|.|.|.|.|.|.|.|.",
"|.|.|.|.|.|.|.|.|.|.|.|.|.|.|.|.& u k l 7 * |.|.|.|.|.3 0 l k u & |.|.|.|.|.|.|.|.|.|.|.|.|.|.|.|.|.|.",
"|.|.|.|.|.|.|.|.|.|.|.|.|.|.|.|.  e t r X |.|.|.|.|.|.|.- r t <   |.|.|.|.|.|.|.|.|.|.|.|.|.|.|.|.|.|.",
"|.|.|.|.|.|.|.|.|.|.|.|.|.|.|.|.|.      |.|.|.|.|.|.|.|.|.      |.|.|.|.|.|.|.|.|.|.|.|.|.|.|.|.|.|.|.",
"|.|.|.|.|.|.|.|.|.|.|.|.|.|.|.|.|.|.|.|.|.|.|.|.|.|.|.|.|.|.|.|.|.|.|.|.|.|.|.|.|.|.|.|.|.|.|.|.|.|.|.",
"|.|.|.|.|.|.|.|.|.|.|.|.|.|.|.|.|.|.|.|.|.|.|.|.|.|.|.|.|.|.|.|.|.|.|.|.|.|.|.|.|.|.|.|.|.|.|.|.|.|.|.",
"|.|.|.|.|.|.|.|.|.|.|.|.|.|.|.|.|.|.|.|.|.|.|.|.|.|.|.|.|.|.|.|.|.|.|.|.|.|.|.|.|.|.|.|.|.|.|.|.|.|.|."
};
