/* XPM */
static char *result[] = {
/* columns rows colors chars-per-pixel */
"51 51 189 2 ",
"   c #000101",
".  c #0F0801",
"X  c #010608",
"o  c #0D090D",
"O  c #090707",
"+  c #1A0F01",
"@  c #1E1103",
"#  c #070C13",
"$  c #100F14",
"%  c #061218",
"&  c #11121C",
"*  c #111116",
"=  c #241402",
"-  c #2A1904",
";  c #351E04",
":  c #3B2406",
">  c #0A1927",
",  c #121422",
"<  c #1A1A23",
"1  c #1D1D2C",
"2  c #121E2E",
"3  c #1A2726",
"4  c #042535",
"5  c #0C2434",
"6  c #05293D",
"7  c #1A2032",
"8  c #22222D",
"9  c #313B2B",
"0  c #24293C",
"q  c #242434",
"w  c #482907",
"e  c #512E05",
"r  c #562F08",
"t  c #4B360B",
"y  c #5C3604",
"u  c #5B3208",
"i  c #543205",
"p  c #633904",
"a  c #4B3530",
"s  c #6D4206",
"d  c #6D4309",
"f  c #784605",
"g  c #7C430B",
"h  c #724E0C",
"j  c #774605",
"k  c #74520D",
"l  c #6F4617",
"z  c #544136",
"x  c #54423B",
"c  c #66492F",
"v  c #764D23",
"b  c #75532E",
"n  c #725521",
"m  c #624833",
"M  c #715D36",
"N  c #062C40",
"B  c #1C2B41",
"V  c #063A54",
"C  c #083C57",
"Z  c #1B3A55",
"A  c #183147",
"S  c #232E47",
"D  c #2A2C46",
"F  c #242E4A",
"G  c #2A2E49",
"H  c #26344B",
"J  c #2B334D",
"K  c #343445",
"L  c #363648",
"P  c #263654",
"I  c #2B3553",
"U  c #253C5B",
"Y  c #323753",
"T  c #3A3C53",
"R  c #453B40",
"E  c #084058",
"W  c #244254",
"Q  c #0A4863",
"!  c #1E486E",
"~  c #135262",
"^  c #1B4E73",
"/  c #154C70",
"(  c #0A557B",
")  c #155376",
"_  c #155A79",
"`  c #275D6C",
"'  c #224568",
"]  c #15657F",
"[  c #276372",
"{  c #504242",
"}  c #45455C",
"|  c #494453",
" . c #5A6850",
".. c #4E6657",
"X. c #6A6944",
"o. c #444660",
"O. c #4B4C64",
"+. c #4F4F69",
"@. c #474862",
"#. c #5E7363",
"$. c #4A7476",
"%. c #854A0D",
"&. c #8C4D0C",
"*. c #884F05",
"=. c #8F520E",
"-. c #8D5004",
";. c #91530D",
":. c #9A570B",
">. c #9E5C0C",
",. c #975C08",
"<. c #965E1B",
"1. c #A15B0A",
"2. c #A95F07",
"3. c #9D6117",
"4. c #A3620B",
"5. c #AC630A",
"6. c #AE6B0C",
"7. c #B66C0D",
"8. c #BB6D09",
"9. c #B06509",
"0. c #BF7008",
"q. c #A36415",
"w. c #AA6612",
"e. c #A76911",
"r. c #AD721C",
"t. c #B27112",
"y. c #B77715",
"u. c #835625",
"i. c #956F2B",
"p. c #9E752E",
"a. c #866D34",
"s. c #C37107",
"d. c #C17108",
"f. c #C47B0D",
"g. c #C68516",
"h. c #D28B13",
"j. c #D48710",
"k. c #D69116",
"l. c #D99416",
"z. c #D39418",
"x. c #D89618",
"c. c #DC9A19",
"v. c #E29E1A",
"b. c #E4A11C",
"n. c #CB9A29",
"m. c #0A5C86",
"M. c #075C8C",
"N. c #165C8A",
"B. c #175582",
"V. c #205980",
"C. c #0D6185",
"Z. c #0C6388",
"A. c #12638B",
"S. c #116085",
"D. c #0A6291",
"F. c #0C6996",
"G. c #0C6A98",
"H. c #146894",
"J. c #16789C",
"K. c #296A8C",
"L. c #30728A",
"P. c #2C7393",
"I. c #25769B",
"U. c #0D6EA4",
"Y. c #0C74AC",
"T. c #1573A3",
"R. c #157EAC",
"E. c #1076AB",
"W. c #1C88AC",
"Q. c #2785A8",
"!. c #269DBC",
"~. c #2594B5",
"^. c #26A0BE",
"/. c #68B4A2",
"(. c #1B96C6",
"). c #229FC4",
"_. c #1FA2D1",
"`. c #25A4CF",
"'. c #2DAACE",
"]. c #27AACD",
"[. c #22A8D5",
"{. c #29ACD5",
"}. c #2AB4DC",
"|. c #2AB1D4",
" X c #2DBDE4",
".X c #2EC1E7",
"XX c #2FC4EA",
"oX c #2AC6F0",
"OX c None",
/* pixels */
"OXOXOXOXOXOXOXOXOXOXOXOXOXOXOXOXOXOXOXOXOXOXOXOXOXOXOXOXOXOXOXOXOXOXOXOXOXOXOXOXOXOXOXOXOXOXOXOXOXOXOX",
"OXOXOXOXOXOXOXOXOXOXOXOXOXOXOXOXOXOXOXOXOXOXOXOXOXOXOXOXOXOXOXOXOXOXOXOXOXOXOXOXOXOXOXOXOXOXOXOXOXOXOX",
"OXOXOXOXOXOXOXOXOXOXOXOXOXOXOXOXOXOXOXOXOXOXOXOXOXOXOXOXOXOXOXOXOXOXOXOXOXOXOXOXOXOXOXOXOXOXOXOXOXOXOX",
"OXOXOXOXOXOXOXOXOXOXOXOXOXOXOXOXOXOXOXOXOXOXOXOXOXOXOXOXOXOXOXOXOXOXOXOXOXOXOXOXOXOXOXOXOXOXOXOXOXOXOX",
"OXOXOXOXOXOXOXOXOXOXOXOXOXOXOXOXOXOXOXOXOXOXOXOXOXOXOXOXOXOXOXOXOXOXOXOXOXOXOXOXOXOXOXOXOXOXOXOXOXOXOX",
"OXOXOXOXOXOXOXOXOXOXOXOXOXOXOXOXOXOXOXOXOXOX                  OXOXOXOXOXOXOXOXOXOXOXOXOXOXOXOXOXOXOXOX",
"OXOXOXOXOXOXOXOXOXOXOXOXOXOXOXOXOXOXOXOX    e s k k k k k s y     OXOXOXOXOXOXOXOXOXOXOXOXOXOXOXOXOXOX",
"OXOXOXOXOXOXOXOXOXOXOXOXOXOXOXOXOXOXOX+ @ = ,.j.v.v.v.v.b.h.6.- @ + OXOXOXOXOXOXOXOXOXOXOXOXOXOXOXOXOX",
"OXOXOXOXOXOXOXOXOXOXOXOXOXOXOXOXOXOX  s 0.z.x.c.c.c.c.c.c.c.x.z.f.*.  OXOXOXOXOXOXOXOXOXOXOXOXOXOXOXOX",
"OXOXOXOXOXOXOXOXOXOXOXOXOXOXOXOXOX. e e.k.c.c.c.c.c.c.c.c.c.c.c.x.t.r + OXOXOXOXOXOXOXOXOXOXOXOXOXOXOX",
"OXOXOXOXOXOXOXOXOXOXOXOXOXOXOXOXOX. %.y.c.c.c.c.c.c.c.c.c.c.c.c.c.g.%.@   OXOXOXOXOXOXOXOXOXOXOXOXOXOX",
"OXOXOXOXOXOXOXOXOXOXOXOXOXOXOXOXOX. g y.c.c.c.c.c.c.c.c.c.c.c.c.c.g.%.@   OXOXOXOXOXOXOXOXOXOXOXOXOXOX",
"OXOXOXOXOXOXOXOXOXOXOXOXOXOXOXOXOX. 4.4.e.c.c.c.c.c.c.c.c.c.c.c.t.>.9.=   OXOXOXOXOXOXOXOXOXOXOXOXOXOX",
"OXOXOXOXOXOXOXOXOXOXOXOXOXOXOXOX; e 8.:.;.h.x.c.c.c.c.c.c.c.x.h.1.;.0.p : OXOXOXOXOXOXOXOXOXOXOXOXOXOX",
"OXOXOXOXOXOXOXOXOXOXOXOXOXOXOX  p s.s.:.;.8.h.c.x.x.x.x.x.x.k.0.:.;.s.s.f   OXOXOXOXOXOXOXOXOXOXOXOXOX",
"OXOXOXOXOXOXOXOXOXOXOXOXOXOXOX  y s.s.8.5.&.=.;.=.=.=.;.=.;.=.&.5.8.d.s.j   OXOXOXOXOXOXOXOXOXOXOXOXOX",
"OXOXOXOXOXOXOXOXOXOXOXOXOXOXOX  y s.d.d.8.1.1.1.1.1.1.1.1.1.1.1.7.d.d.s.g   OXOXOXOXOXOXOXOXOXOXOXOXOX",
"OXOXOXOXOXOXOXOXOXOXOXOXOXOXOX  i 7.d.d.d.d.s.d.d.d.d.s.d.d.d.d.d.s.d.7.d   OXOXOXOXOXOXOXOXOXOXOXOXOX",
"OXOXOXOXOXOXOXOXOXOXOXOXOXOXOX  < a 7.d.d.d.d.d.d.d.d.d.d.8.d.d.s.s.f.a 1   OXOXOXOXOXOXOXOXOXOXOXOXOX",
"OXOXOXOXOXOXOXOXOXOXOXOXOXOXOX  7 } m 3.s.s.d.8.8.s.8.d.d.d.0.s.s.w.c | 0   OXOXOXOXOXOXOXOXOXOXOXOXOX",
"OXOXOXOXOXOXOXOXOXOXOXOXOXOXOX  q +.I b q.q.8.d.d.d.d.d.d.d.8.q.w.u.J O.K   OXOXOXOXOXOXOXOXOXOXOXOXOX",
"OXOXOXOXOXOXOXOXOXOXOXOXOXOXOX  q +.O.T G J <.s.d.8.d.d.d.s.w.K J Y O.+.0   OXOXOXOXOXOXOXOXOXOXOXOXOX",
"OXOXOXOXOXOXOXOXOXOXOXOXOXOXOXOX$ < O.O.} @.{ z z z z z z z x o.} @.+.8 * OXOXOXOXOXOXOXOXOXOXOXOXOXOX",
"OXOXOXOXOXOXOXOXOXOXOXOXOXOXOXOXOX& K K K L Y Y Y Y Y Y I Y Y L L K K < $ OXOXOXOXOXOXOXOXOXOXOXOXOXOX",
"OXOXOXOXOXOXOXOXOXOXOXOXOXOXOXOXOXS X X X   L +.O.O.O.O.O.O.R #     X 0 I OXOXOXOXOXOXOXOXOXOXOXOXOXOX",
"OXOXOXOXOXOXOXOXOXOXOXOXOXOXOXD L.'.^.^.~.M.2 o o o o o o o , M.W.`.!.'.Q.D OXOXOXOXOXOXOXOXOXOXOXOXOX",
"OXOXOXOXOXOXOXOXOXOXOXOXOXOXOXD K._.XXXX X(.S.~ ~ ~ ~ ~ ~ ~ _ (.}.XXXX[.I.G OXOXOXOXOXOXOXOXOXOXOXOXOX",
"OXOXOXOXOXOXOXOXOXOXOXOXOXOXOXD ^ Y.}. X.X.XXXXXXXXXoXXXXXXX.X.XXX X|.R._ G OXOXOXOXOXOXOXOXOXOXOXOXOX",
"OXOXOXOXOXOXOXOXOXOXOXOXOXOXOXOXI U A.`.XXXX.X.X.X.X.X.X.X.X.XXXXX~.% A I OXOXOXOXOXOXOXOXOXOXOXOXOXOX",
"OXOXOXOXOXOXOXOXOXOXOXOXOXOXOXOXOX2 Z.R.W.P.'.XX.X.X.X.XXXXX}.P.Q.J.C 2 , OXOXOXOXOXOXOXOXOXOXOXOXOXOX",
"OXOXOXOXOXOXOXOXOXOXOXOXOXOXOXOXOX% U.F._ P Q.'.'.'.'.'.'.'.~.U ) F.Y.3 = OXOXOXOXOXOXOXOXOXOXOXOXOXOX",
"OXOXOXOXOXOXOXOXOXOXOXOXOXOXOXOXOXP U.Y.Y.E.' J I I I I I I W U.Y.Y.Y.i.2.%.OXOXOXOXOXOXOXOXOXOXOXOXOX",
"OXOXOXOXOXOXOXOXOXOXOXOXOXOXOXD ! H.`.{.).F.D.N.N.N.N.N.N.N.B.N 4 V Y.p.-.- OXOXOXOXOXOXOXOXOXOXOXOXOX",
"OXOXOXOXOXOXOXOXOXOXOXOXOXOXOXD _ (. XXX`.Q G.Y.Y.Y.Y.Y.Y.Y.D.    > m.n p   OXOXOXOXOXOXOXOXOXOXOXOXOX",
"OXOXOXOXOXOXOXOXOXOXOXOXOXOXOXD P.XX.X.X~.X ( Y.Y.Y.Y.Y.Y.Y.Z.O OXOX      OXOXOXOXOXOXOXOXOXOXOXOXOXOX",
"OXOXOXOXOXOXOXOXOXOXOXOXOXOXOXD I.oXXX[.G.  ( Y.Y.Y.Y.Y.Y.Y.U.M.4   OXOXOXOXOXOXOXOXOXOXOXOXOXOXOXOXOX",
"OXOXOXOXOXOXOXOXOXOXOXOXOXOXOXa #./.].F.W w _ Y.Y.Y.Y.Y.Y.Y.T.$.3   OXOXOXOXOXOXOXOXOXOXOXOXOXOXOXOXOX",
"OXOXOXOXOXOXOXOXOXOXOXOXOXOXOXg 6.n.I.6 = t.$.E.T.T.T.T.T.T.L.7.:   OXOXOXOXOXOXOXOXOXOXOXOXOXOXOXOXOX",
"OXOXOXOXOXOXOXOXOXOXOXOXOXOXOX. h b.n.t # ] a.t.r.r.r.r.r.r.i.[ _ E   OXOXOXOXOXOXOXOXOXOXOXOXOXOXOXOX",
"OXOXOXOXOXOXOXOXOXOXOXOXOXOXOXOXt k k 9 V ( ..X.X.b l p v M  .N.Z.Q   OXOXOXOXOXOXOXOXOXOXOXOXOXOXOXOX",
"OXOXOXOXOXOXOXOXOXOXOXOXOXOXOXOXOX    V S.S.C.C.B.Z ,   F / Z.C.Z.Q   OXOXOXOXOXOXOXOXOXOXOXOXOXOXOXOX",
"OXOXOXOXOXOXOXOXOXOXOXOXOXOXOXOXOXOXOXF U C.Z._ F #   X ( C.C.m.Z.Q   OXOXOXOXOXOXOXOXOXOXOXOXOXOXOXOX",
"OXOXOXOXOXOXOXOXOXOXOXOXOXOXOXOXOXOXOXOX7 4 4 5 OXOX& 7 Z _ Z.Z.^ A   OXOXOXOXOXOXOXOXOXOXOXOXOXOXOXOX",
"OXOXOXOXOXOXOXOXOXOXOXOXOXOXOXOXOXOXOXOXOXX     OXOXOXG 0 W ` ` H 1   OXOXOXOXOXOXOXOXOXOXOXOXOXOXOXOX",
"OXOXOXOXOXOXOXOXOXOXOXOXOXOXOXOXOXOXOXOXOXOXOXOXOXOXOXOX  w %.%.-   OXOXOXOXOXOXOXOXOXOXOXOXOXOXOXOXOX",
"OXOXOXOXOXOXOXOXOXOXOXOXOXOXOXOXOXOXOXOXOXOXOXOXOXOXOXOX  w &.&.-   OXOXOXOXOXOXOXOXOXOXOXOXOXOXOXOXOX",
"OXOXOXOXOXOXOXOXOXOXOXOXOXOXOXOXOXOXOXOXOXOXOXOXOXOXOXOX  ; u u = OXOXOXOXOXOXOXOXOXOXOXOXOXOXOXOXOXOX",
"OXOXOXOXOXOXOXOXOXOXOXOXOXOXOXOXOXOXOXOXOXOXOXOXOXOXOXOXOX      OXOXOXOXOXOXOXOXOXOXOXOXOXOXOXOXOXOXOX",
"OXOXOXOXOXOXOXOXOXOXOXOXOXOXOXOXOXOXOXOXOXOXOXOXOXOXOXOXOXOXOXOXOXOXOXOXOXOXOXOXOXOXOXOXOXOXOXOXOXOXOX",
"OXOXOXOXOXOXOXOXOXOXOXOXOXOXOXOXOXOXOXOXOXOXOXOXOXOXOXOXOXOXOXOXOXOXOXOXOXOXOXOXOXOXOXOXOXOXOXOXOXOXOX",
"OXOXOXOXOXOXOXOXOXOXOXOXOXOXOXOXOXOXOXOXOXOXOXOXOXOXOXOXOXOXOXOXOXOXOXOXOXOXOXOXOXOXOXOXOXOXOXOXOXOXOX"
};
