/* XPM */
static char *result[] = {
/* columns rows colors chars-per-pixel */
"51 51 192 2 ",
"   c #000101",
".  c #090500",
"X  c #05060A",
"o  c #010B0F",
"O  c #0C0A0E",
"+  c #0D070A",
"@  c #140B01",
"#  c #1D1202",
"$  c #0C0D14",
"%  c #091119",
"&  c #111117",
"*  c #13131C",
"=  c #210F00",
"-  c #251504",
";  c #2A1902",
":  c #271B04",
">  c #321C04",
",  c #3E2304",
"<  c #3E2907",
"1  c #051A23",
"2  c #021520",
"3  c #131623",
"4  c #191D2D",
"5  c #1B1F35",
"6  c #05222C",
"7  c #1F202C",
"8  c #062634",
"9  c #082639",
"0  c #172336",
"q  c #22242F",
"w  c #292A3B",
"e  c #222439",
"r  c #422406",
"t  c #442A04",
"y  c #472D0C",
"u  c #502C07",
"i  c #5B3208",
"p  c #523004",
"a  c #643A04",
"s  c #623509",
"d  c #673C07",
"f  c #4C3A36",
"g  c #4D441E",
"h  c #6D480A",
"j  c #714D0B",
"k  c #774409",
"l  c #74520D",
"z  c #71481B",
"x  c #544136",
"c  c #57453C",
"v  c #714D2A",
"b  c #744B20",
"n  c #795128",
"m  c #735933",
"M  c #052B40",
"N  c #04324C",
"B  c #073248",
"V  c #073855",
"C  c #1C3E5D",
"Z  c #1E3751",
"A  c #2A2C47",
"S  c #2A2F4A",
"D  c #2B334E",
"F  c #233347",
"G  c #353546",
"H  c #35364C",
"J  c #3A384A",
"K  c #273652",
"L  c #2A3552",
"P  c #233C5D",
"I  c #293857",
"U  c #323754",
"Y  c #333958",
"T  c #0A4159",
"R  c #154154",
"E  c #2E4B4E",
"W  c #304441",
"Q  c #3E415C",
"!  c #254557",
"~  c #0B4D6D",
"^  c #094666",
"/  c #1B4769",
"(  c #135262",
")  c #1B5264",
"_  c #074C73",
"`  c #0B5B7D",
"'  c #0E5379",
"]  c #145B7E",
"[  c #155879",
"{  c #2A4F6D",
"}  c #274868",
"|  c #275D6C",
" . c #1F6279",
".. c #366569",
"X. c #4C444D",
"o. c #514547",
"O. c #4F5540",
"+. c #545449",
"@. c #43435A",
"#. c #444356",
"$. c #6A6944",
"%. c #65694A",
"&. c #6A7358",
"*. c #717352",
"=. c #454661",
"-. c #4C4C64",
";. c #4F4F69",
":. c #416662",
">. c #44777F",
",. c #824B04",
"<. c #844B0D",
"1. c #8A4C0C",
"2. c #8D500D",
"3. c #91530E",
"4. c #95590D",
"5. c #9C5B0D",
"6. c #9C5E10",
"7. c #A25C0A",
"8. c #A25F07",
"9. c #83641D",
"0. c #9C6118",
"q. c #A66107",
"w. c #AE650B",
"e. c #AE660B",
"r. c #B56604",
"t. c #B5690A",
"y. c #BC6E09",
"u. c #BA6B08",
"i. c #BF7008",
"p. c #A36414",
"a. c #A86513",
"s. c #B26F10",
"d. c #AC721C",
"f. c #B07118",
"g. c #865721",
"h. c #9D732B",
"j. c #C37107",
"k. c #C17108",
"l. c #CF7F0C",
"z. c #CA800F",
"x. c #C48114",
"c. c #C98412",
"v. c #CE8D15",
"b. c #D48D13",
"n. c #D79115",
"m. c #DA9416",
"M. c #D69518",
"N. c #D89618",
"B. c #DC9A19",
"V. c #DD9816",
"C. c #E29E1A",
"Z. c #D29E29",
"A. c #0A5A82",
"S. c #115E82",
"D. c #165C8A",
"F. c #0C6186",
"G. c #0B6389",
"H. c #11628F",
"J. c #0A6594",
"K. c #126294",
"L. c #14759C",
"P. c #19739F",
"I. c #296A8C",
"U. c #287798",
"Y. c #0D6EA2",
"T. c #076CA5",
"R. c #0C74AC",
"E. c #1573A3",
"W. c #1378A3",
"Q. c #1A89AD",
"!. c #1784AF",
"~. c #1889B6",
"^. c #1F93BF",
"/. c #2D81A1",
"(. c #259EBD",
"). c #2995BB",
"_. c #4B8182",
"`. c #6FB198",
"'. c #1E9FCF",
"]. c #29A3C4",
"[. c #22A3CF",
"{. c #2EA7CB",
"}. c #2DAACE",
"|. c #36AAC4",
" X c #23A9D6",
".X c #27AAD3",
"XX c #2AB5DB",
"oX c #2AB6DE",
"OX c #2DBDE4",
"+X c #2EC1E7",
"@X c #2EC4EA",
"#X c None",
/* pixels */
"#X#X#X#X#X#X#X#X#X#X#X#X#X#X#X#X#X#X#X#X#X#X#X#X#X#X#X#X#X#X#X#X#X#X#X#X#X#X#X#X#X#X#X#X#X#X#X#X#X#X#X",
"#X#X#X#X#X#X#X#X#X#X#X#X#X#X#X#X#X#X#X#X#X#X#X#X#X#X#X#X#X#X#X#X#X#X#X#X#X#X#X#X#X#X#X#X#X#X#X#X#X#X#X",
"#X#X#X#X#X#X#X#X#X#X#X#X#X#X#X#X#X#X#X#X#X#X#X#X#X#X#X#X#X#X#X#X#X#X#X#X#X#X#X#X#X#X#X#X#X#X#X#X#X#X#X",
"#X#X#X#X#X#X#X#X#X#X#X#X#X#X#X#X#X#X#X#X#X#X#X#X#X#X#X#X#X#X#X#X#X#X#X#X#X#X#X#X#X#X#X#X#X#X#X#X#X#X#X",
"#X#X#X#X#X#X#X#X#X#X#X#X#X#X#X#X#X#X#X#X#X#X#X#X#X#X#X#X#X#X#X#X#X#X#X#X#X#X#X#X#X#X#X#X#X#X#X#X#X#X#X",
"#X#X#X#X#X#X#X#X#X#X#X#X#X#X#X#X#X#X#X#X#X                #X#X#X#X#X#X#X#X#X#X#X#X#X#X#X#X#X#X#X#X#X#X",
"#X#X#X#X#X#X#X#X#X#X#X#X#X#X#X#X#X#X#X  # d j l l l l l a ,     #X#X#X#X#X#X#X#X#X#X#X#X#X#X#X#X#X#X#X",
"#X#X#X#X#X#X#X#X#X#X#X#X#X#X#X#X#X#X# # t j.m.C.C.C.C.V.l.h # # #X#X#X#X#X#X#X#X#X#X#X#X#X#X#X#X#X#X#X",
"#X#X#X#X#X#X#X#X#X#X#X#X#X#X#X#X#X@ w.c.N.B.B.B.B.B.B.B.B.M.v.u.,   #X#X#X#X#X#X#X#X#X#X#X#X#X#X#X#X#X",
"#X#X#X#X#X#X#X#X#X#X#X#X#X#X#X  > d c.M.B.B.B.B.B.B.B.B.B.B.B.b.<.r   #X#X#X#X#X#X#X#X#X#X#X#X#X#X#X#X",
"#X#X#X#X#X#X#X#X#X#X#X#X#X#X#X  , 4.M.B.B.B.B.B.B.B.B.B.B.B.B.B.e.s   #X#X#X#X#X#X#X#X#X#X#X#X#X#X#X#X",
"#X#X#X#X#X#X#X#X#X#X#X#X#X#X#X  , 3.M.B.B.B.B.B.B.B.B.B.B.B.B.B.p.s   #X#X#X#X#X#X#X#X#X#X#X#X#X#X#X#X",
"#X#X#X#X#X#X#X#X#X#X#X#X#X#X#X  p t.6.x.B.B.B.B.B.B.B.B.B.B.M.6.w.,.  #X#X#X#X#X#X#X#X#X#X#X#X#X#X#X#X",
"#X#X#X#X#X#X#X#X#X#X#X#X#X#X#X, ,.y.<.s.M.B.B.B.B.B.B.B.B.n.x.<.w.8.t - #X#X#X#X#X#X#X#X#X#X#X#X#X#X#X",
"#X#X#X#X#X#X#X#X#X#X#X#X#X#X. q.j.u.1.7.j.N.N.M.M.M.m.B.m.z.t.1.w.k.k.;   #X#X#X#X#X#X#X#X#X#X#X#X#X#X",
"#X#X#X#X#X#X#X#X#X#X#X#X#X#X. q.j.y.u.7.1.3.3.3.3.3.3.3.3.1.3.t.i.i.i.;   #X#X#X#X#X#X#X#X#X#X#X#X#X#X",
"#X#X#X#X#X#X#X#X#X#X#X#X#X#X. q.k.k.k.w.7.7.7.7.7.7.7.7.7.7.7.k.k.k.k.;   #X#X#X#X#X#X#X#X#X#X#X#X#X#X",
"#X#X#X#X#X#X#X#X#X#X#X#X#X#X. 4.y.k.k.k.k.k.k.k.k.k.k.k.k.k.k.k.k.k.e.-   #X#X#X#X#X#X#X#X#X#X#X#X#X#X",
"#X#X#X#X#X#X#X#X#X#X#X#X#X#X  w n j.k.k.k.k.k.k.k.k.k.k.k.k.k.k.j.p.G O   #X#X#X#X#X#X#X#X#X#X#X#X#X#X",
"#X#X#X#X#X#X#X#X#X#X#X#X#X#XX J o.v y.k.k.k.k.y.k.i.y.k.k.k.k.j.g.c Y &   #X#X#X#X#X#X#X#X#X#X#X#X#X#X",
"#X#X#X#X#X#X#X#X#X#X#X#X#X#XX @.=.J 6.p.a.y.k.k.k.k.j.j.k.w.p.p.o.Y -.&   #X#X#X#X#X#X#X#X#X#X#X#X#X#X",
"#X#X#X#X#X#X#X#X#X#X#X#X#X#X  #.;.=.D S f y.k.k.k.k.k.j.j.v S S @.-.-.&   #X#X#X#X#X#X#X#X#X#X#X#X#X#X",
"#X#X#X#X#X#X#X#X#X#X#X#X#X#X#X& G ;.@.=.@.c x x f x x x f X.=.=.-.#.* #X#X#X#X#X#X#X#X#X#X#X#X#X#X#X#X",
"#X#X#X#X#X#X#X#X#X#X#X#X#X#X#X$ 4 G J J J Y U U U Y U U Y H G G G w $ #X#X#X#X#X#X#X#X#X#X#X#X#X#X#X#X",
"#X#X#X#X#X#X#X#X#X#X#X#X#X#X#XL 4 X X   & -.-.-.-.-.-.-.-.q   X   & L #X#X#X#X#X#X#X#X#X#X#X#X#X#X#X#X",
"#X#X#X#X#X#X#X#X#X#X#X#X#X#XL ).].(.(.W.~ O + O O + O O + V J.(.(.].{.{ A #X#X#X#X#X#X#X#X#X#X#X#X#X#X",
"#X#X#X#X#X#X#X#X#X#X#X#X#X#XL ^.oX@X@X X~.( ( ( ( ) ( ( ( L.[.+X@XOX[.} A #X#X#X#X#X#X#X#X#X#X#X#X#X#X",
"#X#X#X#X#X#X#X#X#X#X#X#X#X#XD K.~.XX+X+X@X@X@X@X@X@X@X@X@X@X+X+XOX[.Y.P A #X#X#X#X#X#X#X#X#X#X#X#X#X#X",
"#X#X#X#X#X#X#X#X#X#X#X#X#X#X#XI 0 6 XX@X@X+X+X+X+X+X@X+X+X@X@X@XQ.] I #X#X#X#X#X#X#X#X#X#X#X#X#X#X#X#X",
"#X#X#X#X#X#X#X#X#X#X#X#X#X#X#X* 9 ~ Q.U./.+X@X@X+X@X@X@X@X).I.).W.' 3 #X#X#X#X#X#X#X#X#X#X#X#X#X#X#X#X",
"#X#X#X#X#X#X#X#X#X#X#X#X#X#X#X- R R.G./ { }.}.}.}.}.}.}.}.I.P ` Y.A.X #X#X#X#X#X#X#X#X#X#X#X#X#X#X#X#X",
"#X#X#X#X#X#X#X#X#X#X#X#X#X#X1.t.&.R.R.R.K.L L D D D D D D [ R.R.R.H.S #X#X#X#X#X#X#X#X#X#X#X#X#X#X#X#X",
"#X#X#X#X#X#X#X#X#X#X#X#X#X#X> t.&.T.M 8 N D.D.D.D.D.D.D.D.J.W.[. X^.D.P #X#X#X#X#X#X#X#X#X#X#X#X#X#X#X",
"#X#X#X#X#X#X#X#X#X#X#X#X#X#X  ,.O._ X   % R.R.R.R.R.R.R.R.A.' +X@XXX~.} A #X#X#X#X#X#X#X#X#X#X#X#X#X#X",
"#X#X#X#X#X#X#X#X#X#X#X#X#X#X#X      #X  1 T.R.R.R.R.R.R.R.N 2 OX+X+XOX{ A #X#X#X#X#X#X#X#X#X#X#X#X#X#X",
"#X#X#X#X#X#X#X#X#X#X#X#X#X#X#X#X#X#X  V J.R.R.R.R.R.R.R.R.N % ~. X@XOX{ A #X#X#X#X#X#X#X#X#X#X#X#X#X#X",
"#X#X#X#X#X#X#X#X#X#X#X#X#X#X#X#X#X#X  W >.R.R.R.R.R.R.R.R.E y ^ ~.|.`.+.f #X#X#X#X#X#X#X#X#X#X#X#X#X#X",
"#X#X#X#X#X#X#X#X#X#X#X#X#X#X#X#X#X#XX h h.P.E.L.E.W.E.E.E.*.8.  _ _.V.4.k #X#X#X#X#X#X#X#X#X#X#X#X#X#X",
"#X#X#X#X#X#X#X#X#X#X#X#X#X#X#X#X#Xo ~ [ :.d.f.d.d.d.d.d.f.%.)   9.Z.B.< . #X#X#X#X#X#X#X#X#X#X#X#X#X#X",
"#X#X#X#X#X#X#X#X#X#X#X#X#X#X#X#X#Xo ` F.[ $.m z a b m %.$...A.B g j j : #X#X#X#X#X#X#X#X#X#X#X#X#X#X#X",
"#X#X#X#X#X#X#X#X#X#X#X#X#X#X#X#X#Xo ` F.F.G./ 0   5 R A.F.F.S.S.6     #X#X#X#X#X#X#X#X#X#X#X#X#X#X#X#X",
"#X#X#X#X#X#X#X#X#X#X#X#X#X#X#X#X#Xo ` F.F.F.F.T     4 K S.G.] L #X#X#X#X#X#X#X#X#X#X#X#X#X#X#X#X#X#X#X",
"#X#X#X#X#X#X#X#X#X#X#X#X#X#X#X#X#XX C ' F.F./ Z 4 $ #X#X8 8 8 #X#X#X#X#X#X#X#X#X#X#X#X#X#X#X#X#X#X#X#X",
"#X#X#X#X#X#X#X#X#X#X#X#X#X#X#X#X#XX e ! | | F A D #X#X#X      #X#X#X#X#X#X#X#X#X#X#X#X#X#X#X#X#X#X#X#X",
"#X#X#X#X#X#X#X#X#X#X#X#X#X#X#X#X#X#X  u <.<.-   #X#X#X#X#X#X#X#X#X#X#X#X#X#X#X#X#X#X#X#X#X#X#X#X#X#X#X",
"#X#X#X#X#X#X#X#X#X#X#X#X#X#X#X#X#X#X  u 1.1.-   #X#X#X#X#X#X#X#X#X#X#X#X#X#X#X#X#X#X#X#X#X#X#X#X#X#X#X",
"#X#X#X#X#X#X#X#X#X#X#X#X#X#X#X#X#X#X  , i i - #X#X#X#X#X#X#X#X#X#X#X#X#X#X#X#X#X#X#X#X#X#X#X#X#X#X#X#X",
"#X#X#X#X#X#X#X#X#X#X#X#X#X#X#X#X#X#X#X      #X#X#X#X#X#X#X#X#X#X#X#X#X#X#X#X#X#X#X#X#X#X#X#X#X#X#X#X#X",
"#X#X#X#X#X#X#X#X#X#X#X#X#X#X#X#X#X#X#X#X#X#X#X#X#X#X#X#X#X#X#X#X#X#X#X#X#X#X#X#X#X#X#X#X#X#X#X#X#X#X#X",
"#X#X#X#X#X#X#X#X#X#X#X#X#X#X#X#X#X#X#X#X#X#X#X#X#X#X#X#X#X#X#X#X#X#X#X#X#X#X#X#X#X#X#X#X#X#X#X#X#X#X#X",
"#X#X#X#X#X#X#X#X#X#X#X#X#X#X#X#X#X#X#X#X#X#X#X#X#X#X#X#X#X#X#X#X#X#X#X#X#X#X#X#X#X#X#X#X#X#X#X#X#X#X#X"
};
