/* XPM */
static char *result[] = {
/* columns rows colors chars-per-pixel */
"51 51 198 2 ",
"   c #000000",
".  c #070708",
"X  c #140B01",
"o  c #150E0A",
"O  c #1B0E01",
"+  c #16100C",
"@  c #1B1207",
"#  c #070C12",
"$  c #0C1719",
"%  c #111316",
"&  c #151816",
"*  c #211503",
"=  c #2B1903",
"-  c #331E04",
";  c #251B17",
":  c #3B2204",
">  c #2D2018",
",  c #302317",
"<  c #031C27",
"1  c #191D29",
"2  c #072738",
"3  c #1B2732",
"4  c #282835",
"5  c #353E35",
"6  c #362B2F",
"7  c #412603",
"8  c #522E02",
"9  c #5C3404",
"0  c #563104",
"q  c #6F3D0A",
"w  c #4A3B3A",
"e  c #643F20",
"r  c #61440B",
"t  c #7C4608",
"y  c #7E4711",
"u  c #544137",
"i  c #58463C",
"p  c #704D2C",
"a  c #7A532C",
"s  c #6D533F",
"d  c #644C21",
"f  c #766131",
"g  c #05354D",
"h  c #083D53",
"j  c #2B2D45",
"k  c #2A2E49",
"l  c #2C314B",
"z  c #223148",
"x  c #353445",
"c  c #3A3748",
"v  c #2B3A55",
"b  c #343F5B",
"n  c #363A55",
"m  c #233F61",
"M  c #07435D",
"N  c #134154",
"B  c #30405A",
"V  c #385758",
"C  c #084B68",
"Z  c #0E536D",
"A  c #13556C",
"S  c #1B517B",
"D  c #1E456B",
"F  c #224A66",
"G  c #354966",
"H  c #245D6E",
"J  c #285F6E",
"K  c #295573",
"L  c #3D626A",
"P  c #434254",
"I  c #44455E",
"U  c #564B56",
"Y  c #4F5454",
"T  c #63555C",
"R  c #735C4C",
"E  c #486258",
"W  c #62725E",
"Q  c #4C4C65",
"!  c #4F4F69",
"~  c #444965",
"^  c #514E64",
"/  c #505069",
"(  c #475875",
")  c #48506C",
"_  c #50627D",
"`  c #4C657C",
"'  c #864A0C",
"]  c #8C4D0C",
"[  c #844709",
"{  c #8D560B",
"}  c #945402",
"|  c #9B5809",
" . c #995F1A",
".. c #915C1D",
"X. c #82541B",
"o. c #A35D0A",
"O. c #9A6515",
"+. c #A8610B",
"@. c #A96209",
"#. c #BC6D07",
"$. c #B46A0B",
"%. c #BA6C09",
"&. c #B26708",
"*. c #BE710B",
"=. c #A66616",
"-. c #A17012",
";. c #BC7C14",
":. c #B67712",
">. c #B36B12",
",. c #985C25",
"<. c #906B2E",
"1. c #A16833",
"2. c #C06F07",
"3. c #C37107",
"4. c #C17108",
"5. c #C67C0D",
"6. c #CA7C0C",
"7. c #897541",
"8. c #94725E",
"9. c #83665D",
"0. c #AE774C",
"q. c #A07D6F",
"w. c #BA8D2A",
"e. c #CC810F",
"r. c #D08912",
"t. c #CF9118",
"y. c #D49418",
"u. c #DD9B19",
"i. c #DA9517",
"p. c #E5A01A",
"a. c #B18263",
"s. c #AE8268",
"d. c #C0865B",
"f. c #CD946D",
"g. c #C6956D",
"h. c #D0976F",
"j. c #CD9975",
"k. c #CF9670",
"l. c #115A85",
"z. c #0E658C",
"x. c #10628D",
"c. c #166885",
"v. c #0D6B9A",
"b. c #106E96",
"n. c #16719E",
"m. c #377486",
"M. c #2A7998",
"N. c #25698C",
"B. c #126CA0",
"V. c #0B74AD",
"C. c #0773AF",
"Z. c #1678A7",
"A. c #0E79B0",
"S. c #0673B1",
"D. c #0A6EA1",
"F. c #4E6D8D",
"G. c #496584",
"H. c #4F6F90",
"J. c #4F7090",
"K. c #587088",
"L. c #607C94",
"P. c #65788A",
"I. c #1982A7",
"U. c #2C83A6",
"Y. c #748899",
"T. c #7592A6",
"R. c #1E99C7",
"E. c #259CC3",
"W. c #1FA3D2",
"Q. c #20A2CF",
"!. c #28AED5",
"~. c #2AB5DD",
"^. c #29B0D6",
"/. c #35BEDD",
"(. c #2BBCE3",
"). c #2FC3E9",
"_. c #2FC2E7",
"`. c #AE9D9B",
"'. c #A6978C",
"]. c #859CA8",
"[. c #9B9DAB",
"{. c #89A3B0",
"}. c #AAB1B3",
"|. c #D8AA8B",
" X c #DFB194",
".X c #E1B28F",
"XX c #CDBFB4",
"oX c #E7BEA4",
"OX c #EBC0A6",
"+X c #E6CABA",
"@X c #F5CEB6",
"#X c #FBD1B7",
"$X c #FBD3BA",
"%X c #F1C5A9",
"&X c #CDD3DE",
"*X c #EFD1C0",
"=X c #CCDCED",
"-X c None",
/* pixels */
"-X-X-X-X-X-X-X-X-X-X-X-X-X-X-X-X-X-X-X-X-X-X-X-X-X-X-X-X-X-X-X-X-X-X-X-X-X-X-X-X-X-X-X-X-X-X-X-X-X-X-X",
"-X-X-X-X-X-X-X-X-X-X-X-X-X-X-X-X-X-X-X-X-X-X-X-X-X-X-X-X-X-X-X-X-X-X-X-X-X-X-X-X-X-X-X-X-X-X-X-X-X-X-X",
"-X-X-X-X-X-X-X-X-X-X-X-X-X-X-X-X-X-X-X-X-X-X-X-X-X-X-X-X-X-X-X-X-X-X-X-X-X-X-X-X-X-X-X-X-X-X-X-X-X-X-X",
"-X-X-X-X-X-X-X-X-X-X-X-X-X-X-X-X-X-X-X-X-X-X-X-X-X-X-X-X-X-X-X-X-X-X-X-X-X-X-X-X-X-X-X-X-X-X-X-X-X-X-X",
"-X-X-X-X-X-X-X-X-X-X-X-X-X-X-X-X-X-X-X-X-X-X-X-X-X-X-X-X-X-X-X-X-X-X-X-X-X-X-X-X-X-X-X-X-X-X-X-X-X-X-X",
"-X-X-X-X-X-X-X-X-X-X-X-X-X-X-X-X-X-X-X-X-X-X-X-X-X-X-X-X-X-X-X-X-X-X-X-X-X-X-X-X-X-X-X-X-X-X-X-X-X-X-X",
"-X-X-X-X-X-X-X-X-X-X-X-X-X-X-X-X-X-X-X-X-X-X                -X-X-X-X-X-X-X-X-X-X-X-X-X-X-X-X-X-X-X-X-X",
"-X-X-X-X-X-X-X-X-X-X-X-X-X-X-X-X-X-X-X-X-X@ * @ @ * * * * * -X-X-X-X-X-X-X-X-X-X-X-X-X-X-X-X-X-X-X-X-X",
"-X-X-X-X-X-X-X-X-X-X-X-X-X-X-X-X-X-X-X    r i.y.u.y.t.y.y.t.*   -X-X-X-X-X-X-X-X-X-X-X-X-X-X-X-X-X-X-X",
"-X-X-X-X-X-X-X-X-X-X-X-X-X-X-X-Xk # : t { :.u.u.u.u.u.u.u.u.-.r   -X-X-X-X-X-X-X-X-X-X-X-X-X-X-X-X-X-X",
"-X-X-X-X-X-X-X-X-X-X-X-X-X-X-X-Xb ; 0 5.u.p.u.u.u.u.u.u.u.u.p.O.= -X-X-X-X-X-X-X-X-X-X-X-X-X-X-X-X-X-X",
"-X-X-X-X-X-X-X-X-X-X-X-X-X  3 B F.p | *.y.u.u.u.u.u.u.u.u.u.u.t.&.X -X-X-X-X-X-X-X-X-X-X-X-X-X-X-X-X-X",
"-X-X-X-X-X-X-X-X-X-X-X-X# G P.P.B ..%.*.5.r.u.u.u.u.u.u.u.u.e.*.&.X -X-X-X-X-X-X-X-X-X-X-X-X-X-X-X-X-X",
"-X-X-X-X-X-X-X-X-X-X-X  # Y.T.Y.l  .3.2.#.6.r.;.e.;.;.;.e.:.*.*.%.0 - -X-X-X-X-X-X-X-X-X-X-X-X-X-X-X-X",
"-X-X-X-X-X-X-X-X-X-X-X  % ].{.Y.l O.3.4.3.*.$.{ y ' ' ' ' ' &.*.*.3.9   -X-X-X-X-X-X-X-X-X-X-X-X-X-X-X",
"-X-X-X-X-X-X-X-X-X-X-X  % ].Y.F.~ =.3.4.3.@.] &.&.%.%.%.%.$.} o.3.6.9   -X-X-X-X-X-X-X-X-X-X-X-X-X-X-X",
"-X-X-X-X-X-X-X-X-X-X-X-X% Y ` F._ R ..%.+.o.o.4.4.4.4.4.4.4.o.o.+.4.9   -X-X-X-X-X-X-X-X-X-X-X-X-X-X-X",
"-X-X-X-X-X-X-X-X-X-X-X-X-X  v G.H.b i >.] o.4.4.4.4.4.4.4.4.4.o.' %.9   -X-X-X-X-X-X-X-X-X-X-X-X-X-X-X",
"-X-X-X-X-X-X-X-X-X-X-X-X-X-X. 1 H.F.( T >.4.4.4.4.4.4.4.4.4.4.o.' 2.9   -X-X-X-X-X-X-X-X-X-X-X-X-X-X-X",
"-X-X-X-X-X-X-X-X-X-X-X-X-X-X  . 3 b ) G.R ,.3.4.4.4.4.%.4.4.4.4.+.p ,   -X-X-X-X-X-X-X-X-X-X-X-X-X-X-X",
"-X-X-X-X-X-X-X-X-X-X-X-X-X-X  . ; 6 P G.G R +.&.%.2.3.3.4.4.=.=.O.c 1   -X-X-X-X-X-X-X-X-X-X-X-X-X-X-X",
"-X-X-X-X-X-X-X-X-X-X-X-X-X-X  > g.,.d l k j c q o.3.2.3.4.%.w k l Q 4   -X-X-X-X-X-X-X-X-X-X-X-X-X-X-X",
"-X-X-X-X-X-X-X-X-X-X-X-X-X-X9 a oX.X8.% [.`.8.w w w w i w w P I I ! 4   -X-X-X-X-X-X-X-X-X-X-X-X-X-X-X",
"-X-X-X-X-X-X-X-X-X-X-X-X-X-X[ 1.@X$X'.2 &X+Xf.T T U k c n n ~ ! ^ c 1   -X-X-X-X-X-X-X-X-X-X-X-X-X-X-X",
"-X-X-X-X-X-X-X-X-X-X-X-X-X-X[ 1.@X#X}.Z.=X+Xh.h.f.q.l I Q ^ Q Q I . -X-X-X-X-X-X-X-X-X-X-X-X-X-X-X-X-X",
"-X-X-X-X-X-X-X-X-X-X-X-X-X-Xd.j.#X#X+XXX*X#X%Xj.9.P ~ Q ! ! ! x # -X-X-X-X-X-X-X-X-X-X-X-X-X-X-X-X-X-X",
"-X-X-X-X-X-X-X-X-X-X-X-X-X-X-Xk.g.|.oX@X#XoX Xq.T n ! x 4 4 n j   -X-X-X-X-X-X-X-X-X-X-X-X-X-X-X-X-X-X",
"-X-X-X-X-X-X-X-X-X-X-X-X-X-X-X-X' 0.|.oXoX|.a.^ U Q ! 3 # # z v -X-X-X-X-X-X-X-X-X-X-X-X-X-X-X-X-X-X-X",
"-X-X-X-X-X-X-X-X-X-X-X-X-X-X-X-X-Xo + & % o o x k m v.R.^.^./.U.j -X-X-X-X-X-X-X-X-X-X-X-X-X-X-X-X-X-X",
"-X-X-X-X-X-X-X-X-X-X-X-X-X-X-X-X-X-X    g S c.M.M.U.E.(.).).W.N.k -X-X-X-X-X-X-X-X-X-X-X-X-X-X-X-X-X-X",
"-X-X-X-X-X-X-X-X-X-X-X-X-X-X-X-X-X-X-X+ l.I.(.(.(.).).).(.^.Z.S k -X-X-X-X-X-X-X-X-X-X-X-X-X-X-X-X-X-X",
"-X-X-X-X-X-X-X-X-X-X-X-X-X-X-X-X-X  = ' x l.A.A.Q.).).).!.V.F l -X-X-X-X-X-X-X-X-X-X-X-X-X-X-X-X-X-X-X",
"-X-X-X-X-X-X-X-X-X-X-X-X-X-X-X-X-X  : =.J x.x.F K N.Z.A N F -X-X-X-X-X-X-X-X-X-X-X-X-X-X-X-X-X-X-X-X-X",
"-X-X-X-X-X-X-X-X-X-X-X-X-X-X-X-X-X  : *.M.D.x.K K K z.$ . l -X-X-X-X-X-X-X-X-X-X-X-X-X-X-X-X-X-X-X-X-X",
"-X-X-X-X-X-X-X-X-X-X-X-X-X-X-X-X-X  : :.M.V.A.(.).^.V.2   -X-X-X-X-X-X-X-X-X-X-X-X-X-X-X-X-X-X-X-X-X-X",
"-X-X-X-X-X-X-X-X-X-X-X-X-X-X-X-X  t f m.B.v.b.(.)._.~.z.g   -X-X-X-X-X-X-X-X-X-X-X-X-X-X-X-X-X-X-X-X-X",
"-X-X-X-X-X-X-X-X-X-X-X-X-X-X-X-X  } <.C.C.b.z.Q.~.).).I.M   -X-X-X-X-X-X-X-X-X-X-X-X-X-X-X-X-X-X-X-X-X",
"-X-X-X-X-X-X-X-X-X-X-X-X-X-X-X-X  } a.D.A.b.S Z.E./.~.I.M   -X-X-X-X-X-X-X-X-X-X-X-X-X-X-X-X-X-X-X-X-X",
"-X-X-X-X-X-X-X-X-X-X-X-X-X-X-X-X. } a.C.C.L y w.w...$ Z C   -X-X-X-X-X-X-X-X-X-X-X-X-X-X-X-X-X-X-X-X-X",
"-X-X-X-X-X-X-X-X-X-X-X-X-X-X-X-X. : r W n.F 8 e.5.|   5 5   -X-X-X-X-X-X-X-X-X-X-X-X-X-X-X-X-X-X-X-X-X",
"-X-X-X-X-X-X-X-X-X-X-X-X-X-X-X-X-X  : %.m.N X | @.] o 9 9   -X-X-X-X-X-X-X-X-X-X-X-X-X-X-X-X-X-X-X-X-X",
"-X-X-X-X-X-X-X-X-X-X-X-X-X-X-X-X-X  = ] >.o.q X . * t =   -X-X-X-X-X-X-X-X-X-X-X-X-X-X-X-X-X-X-X-X-X-X",
"-X-X-X-X-X-X-X-X-X-X-X-X-X-X-X-X-X-X@ - Y E V N g N V &   -X-X-X-X-X-X-X-X-X-X-X-X-X-X-X-X-X-X-X-X-X-X",
"-X-X-X-X-X-X-X-X-X-X-X-X-X-X-X-X-X-X-X. M A J J J H C <   -X-X-X-X-X-X-X-X-X-X-X-X-X-X-X-X-X-X-X-X-X-X",
"-X-X-X-X-X-X-X-X-X-X-X-X-X-X-X-X-X-X-X-X  : ' ' ' q   -X-X-X-X-X-X-X-X-X-X-X-X-X-X-X-X-X-X-X-X-X-X-X-X",
"-X-X-X-X-X-X-X-X-X-X-X-X-X-X-X-X-X-X-X-X-XO * * * * -X-X-X-X-X-X-X-X-X-X-X-X-X-X-X-X-X-X-X-X-X-X-X-X-X",
"-X-X-X-X-X-X-X-X-X-X-X-X-X-X-X-X-X-X-X-X-X-X        -X-X-X-X-X-X-X-X-X-X-X-X-X-X-X-X-X-X-X-X-X-X-X-X-X",
"-X-X-X-X-X-X-X-X-X-X-X-X-X-X-X-X-X-X-X-X-X-X-X-X-X-X-X-X-X-X-X-X-X-X-X-X-X-X-X-X-X-X-X-X-X-X-X-X-X-X-X",
"-X-X-X-X-X-X-X-X-X-X-X-X-X-X-X-X-X-X-X-X-X-X-X-X-X-X-X-X-X-X-X-X-X-X-X-X-X-X-X-X-X-X-X-X-X-X-X-X-X-X-X",
"-X-X-X-X-X-X-X-X-X-X-X-X-X-X-X-X-X-X-X-X-X-X-X-X-X-X-X-X-X-X-X-X-X-X-X-X-X-X-X-X-X-X-X-X-X-X-X-X-X-X-X",
"-X-X-X-X-X-X-X-X-X-X-X-X-X-X-X-X-X-X-X-X-X-X-X-X-X-X-X-X-X-X-X-X-X-X-X-X-X-X-X-X-X-X-X-X-X-X-X-X-X-X-X"
};
