/* XPM */
static char *result[] = {
/* columns rows colors chars-per-pixel */
"51 51 202 2 ",
"   c #000001",
".  c #0E0A04",
"X  c #030609",
"o  c #05090E",
"O  c #0A0A0D",
"+  c #0A0200",
"@  c #110B02",
"#  c #1A0E01",
"$  c #1D1003",
"%  c #090E14",
"&  c #0E111A",
"*  c #11121B",
"=  c #151718",
"-  c #251502",
";  c #291A08",
":  c #251B14",
">  c #2B221D",
",  c #1A1C2C",
"<  c #161927",
"1  c #091F30",
"2  c #041C26",
"3  c #04202C",
"4  c #082938",
"5  c #1A2530",
"6  c #282327",
"7  c #24263C",
"8  c #383139",
"9  c #442605",
"0  c #4C2B04",
"q  c #472F06",
"w  c #5A3308",
"e  c #463718",
"r  c #683909",
"t  c #45393B",
"y  c #473631",
"u  c #523B2E",
"i  c #603E21",
"p  c #6C4206",
"a  c #754405",
"s  c #76410A",
"d  c #7D450D",
"f  c #7B4604",
"g  c #76530E",
"h  c #7E4C17",
"j  c #544221",
"k  c #5C473A",
"l  c #66492F",
"z  c #62462F",
"x  c #7E592B",
"c  c #77563E",
"v  c #714C26",
"b  c #023049",
"n  c #173844",
"m  c #2B2D45",
"M  c #2A2F4A",
"N  c #262C48",
"B  c #312F49",
"V  c #2A324E",
"C  c #2D3648",
"Z  c #343344",
"A  c #33344E",
"S  c #393A4B",
"D  c #333D41",
"F  c #283955",
"G  c #333A56",
"H  c #3C3D53",
"J  c #0C465C",
"K  c #2B425E",
"L  c #3F415A",
"P  c #39595A",
"I  c #1D4A73",
"U  c #0C5578",
"Y  c #1C5877",
"T  c #164F6A",
"R  c #2A4966",
"E  c #374C62",
"W  c #3D506E",
"Q  c #224F77",
"!  c #335A71",
"~  c #15617F",
"^  c #2D6A7F",
"/  c #48494C",
"(  c #43445D",
")  c #464856",
"_  c #5E4D4B",
"`  c #6D5754",
"'  c #586756",
"]  c #697257",
"[  c #716E48",
"{  c #4C4C65",
"}  c #4E4E68",
"|  c #454660",
" . c #585865",
".. c #4D5B75",
"X. c #465A77",
"o. c #485762",
"O. c #605E65",
"+. c #48627F",
"@. c #586874",
"#. c #516F65",
"$. c #86490C",
"%. c #874A08",
"&. c #8C5005",
"*. c #8E550F",
"=. c #92520B",
"-. c #9A570B",
";. c #995706",
":. c #925A1C",
">. c #88541B",
",. c #A65F0A",
"<. c #9B6316",
"1. c #AB620A",
"2. c #AB650D",
"3. c #BB6D06",
"4. c #B26709",
"5. c #B56A0A",
"6. c #BD6E08",
"7. c #BF7009",
"8. c #AE6E14",
"9. c #B76D10",
"0. c #A37213",
"q. c #885822",
"w. c #85622F",
"e. c #8B6034",
"r. c #8D743B",
"t. c #966E29",
"y. c #C37107",
"u. c #C17008",
"i. c #CA7C0C",
"p. c #C5790C",
"a. c #B97F51",
"s. c #987566",
"d. c #917770",
"f. c #CA800E",
"g. c #D2830E",
"h. c #C68515",
"j. c #C58A16",
"k. c #CB8C16",
"l. c #DD9B19",
"z. c #D99517",
"x. c #D18A12",
"c. c #E29E1A",
"v. c #AA805F",
"b. c #B88057",
"n. c #CA926C",
"m. c #D0966F",
"M. c #CA9A72",
"N. c #D39B75",
"B. c #D2A17C",
"V. c #0B5D86",
"C. c #175986",
"Z. c #0D6185",
"A. c #0D658B",
"S. c #166482",
"D. c #0B6997",
"F. c #0C6A9C",
"G. c #0E6592",
"H. c #10729A",
"J. c #146798",
"K. c #2C6D8D",
"L. c #327082",
"P. c #216E92",
"I. c #0B6CA4",
"U. c #146EA0",
"Y. c #0C74AC",
"T. c #1577A7",
"R. c #0D79B2",
"E. c #4C6887",
"W. c #527294",
"Q. c #607F99",
"!. c #657789",
"~. c #1C88A9",
"^. c #1182B7",
"/. c #2281A7",
"(. c #259DBD",
"). c #3FA0AD",
"_. c #4A89AA",
"`. c #6786A1",
"'. c #53A2A0",
"]. c #1B98C9",
"[. c #27A3C9",
"{. c #26B1DA",
"}. c #23A6D1",
"|. c #2DBEE4",
" X c #4D96C0",
".X c #2EC4EA",
"XX c #2EC1E7",
"oX c #8BA5B2",
"OX c #9FA0B0",
"+X c #D9A988",
"@X c #CEA38A",
"#X c #E1AF8D",
"$X c #E5B798",
"%X c #C6BEB7",
"&X c #EFC5AB",
"*X c #F6CDB3",
"=X c #FAD3BB",
"-X c #FBD1B6",
";X c #F5D7C8",
":X c #EEECF4",
">X c #F4F2F9",
",X c None",
/* pixels */
",X,X,X,X,X,X,X,X,X,X,X,X,X,X,X,X,X,X,X,X,X,X,X,X,X,X,X,X,X,X,X,X,X,X,X,X,X,X,X,X,X,X,X,X,X,X,X,X,X,X,X",
",X,X,X,X,X,X,X,X,X,X,X,X,X,X,X,X,X,X,X,X,X,X,X,X,X,X,X,X,X,X,X,X,X,X,X,X,X,X,X,X,X,X,X,X,X,X,X,X,X,X,X",
",X,X,X,X,X,X,X,X,X,X,X,X,X,X,X,X,X,X,X,X,X,X,X,X,X,X,X,X,X,X,X,X,X,X,X,X,X,X,X,X,X,X,X,X,X,X,X,X,X,X,X",
",X,X,X,X,X,X,X,X,X,X,X,X,X,X,X,X,X,X,X,X,X,X,X,X,X,X,X,X,X,X,X,X,X,X,X,X,X,X,X,X,X,X,X,X,X,X,X,X,X,X,X",
",X,X,X,X,X,X,X,X,X,X,X,X,X,X,X,X,X,X,X,X,X,X,X,X,X@ @ . @ @ . @ @ @ ,X,X,X,X,X,X,X,X,X,X,X,X,X,X,X,X,X",
",X,X,X,X,X,X,X,X,X,X,X,X,X,X,X,X,X,X,X,X,X,X      0.j.j.j.j.j.j.j.<.  ,X,X,X,X,X,X,X,X,X,X,X,X,X,X,X,X",
",X,X,X,X,X,X,X,X,X,X,X,X,X,X,X,X,X,X,X,X7   0 p g k.l.l.l.l.l.l.l.j.g - ,X,X,X,X,X,X,X,X,X,X,X,X,X,X,X",
",X,X,X,X,X,X,X,X,X,X,X,X,X,X,X,X,X,X,XG m @ ;.g.c.l.l.l.l.l.l.l.l.l.l.q # ,X,X,X,X,X,X,X,X,X,X,X,X,X,X",
",X,X,X,X,X,X,X,X,X,X,X,X,X,X,X,X,X  N X.@.d 1.i.l.l.l.l.l.l.l.l.l.l.l.p.s   ,X,X,X,X,X,X,X,X,X,X,X,X,X",
",X,X,X,X,X,X,X,X,X,X,X,X,X,X,X  5 E !.../ 1.3.p.f.z.l.l.l.l.l.l.l.z.i.p.f   ,X,X,X,X,X,X,X,X,X,X,X,X,X",
",X,X,X,X,X,X,X,X,X,X,X,X,X,X,X  C `.oX..t u.u.u.7.x.k.j.h.j.h.h.h.h.u.y.&.; ,X,X,X,X,X,X,X,X,X,X,X,X,X",
",X,X,X,X,X,X,X,X,X,X,X,X,X,X,X  ) oXoX..t 6.7.u.u.u.1.$.$.$.$.$.$.=.6.6.6.4.#   ,X,X,X,X,X,X,X,X,X,X,X",
",X,X,X,X,X,X,X,X,X,X,X,X,X,X,X  o.oX`.X._ 7.y.u.y.-.-.5.5.4.4.4.4.,.=.3.y.5.#   ,X,X,X,X,X,X,X,X,X,X,X",
",X,X,X,X,X,X,X,X,X,X,X,X,X,X,X  D @.E.+. .q.2.6.1.-.1.u.u.u.u.u.u.3.-.,.4.5.#   ,X,X,X,X,X,X,X,X,X,X,X",
",X,X,X,X,X,X,X,X,X,X,X,X,X,X,X,X,XO +.E.E.V :.4.$.3.u.6.7.u.u.u.6.u.3.=.-.5.#   ,X,X,X,X,X,X,X,X,X,X,X",
",X,X,X,X,X,X,X,X,X,X,X,X,X,X,X,X,X,X% E W.E. .c 3.6.u.u.u.u.u.u.u.u.u.=.;.3.#   ,X,X,X,X,X,X,X,X,X,X,X",
",X,X,X,X,X,X,X,X,X,X,X,X,X,X,X,X,X,X  5 K W X.O.e.5.u.u.u.u.u.u.u.u.u.1.:.v .   ,X,X,X,X,X,X,X,X,X,X,X",
",X,X,X,X,X,X,X,X,X,X,X,X,X,X,X,X,X,X  . = 8 X...{ <.3.3.6.u.6.u.u.u.2.9.q.N O   ,X,X,X,X,X,X,X,X,X,X,X",
",X,X,X,X,X,X,X,X,X,X,X,X,X,X,X,X,X,X  c b.$.t V M V u &.6.y.y.y.y.<.Z Z G ( O   ,X,X,X,X,X,X,X,X,X,X,X",
",X,X,X,X,X,X,X,X,X,X,X,X,X,X,X,X,X,X0 v.$XM.8 S OXd.` u z l l l l k L L ( { O   ,X,X,X,X,X,X,X,X,X,X,X",
",X,X,X,X,X,X,X,X,X,X,X,X,X,X,X,X,X,X$.M.=X=X/ o.:X#Xs.( ) S M V F G } } | S O ,X,X,X,X,X,X,X,X,X,X,X,X",
",X,X,X,X,X,X,X,X,X,X,X,X,X,X,X,X,X,X$.M.=X-X_. X:X+Xn.n.m.` V } { { } } Z   ,X,X,X,X,X,X,X,X,X,X,X,X,X",
",X,X,X,X,X,X,X,X,X,X,X,X,X,X,X,X,X,Xa.#X=X=X%X%X;X&X#Xn.` ) | } } } { 6 * ,X,X,X,X,X,X,X,X,X,X,X,X,X,X",
",X,X,X,X,X,X,X,X,X,X,X,X,X,X,X,X,X,Xm.B.+X$X*X-X*X&X@Xs.H L { A Z S ( * ,X,X,X,X,X,X,X,X,X,X,X,X,X,X,X",
",X,X,X,X,X,X,X,X,X,X,X,X,X,X,X,X,X,X,X%.:.n.$X*X&XN.s.} } } L X X % V ,X,X,X,X,X,X,X,X,X,X,X,X,X,X,X,X",
",X,X,X,X,X,X,X,X,X,X,X,X,X,X,X,X,X,X,X,X,X: 6 > > ; 6 A B Q U.(.(.[.[.! m ,X,X,X,X,X,X,X,X,X,X,X,X,X,X",
",X,X,X,X,X,X,X,X,X,X,X,X,X,X,X,X,X,X,X,X,X    % b J Y K.K.T.]..X.X|.].R m ,X,X,X,X,X,X,X,X,X,X,X,X,X,X",
",X,X,X,X,X,X,X,X,X,X,X,X,X,X,X,X,X,X,X,X,X,X+ 4 Y.{.|.|..X.X.X.X|.}.I.K m ,X,X,X,X,X,X,X,X,X,X,X,X,X,X",
",X,X,X,X,X,X,X,X,X,X,X,X,X,X,X,X,X,X,X,X,X  w i F U.R.^.|..X.X.X].J.V ,X,X,X,X,X,X,X,X,X,X,X,X,X,X,X,X",
",X,X,X,X,X,X,X,X,X,X,X,X,X,X,X,X,X,X,X,X,X  f x C.G.C.Q K././.Y T Q ,X,X,X,X,X,X,X,X,X,X,X,X,X,X,X,X,X",
",X,X,X,X,X,X,X,X,X,X,X,X,X,X,X,X,X,X,X,X,X  &.r.Y.H.Y K K Y U   , B ,X,X,X,X,X,X,X,X,X,X,X,X,X,X,X,X,X",
",X,X,X,X,X,X,X,X,X,X,X,X,X,X,X,X,X,X,X,X,X  &.r.Y.{.|.|.|.].A.  ,X,X,X,X,X,X,X,X,X,X,X,X,X,X,X,X,X,X,X",
",X,X,X,X,X,X,X,X,X,X,X,X,X,X,X,X,X,X,X,X- f ' ^ G.{..XXX~.~.F.J 2 ,X,X,X,X,X,X,X,X,X,X,X,X,X,X,X,X,X,X",
",X,X,X,X,X,X,X,X,X,X,X,X,X,X,X,X,X,X,X  - u.#.^ #.'.).~.D.D.F.A.3   ,X,X,X,X,X,X,X,X,X,X,X,X,X,X,X,X,X",
",X,X,X,X,X,X,X,X,X,X,X,X,X,X,X,X,X,X,X  - 3.=.<.z.i.p o F.D.Z.Z.3   ,X,X,X,X,X,X,X,X,X,X,X,X,X,X,X,X,X",
",X,X,X,X,X,X,X,X,X,X,X,X,X,X,X,X,X,X,X  - p.0 0 i.i.p X U A.Z.A.3   ,X,X,X,X,X,X,X,X,X,X,X,X,X,X,X,X,X",
",X,X,X,X,X,X,X,X,X,X,X,X,X,X,X,X,X,X,X,X- s 9 9 f f e 4 V.Z.U P =   ,X,X,X,X,X,X,X,X,X,X,X,X,X,X,X,X,X",
",X,X,X,X,X,X,X,X,X,X,X,X,X,X,X,X,X,X,X,X,X  w r     4 S.~ S.! >.;   ,X,X,X,X,X,X,X,X,X,X,X,X,X,X,X,X,X",
",X,X,X,X,X,X,X,X,X,X,X,X,X,X,X,X,X,X,X  O N m y s s =.8.8.8.t.P.K 7 ,X,X,X,X,X,X,X,X,X,X,X,X,X,X,X,X,X",
",X,X,X,X,X,X,X,X,X,X,X,X,X,X,X,X,X,X,X& , N N 8 9 9 j [ ] ] #.Y.V.I ,X,X,X,X,X,X,X,X,X,X,X,X,X,X,X,X,X",
",X,X,X,X,X,X,X,X,X,X,X,X,X,X,X,X,X,X  < N N N ,     4 V.I.I.Y.Y.Y.U @ ,X,X,X,X,X,X,X,X,X,X,X,X,X,X,X,X",
",X,X,X,X,X,X,X,X,X,X,X,X,X,X,X,X,X,X    % V &   ,X,X,XV V C.R.Y.I 8 d $   ,X,X,X,X,X,X,X,X,X,X,X,X,X,X",
",X,X,X,X,X,X,X,X,X,X,X,X,X,X,X,X,X,X,X  + * O ,X,X,X,X,X* 1 n [ w.>.$.$   ,X,X,X,X,X,X,X,X,X,X,X,X,X,X",
",X,X,X,X,X,X,X,X,X,X,X,X,X,X,X,X,X,X,X,X    ,X,X,X,X,X,X    # ;.;.&.r # ,X,X,X,X,X,X,X,X,X,X,X,X,X,X,X",
",X,X,X,X,X,X,X,X,X,X,X,X,X,X,X,X,X,X,X,X,X,X,X,X,X,X,X,X,X,X,X  +     ,X,X,X,X,X,X,X,X,X,X,X,X,X,X,X,X",
",X,X,X,X,X,X,X,X,X,X,X,X,X,X,X,X,X,X,X,X,X,X,X,X,X,X,X,X,X,X,X,X,X,X,X,X,X,X,X,X,X,X,X,X,X,X,X,X,X,X,X",
",X,X,X,X,X,X,X,X,X,X,X,X,X,X,X,X,X,X,X,X,X,X,X,X,X,X,X,X,X,X,X,X,X,X,X,X,X,X,X,X,X,X,X,X,X,X,X,X,X,X,X",
",X,X,X,X,X,X,X,X,X,X,X,X,X,X,X,X,X,X,X,X,X,X,X,X,X,X,X,X,X,X,X,X,X,X,X,X,X,X,X,X,X,X,X,X,X,X,X,X,X,X,X",
",X,X,X,X,X,X,X,X,X,X,X,X,X,X,X,X,X,X,X,X,X,X,X,X,X,X,X,X,X,X,X,X,X,X,X,X,X,X,X,X,X,X,X,X,X,X,X,X,X,X,X",
",X,X,X,X,X,X,X,X,X,X,X,X,X,X,X,X,X,X,X,X,X,X,X,X,X,X,X,X,X,X,X,X,X,X,X,X,X,X,X,X,X,X,X,X,X,X,X,X,X,X,X",
",X,X,X,X,X,X,X,X,X,X,X,X,X,X,X,X,X,X,X,X,X,X,X,X,X,X,X,X,X,X,X,X,X,X,X,X,X,X,X,X,X,X,X,X,X,X,X,X,X,X,X"
};
