/* XPM */
static char *result[] = {
/* columns rows colors chars-per-pixel */
"51 51 205 2 ",
"   c #010101",
".  c #0A0500",
"X  c #02050A",
"o  c #00090E",
"O  c #0C080B",
"+  c #130A01",
"@  c #180E01",
"#  c #1C1202",
"$  c #0C0C12",
"%  c #141519",
"&  c #07151D",
"*  c #291802",
"=  c #341E02",
"-  c #271D15",
";  c #3B2505",
":  c #071A22",
">  c #131623",
",  c #141A23",
"<  c #1B1B23",
"1  c #181C2A",
"2  c #1B1E31",
"3  c #1D2326",
"4  c #042737",
"5  c #09282F",
"6  c #2C2C3F",
"7  c #222839",
"8  c #422503",
"9  c #452803",
"0  c #4B2B08",
"q  c #563102",
"w  c #573709",
"e  c #442B11",
"r  c #543416",
"t  c #643A04",
"y  c #6A3B07",
"u  c #4C3C20",
"i  c #5E4317",
"p  c #754404",
"a  c #78490A",
"s  c #74520D",
"d  c #7D501C",
"f  c #6B4513",
"g  c #4F413F",
"h  c #56472F",
"j  c #65452A",
"k  c #704C29",
"l  c #634733",
"z  c #79522E",
"x  c #2B2D46",
"c  c #2A2F49",
"v  c #252B43",
"b  c #2F3147",
"n  c #2C314B",
"m  c #2F394F",
"M  c #383849",
"N  c #293653",
"B  c #353B53",
"V  c #383B55",
"C  c #13505F",
"Z  c #094057",
"A  c #26415C",
"S  c #39415C",
"D  c #3C5B5D",
"F  c #3C6157",
"G  c #155365",
"H  c #095578",
"J  c #18587D",
"K  c #214669",
"L  c #3A4867",
"P  c #394D68",
"I  c #224C70",
"U  c #345776",
"Y  c #1F6077",
"T  c #4E4245",
"R  c #44455D",
"E  c #46465B",
"W  c #5D5254",
"Q  c #735441",
"!  c #446159",
"~  c #6F6F4E",
"^  c #7F655F",
"/  c #66725A",
"(  c #6B7053",
")  c #707352",
"_  c #4C4C65",
"`  c #4E4E68",
"'  c #49526B",
"]  c #535165",
"[  c #455B76",
"{  c #514E64",
"}  c #695D69",
"|  c #4A607B",
" . c #854A09",
".. c #8F500C",
"X. c #91520C",
"o. c #99560A",
"O. c #9A5B0D",
"+. c #9A5804",
"@. c #8C5417",
"#. c #925916",
"$. c #A65E02",
"%. c #A35D0A",
"&. c #8D6310",
"*. c #9A6019",
"=. c #A96109",
"-. c #A76107",
";. c #B4690A",
":. c #BC6E09",
">. c #B36708",
",. c #AB700F",
"<. c #BF7109",
"1. c #A26315",
"2. c #A96612",
"3. c #AA6B19",
"4. c #AF6E13",
"5. c #AF7018",
"6. c #B47217",
"7. c #8D5F30",
"8. c #995E26",
"9. c #98632D",
"0. c #927436",
"q. c #AC713A",
"w. c #C16F07",
"e. c #C27107",
"r. c #C17108",
"t. c #CB7809",
"y. c #80634F",
"u. c #806557",
"i. c #AA7444",
"p. c #856F61",
"a. c #8E7769",
"s. c #A37B66",
"d. c #CE820E",
"f. c #D28B13",
"g. c #D99718",
"h. c #DC9A19",
"j. c #D79417",
"k. c #E29E1A",
"l. c #E7A21A",
"z. c #BA8659",
"x. c #AE8064",
"c. c #B18368",
"v. c #D0986F",
"b. c #CA9675",
"n. c #CD946C",
"m. c #DBA47F",
"M. c #095B86",
"N. c #085F8F",
"B. c #155A86",
"V. c #305D83",
"C. c #0D6185",
"Z. c #0A608E",
"A. c #1A748B",
"S. c #0D6997",
"D. c #116498",
"F. c #1A719C",
"G. c #186481",
"H. c #2A6F8E",
"J. c #0B6EA3",
"K. c #0C70A4",
"L. c #0C73AC",
"P. c #0773AF",
"I. c #1573A3",
"U. c #1C78A5",
"Y. c #0976B1",
"T. c #267FA5",
"R. c #4C6886",
"E. c #4F6F90",
"W. c #577694",
"Q. c #586F8A",
"!. c #6A7C8D",
"~. c #3A8594",
"^. c #1888B7",
"/. c #1D92BC",
"(. c #2795BB",
"). c #5A9E96",
"_. c #6DAE99",
"`. c #7B96A7",
"'. c #6199B7",
"]. c #1B97C6",
"[. c #229DC2",
"{. c #25A5C9",
"}. c #28ACD3",
"|. c #2CB5DB",
" X c #29B2D8",
".X c #2CBDE4",
"XX c #28B6E0",
"oX c #2EC4EB",
"OX c #2EC1E7",
"+X c #2BC8F3",
"@X c #87949A",
"#X c #8198A5",
"$X c #89A2AF",
"%X c #ADB3B4",
"&X c #DCA886",
"*X c #ECBB9A",
"=X c #DDBCAA",
"-X c #EAC3AB",
";X c #F6CEB5",
":X c #F9D0B6",
">X c #FCD3BA",
",X c #D8D9E3",
"<X c #E5DFE1",
"1X c #DCE4F1",
"2X c None",
/* pixels */
"2X2X2X2X2X2X2X2X2X2X2X2X2X2X2X2X2X2X2X2X2X2X2X2X2X2X2X2X2X2X2X2X2X2X2X2X2X2X2X2X2X2X2X2X2X2X2X2X2X2X2X",
"2X2X2X2X2X2X2X2X2X2X2X2X2X2X2X2X2X2X2X2X2X2X2X2X2X2X2X2X2X2X2X2X2X2X2X2X2X2X2X2X2X2X2X2X2X2X2X2X2X2X2X",
"2X2X2X2X2X2X2X2X2X2X2X2X2X2X2X2X2X2X2X2X2X2X2X2X2X2X2X2X2X2X2X2X2X2X2X2X2X2X2X2X2X2X2X2X2X2X2X2X2X2X2X",
"2X2X2X2X2X2X2X2X2X2X2X2X2X2X2X2X2X2X2X2X2X2X2X2X2X2X2X2X2X2X2X2X2X2X2X2X2X2X2X2X2X2X2X2X2X2X2X2X2X2X2X",
"2X2X2X2X2X2X2X2X2X2X2X2X2X2X2X2X2X2X2X2X2X2X2X2X2X2X2X2X2X2X2X2X2X2X2X2X2X2X2X2X2X2X2X2X2X2X2X2X2X2X2X",
"2X2X2X2X2X2X2X2X2X2X2X2X2X2X2X2X2X2X2X2X2X2X2X2X                  2X2X2X2X2X2X2X2X2X2X2X2X2X2X2X2X2X2X",
"2X2X2X2X2X2X2X2X2X2X2X2X2X2X2X2X2X2X2X2X2X2X    w s s s s s s s s . 2X2X2X2X2X2X2X2X2X2X2X2X2X2X2X2X2X",
"2X2X2X2X2X2X2X2X2X2X2X2X2X2X2X2X2X2X2X2X2X@ # # &.l.k.k.k.k.k.k.j.; # 2X2X2X2X2X2X2X2X2X2X2X2X2X2X2X2X",
"2X2X2X2X2X2X2X2X2X2X2X2X2X2X2X2X2X2X2Xc o q <.j.g.h.h.h.h.h.h.h.h.h.f   2X2X2X2X2X2X2X2X2X2X2X2X2X2X2X",
"2X2X2X2X2X2X2X2X2X2X2X2X2X2X2X2X  2 S [ r  .r.h.h.h.h.h.h.h.h.h.h.h.,.p . 2X2X2X2X2X2X2X2X2X2X2X2X2X2X",
"2X2X2X2X2X2X2X2X2X2X2X2X2X2X2X2X, S ' | @.=.r.f.g.h.h.h.h.h.h.h.h.j.d.=.. 2X2X2X2X2X2X2X2X2X2X2X2X2X2X",
"2X2X2X2X2X2X2X2X2X2X2X2X2X2X  % R.`.!.n 1.<.r.w.f.h.h.g.h.h.h.h.h.e.r.$.. 2X2X2X2X2X2X2X2X2X2X2X2X2X2X",
"2X2X2X2X2X2X2X2X2X2X2X2X2X2X  3 `.$X).x 2.e.e.r.t.<.O.O.O.O.#.O.O.:.r.:.+.;   2X2X2X2X2X2X2X2X2X2X2X2X",
"2X2X2X2X2X2X2X2X2X2X2X2X2X2X  3 $X`.Q.M 2.e.r.r.;.-.o.o.o.o.o.o.o.%.;.e.e.9   2X2X2X2X2X2X2X2X2X2X2X2X",
"2X2X2X2X2X2X2X2X2X2X2X2X2X2X  3 #XW.| ] 3.:.r.<.O...:.e.<.e.<.<.:...%.r.r.9   2X2X2X2X2X2X2X2X2X2X2X2X",
"2X2X2X2X2X2X2X2X2X2X2X2X2X2X2X2X% [ Q.Q.M z w...-.;.<.e.<.<.e.<.:.:.%.X.r.9   2X2X2X2X2X2X2X2X2X2X2X2X",
"2X2X2X2X2X2X2X2X2X2X2X2X2X2X2X2X  6 P E.U W 7.%.;.r.r.r.r.r.w.r.r.r.%...r.8   2X2X2X2X2X2X2X2X2X2X2X2X",
"2X2X2X2X2X2X2X2X2X2X2X2X2X2X2X2X2X  3 | R.[ ] 3.:.r.r.r.w.r.:.w.r.r.%...;.;   2X2X2X2X2X2X2X2X2X2X2X2X",
"2X2X2X2X2X2X2X2X2X2X2X2X2X2X2X2X2X    o v L Q.] 9.e.r.e.r.r.r.r.r.w.w.2.M %   2X2X2X2X2X2X2X2X2X2X2X2X",
"2X2X2X2X2X2X2X2X2X2X2X2X2X2X2X2X2X  - Q j g L V T k o.;.e.e.r.r.r.k l l R %   2X2X2X2X2X2X2X2X2X2X2X2X",
"2X2X2X2X2X2X2X2X2X2X2X2X2X2X2X2X2X@ u &Xq.l 7 ` { T d #.1.1.1.1.*.M N m ` <   2X2X2X2X2X2X2X2X2X2X2X2X",
"2X2X2X2X2X2X2X2X2X2X2X2X2X2X2X2X2Xp i.;X:Xa.% ,X=Xs.n b x n c b b _ _ ` ` <   2X2X2X2X2X2X2X2X2X2X2X2X",
"2X2X2X2X2X2X2X2X2X2X2X2X2X2X2X2X2X .i.:X:X@XB.1X=Xn.s.s.^ x R R R ` ` E < $ 2X2X2X2X2X2X2X2X2X2X2X2X2X",
"2X2X2X2X2X2X2X2X2X2X2X2X2X2X2X2X2X8.z.;X:X%X'.<X=Xm.v.s.^ B _ ` ` ` E 6   2X2X2X2X2X2X2X2X2X2X2X2X2X2X",
"2X2X2X2X2X2X2X2X2X2X2X2X2X2X2X2X2Xn.&X;X;X:X:X;X;X-Xb.W B _ _ _ _ ` 7   2X2X2X2X2X2X2X2X2X2X2X2X2X2X2X",
"2X2X2X2X2X2X2X2X2X2X2X2X2X2X2X2X2X2X2X9.v.*X>X>X*Xb.} ` _ _ % O O x 6 2X2X2X2X2X2X2X2X2X2X2X2X2X2X2X2X",
"2X2X2X2X2X2X2X2X2X2X2X2X2X2X2X2X2X2X2X .z ^ a.a.y.Q V V L V.I C G H.U 2X2X2X2X2X2X2X2X2X2X2X2X2X2X2X2X",
"2X2X2X2X2X2X2X2X2X2X2X2X2X2X2X2X2X2X2X2X      X X > N N I Y.XXoXoX+XH.x 2X2X2X2X2X2X2X2X2X2X2X2X2X2X2X",
"2X2X2X2X2X2X2X2X2X2X2X2X2X2X2X2X2X2X2X2X2X2Xo N./.|.|.|.|.|.oXoX.X^.J x 2X2X2X2X2X2X2X2X2X2X2X2X2X2X2X",
"2X2X2X2X2X2X2X2X2X2X2X2X2X2X2X2X2X2X2X2X2X* e I U.].].XXoXoXoX X/.J K 2X2X2X2X2X2X2X2X2X2X2X2X2X2X2X2X",
"2X2X2X2X2X2X2X2X2X2X2X2X2X2X2X2X2X2X2X2X  8 ..m B.J.S.(. X X{.^.D.N 2X2X2X2X2X2X2X2X2X2X2X2X2X2X2X2X2X",
"2X2X2X2X2X2X2X2X2X2X2X2X2X2X2X2X2X2X2X2X  q 5.F.S.J n n A C.: % N 2X2X2X2X2X2X2X2X2X2X2X2X2X2X2X2X2X2X",
"2X2X2X2X2X2X2X2X2X2X2X2X2X2X2X2X2X2X2X2X  q 6.I.K.S.B.^.(.[.: X 2X2X2X2X2X2X2X2X2X2X2X2X2X2X2X2X2X2X2X",
"2X2X2X2X2X2X2X2X2X2X2X2X2X2X2X2X2X2X2X2X* i 0.F.L.L.F.}.oX.XG 5 2X2X2X2X2X2X2X2X2X2X2X2X2X2X2X2X2X2X2X",
"2X2X2X2X2X2X2X2X2X2X2X2X2X2X2X2X2X2X2X. $.) P.L.L.K.M.{.oXOXOXA.  2X2X2X2X2X2X2X2X2X2X2X2X2X2X2X2X2X2X",
"2X2X2X2X2X2X2X2X2X2X2X2X2X2X2X2X2X2X2X. $.) P.L.L.K.M.{.oXoX+XA.  2X2X2X2X2X2X2X2X2X2X2X2X2X2X2X2X2X2X",
"2X2X2X2X2X2X2X2X2X2X2X2X2X2X2X2X2X2X2X  $.) L.L.L.K.S.~.)._._.F   2X2X2X2X2X2X2X2X2X2X2X2X2X2X2X2X2X2X",
"2X2X2X2X2X2X2X2X2X2X2X2X2X2X2X2X2X2X2X. +.~ I.L.L.L.Y.l +.h.t.p   2X2X2X2X2X2X2X2X2X2X2X2X2X2X2X2X2X2X",
"2X2X2X2X2X2X2X2X2X2X2X2X2X2X2X2X2X2X2X  @ w 0.I.P.P.Y.4 9 t.t.p   2X2X2X2X2X2X2X2X2X2X2X2X2X2X2X2X2X2X",
"2X2X2X2X2X2X2X2X2X2X2X2X2X2X2X2X2X2X2X  4 h -.( / / / u 0 t t e > 2X2X2X2X2X2X2X2X2X2X2X2X2X2X2X2X2X2X",
"2X2X2X2X2X2X2X2X2X2X2X2X2X2X2X2X2X2X2XX H D d 5.4.5.5.#.r X X > x 2X2X2X2X2X2X2X2X2X2X2X2X2X2X2X2X2X2X",
"2X2X2X2X2X2X2X2X2X2X2X2X2X2X2X2X  t q X Z.K.I.I.I.F.G.N x x x 1   2X2X2X2X2X2X2X2X2X2X2X2X2X2X2X2X2X2X",
"2X2X2X2X2X2X2X2X2X2X2X2X2X2X2X2X   ...0 J K.P.P.J.M.4 : < c 1 O   2X2X2X2X2X2X2X2X2X2X2X2X2X2X2X2X2X2X",
"2X2X2X2X2X2X2X2X2X2X2X2X2X2X2X2X  a O...! Y M.M.H Z     $ 7 X     2X2X2X2X2X2X2X2X2X2X2X2X2X2X2X2X2X2X",
"2X2X2X2X2X2X2X2X2X2X2X2X2X2X2X2X2X  8 :.r.y   X     2X2X2X      2X2X2X2X2X2X2X2X2X2X2X2X2X2X2X2X2X2X2X",
"2X2X2X2X2X2X2X2X2X2X2X2X2X2X2X2X2X2X* = ; * 2X2X2X2X2X2X2X2X2X2X2X2X2X2X2X2X2X2X2X2X2X2X2X2X2X2X2X2X2X",
"2X2X2X2X2X2X2X2X2X2X2X2X2X2X2X2X2X2X2X    2X2X2X2X2X2X2X2X2X2X2X2X2X2X2X2X2X2X2X2X2X2X2X2X2X2X2X2X2X2X",
"2X2X2X2X2X2X2X2X2X2X2X2X2X2X2X2X2X2X2X2X2X2X2X2X2X2X2X2X2X2X2X2X2X2X2X2X2X2X2X2X2X2X2X2X2X2X2X2X2X2X2X",
"2X2X2X2X2X2X2X2X2X2X2X2X2X2X2X2X2X2X2X2X2X2X2X2X2X2X2X2X2X2X2X2X2X2X2X2X2X2X2X2X2X2X2X2X2X2X2X2X2X2X2X",
"2X2X2X2X2X2X2X2X2X2X2X2X2X2X2X2X2X2X2X2X2X2X2X2X2X2X2X2X2X2X2X2X2X2X2X2X2X2X2X2X2X2X2X2X2X2X2X2X2X2X2X",
"2X2X2X2X2X2X2X2X2X2X2X2X2X2X2X2X2X2X2X2X2X2X2X2X2X2X2X2X2X2X2X2X2X2X2X2X2X2X2X2X2X2X2X2X2X2X2X2X2X2X2X"
};
