/* XPM */
static char *result[] = {
/* columns rows colors chars-per-pixel */
"51 51 198 2 ",
"   c #010000",
".  c #0A0500",
"X  c #03050A",
"o  c #00090E",
"O  c #0B0B0C",
"+  c #140C02",
"@  c #180E01",
"#  c #1C1202",
"$  c #010B11",
"%  c #0F0D12",
"&  c #04141B",
"*  c #141519",
"=  c #2D1902",
"-  c #331B03",
";  c #241D14",
":  c #3B2505",
">  c #1B1B23",
",  c #141A23",
"<  c #1B1E31",
"1  c #031921",
"2  c #1D2326",
"3  c #042432",
"4  c #2C2C3F",
"5  c #232939",
"6  c #343F38",
"7  c #432404",
"8  c #452803",
"9  c #4A2904",
"0  c #563102",
"q  c #573809",
"w  c #472D11",
"e  c #512F0F",
"r  c #6D3B06",
"t  c #613803",
"y  c #5E4317",
"u  c #79470A",
"i  c #74520D",
"p  c #634018",
"a  c #74481B",
"s  c #65470C",
"d  c #56432B",
"f  c #48443C",
"g  c #59553C",
"h  c #65452A",
"j  c #704C29",
"k  c #634733",
"l  c #79522E",
"z  c #07384E",
"x  c #093549",
"c  c #2B2C46",
"v  c #272D46",
"b  c #2F3147",
"n  c #2C314B",
"m  c #2F394F",
"M  c #383849",
"N  c #293653",
"B  c #353B53",
"V  c #3E3F59",
"C  c #343852",
"Z  c #22415F",
"A  c #39415C",
"S  c #104E67",
"D  c #155365",
"F  c #0B5C7F",
"G  c #18597B",
"H  c #214669",
"J  c #3A4867",
"K  c #394D68",
"L  c #224C70",
"P  c #345776",
"I  c #26637B",
"U  c #4E4245",
"Y  c #44455D",
"T  c #46465B",
"R  c #415F5A",
"E  c #585452",
"W  c #6B4F42",
"Q  c #7B5840",
"!  c #6F6F4E",
"~  c #7F655F",
"^  c #707352",
"/  c #6C7255",
"(  c #4C4C65",
")  c #4E4E68",
"_  c #514E64",
"`  c #49526B",
"'  c #535165",
"]  c #455B76",
"[  c #695D69",
"{  c #597F72",
"}  c #4A607B",
"|  c #874A08",
" . c #8F500C",
".. c #8B5106",
"X. c #92520A",
"o. c #99560A",
"O. c #9A5B0E",
"+. c #9A5904",
"@. c #8A5419",
"#. c #925B17",
"$. c #A65E02",
"%. c #A35D0A",
"&. c #8D6310",
"*. c #9A6019",
"=. c #A96109",
"-. c #A76107",
";. c #B4690A",
":. c #BC6E09",
">. c #B36708",
",. c #AB700F",
"<. c #BF7109",
"1. c #A26314",
"2. c #A96612",
"3. c #AA6A17",
"4. c #B47217",
"5. c #8D5F30",
"6. c #995E26",
"7. c #98632D",
"8. c #927436",
"9. c #AC713A",
"0. c #C16F07",
"q. c #C27107",
"w. c #C17108",
"e. c #CD7B0A",
"r. c #80634F",
"t. c #806557",
"y. c #AA7444",
"u. c #856F61",
"i. c #8E7769",
"p. c #A37B66",
"a. c #CE820E",
"s. c #D28B13",
"d. c #D99718",
"f. c #DC9A19",
"g. c #D69417",
"h. c #E29E1A",
"j. c #E7A21A",
"k. c #BA8659",
"l. c #AE8064",
"z. c #B18368",
"x. c #D0986F",
"c. c #CA9675",
"v. c #CD946C",
"b. c #DBA47F",
"n. c #085F8F",
"m. c #145B82",
"M. c #305D83",
"N. c #136586",
"B. c #0C6995",
"V. c #0B6896",
"C. c #116498",
"Z. c #18759A",
"A. c #0E6386",
"S. c #2A6F8E",
"D. c #0B6FA4",
"F. c #0A73AE",
"G. c #1474A5",
"H. c #177BAA",
"J. c #0E7CB2",
"K. c #4C6886",
"L. c #4F6F90",
"P. c #577694",
"I. c #586F8A",
"U. c #6A7C8D",
"Y. c #1787B8",
"T. c #168ABC",
"R. c #2C8FB1",
"E. c #2992B8",
"W. c #2385AC",
"Q. c #519793",
"!. c #639989",
"~. c #7C97A8",
"^. c #7A94A5",
"/. c #6199B7",
"(. c #1B97C6",
"). c #28AED8",
"_. c #2CB5DB",
"`. c #29B2D9",
"'. c #28A7C7",
"]. c #2DBDE4",
"[. c #28B6E0",
"{. c #2EC1E7",
"}. c #2EC4EA",
"|. c #87949A",
" X c #8198A5",
".X c #89A2AF",
"XX c #ADB3B4",
"oX c #DCA886",
"OX c #ECBB9A",
"+X c #DDBCAA",
"@X c #EAC3AB",
"#X c #F6CEB5",
"$X c #F9D0B6",
"%X c #FCD3BA",
"&X c #D8D9E3",
"*X c #E5DFE1",
"=X c #DCE4F1",
"-X c None",
/* pixels */
"-X-X-X-X-X-X-X-X-X-X-X-X-X-X-X-X-X-X-X-X-X-X-X-X-X-X-X-X-X-X-X-X-X-X-X-X-X-X-X-X-X-X-X-X-X-X-X-X-X-X-X",
"-X-X-X-X-X-X-X-X-X-X-X-X-X-X-X-X-X-X-X-X-X-X-X-X-X-X-X-X-X-X-X-X-X-X-X-X-X-X-X-X-X-X-X-X-X-X-X-X-X-X-X",
"-X-X-X-X-X-X-X-X-X-X-X-X-X-X-X-X-X-X-X-X-X-X-X-X-X-X-X-X-X-X-X-X-X-X-X-X-X-X-X-X-X-X-X-X-X-X-X-X-X-X-X",
"-X-X-X-X-X-X-X-X-X-X-X-X-X-X-X-X-X-X-X-X-X-X-X-X-X-X-X-X-X-X-X-X-X-X-X-X-X-X-X-X-X-X-X-X-X-X-X-X-X-X-X",
"-X-X-X-X-X-X-X-X-X-X-X-X-X-X-X-X-X-X-X-X-X-X-X-X-X-X-X-X-X-X-X-X-X-X-X-X-X-X-X-X-X-X-X-X-X-X-X-X-X-X-X",
"-X-X-X-X-X-X-X-X-X-X-X-X-X-X-X-X-X-X                  -X-X-X-X-X-X-X-X-X-X-X-X-X-X-X-X-X-X-X-X-X-X-X-X",
"-X-X-X-X-X-X-X-X-X-X-X-X-X-X-X-X-X+ i i i i i i i i q     -X-X-X-X-X-X-X-X-X-X-X-X-X-X-X-X-X-X-X-X-X-X",
"-X-X-X-X-X-X-X-X-X-X-X-X-X-X-X-X# : g.f.h.h.h.h.h.j.&.# # # -X-X-X-X-X-X-X-X-X-X-X-X-X-X-X-X-X-X-X-X-X",
"-X-X-X-X-X-X-X-X-X-X-X-X-X-X-X  s d.f.f.f.f.f.f.f.f.d.g.<.0 o v -X-X-X-X-X-X-X-X-X-X-X-X-X-X-X-X-X-X-X",
"-X-X-X-X-X-X-X-X-X-X-X-X-X-X. r ,.h.f.f.f.f.f.f.f.f.f.d.w.| e ] Z 2   -X-X-X-X-X-X-X-X-X-X-X-X-X-X-X-X",
"-X-X-X-X-X-X-X-X-X-X-X-X-X-X. -.a.g.f.f.f.f.f.f.f.f.d.s.q.=.@.K.` A , -X-X-X-X-X-X-X-X-X-X-X-X-X-X-X-X",
"-X-X-X-X-X-X-X-X-X-X-X-X-X-X. -.q.w.d.f.f.f.f.d.f.f.s.0.q.<.2.n U.~.L.*   -X-X-X-X-X-X-X-X-X-X-X-X-X-X",
"-X-X-X-X-X-X-X-X-X-X-X-X  : o.:.q.<.O.O.O.O.#.O.O.w.w.0.<.q.2.n U..X^.2   -X-X-X-X-X-X-X-X-X-X-X-X-X-X",
"-X-X-X-X-X-X-X-X-X-X-X-X  8 q.q.;.=.O.O.o.o.o.o.O.=.;.0.q.q.2.B U.~..X2   -X-X-X-X-X-X-X-X-X-X-X-X-X-X",
"-X-X-X-X-X-X-X-X-X-X-X-X  8 q.:.%. .:.:.q.w.q.w.<. .%.:.q.4.3._ K.P. X2   -X-X-X-X-X-X-X-X-X-X-X-X-X-X",
"-X-X-X-X-X-X-X-X-X-X-X-X  8 q.X.O.:.:.0.:.w.<.w.:.:.%. .0.@.M K.L.] * -X-X-X-X-X-X-X-X-X-X-X-X-X-X-X-X",
"-X-X-X-X-X-X-X-X-X-X-X-X  8 w. .%.0.q.0.0.<.w.w.w.w.;.O.5.E ] L.K 5   -X-X-X-X-X-X-X-X-X-X-X-X-X-X-X-X",
"-X-X-X-X-X-X-X-X-X-X-X-X  : ;.X.%.0.:.q.q.0.:.q.q.:.:.3.' ] K.K.>   -X-X-X-X-X-X-X-X-X-X-X-X-X-X-X-X-X",
"-X-X-X-X-X-X-X-X-X-X-X-X  * M 2.q.w.q.q.0.q.0.q.w.q.7.' L.K v X     -X-X-X-X-X-X-X-X-X-X-X-X-X-X-X-X-X",
"-X-X-X-X-X-X-X-X-X-X-X-X  , A k k j :.q.q.q.q.;.O.j U C J U h l ;   -X-X-X-X-X-X-X-X-X-X-X-X-X-X-X-X-X",
"-X-X-X-X-X-X-X-X-X-X-X-X  > ) C N M *.1.1.1.1.#.a U ( ) v k 9.b.d + -X-X-X-X-X-X-X-X-X-X-X-X-X-X-X-X-X",
"-X-X-X-X-X-X-X-X-X-X-X-X  > ) ) ( ( n n n n c n b p.+X&X% u.%X$Xy.u -X-X-X-X-X-X-X-X-X-X-X-X-X-X-X-X-X",
"-X-X-X-X-X-X-X-X-X-X-X-X-X% > T ) ( Y Y Y c ~ p.p.v.+X=Xm.|.$X$Xy.| -X-X-X-X-X-X-X-X-X-X-X-X-X-X-X-X-X",
"-X-X-X-X-X-X-X-X-X-X-X-X-X-X  4 V _ ) ) ( C ~ z.v.oX@X*X/.XX$X$Xk.6.-X-X-X-X-X-X-X-X-X-X-X-X-X-X-X-X-X",
"-X-X-X-X-X-X-X-X-X-X-X-X-X-X-X  < _ ( ( ( ( C E v.@X$X$X$X#X#X#XoXx.-X-X-X-X-X-X-X-X-X-X-X-X-X-X-X-X-X",
"-X-X-X-X-X-X-X-X-X-X-X-X-X-X-X-X4 c % O * ( ( _ [ c.OX%X%XOXx.7.-X-X-X-X-X-X-X-X-X-X-X-X-X-X-X-X-X-X-X",
"-X-X-X-X-X-X-X-X-X-X-X-X-X-X-X-XP S.D D D M.K A V W r.i.i.~ l | -X-X-X-X-X-X-X-X-X-X-X-X-X-X-X-X-X-X-X",
"-X-X-X-X-X-X-X-X-X-X-X-X-X-X-Xc S.].}.}.[.J.L N N & o X     X -X-X-X-X-X-X-X-X-X-X-X-X-X-X-X-X-X-X-X-X",
"-X-X-X-X-X-X-X-X-X-X-X-X-X-X-Xc G J.].}.{._._._._._.T.n.o -X-X-X-X-X-X-X-X-X-X-X-X-X-X-X-X-X-X-X-X-X-X",
"-X-X-X-X-X-X-X-X-X-X-X-X-X-X-X-XH M.(.`.}.}.}.[.(.(.H.H w = -X-X-X-X-X-X-X-X-X-X-X-X-X-X-X-X-X-X-X-X-X",
"-X-X-X-X-X-X-X-X-X-X-X-X-X-X-X-X-XN C.Y.'.`.).E.C.G.m.m @.7   -X-X-X-X-X-X-X-X-X-X-X-X-X-X-X-X-X-X-X-X",
"-X-X-X-X-X-X-X-X-X-X-X-X-X-X-X-X-X-Xn , & m.H n n G V.Z.4.0   -X-X-X-X-X-X-X-X-X-X-X-X-X-X-X-X-X-X-X-X",
"-X-X-X-X-X-X-X-X-X-X-X-X-X-X-X-X-X-X-XX & B.W.E.R.G.D.Z.4.0   -X-X-X-X-X-X-X-X-X-X-X-X-X-X-X-X-X-X-X-X",
"-X-X-X-X-X-X-X-X-X-X-X-X-X-X-X-X-X-X-X& x T.[.}.{.J.D.G.8.p = -X-X-X-X-X-X-X-X-X-X-X-X-X-X-X-X-X-X-X-X",
"-X-X-X-X-X-X-X-X-X-X-X-X-X-X-X-X-X-X  z Z.].{.}.].Z.B.F.F.^ $.  -X-X-X-X-X-X-X-X-X-X-X-X-X-X-X-X-X-X-X",
"-X-X-X-X-X-X-X-X-X-X-X-X-X-X-X-X-X-X  z G.}.}.).Y.A.B.F.F.^ $.. -X-X-X-X-X-X-X-X-X-X-X-X-X-X-X-X-X-X-X",
"-X-X-X-X-X-X-X-X-X-X-X-X-X-X-X-X-X-X  z N.Z.Q.!.{ K I D.F.^ -.. -X-X-X-X-X-X-X-X-X-X-X-X-X-X-X-X-X-X-X",
"-X-X-X-X-X-X-X-X-X-X-X-X-X-X-X-X-X-X  z D   ..a.d.+.R F.G.! +.. -X-X-X-X-X-X-X-X-X-X-X-X-X-X-X-X-X-X-X",
"-X-X-X-X-X-X-X-X-X-X-X-X-X-X-X-X-X-X  w q   ..e.q.- x G.8.q @ -X-X-X-X-X-X-X-X-X-X-X-X-X-X-X-X-X-X-X-X",
"-X-X-X-X-X-X-X-X-X-X-X-X-X-X-X-X-X-X-X- 9 9 q t q 9 d / =.9   -X-X-X-X-X-X-X-X-X-X-X-X-X-X-X-X-X-X-X-X",
"-X-X-X-X-X-X-X-X-X-X-X-X-X-X-X-X-X-X-X  @ a * o o p #.,.u -   -X-X-X-X-X-X-X-X-X-X-X-X-X-X-X-X-X-X-X-X",
"-X-X-X-X-X-X-X-X-X-X-X-X-X-X-X-X-X-X-X  & G F F F A.G G % -X-X-X-X-X-X-X-X-X-X-X-X-X-X-X-X-X-X-X-X-X-X",
"-X-X-X-X-X-X-X-X-X-X-X-X-X-X-X-X-X-X-X-X& 3 f g g g 6 3 -X-X-X-X-X-X-X-X-X-X-X-X-X-X-X-X-X-X-X-X-X-X-X",
"-X-X-X-X-X-X-X-X-X-X-X-X-X-X-X-X-X-X-X-X-X  0 r r r 7   -X-X-X-X-X-X-X-X-X-X-X-X-X-X-X-X-X-X-X-X-X-X-X",
"-X-X-X-X-X-X-X-X-X-X-X-X-X-X-X-X-X-X-X-X-X-X          -X-X-X-X-X-X-X-X-X-X-X-X-X-X-X-X-X-X-X-X-X-X-X-X",
"-X-X-X-X-X-X-X-X-X-X-X-X-X-X-X-X-X-X-X-X-X-X-X-X-X-X-X-X-X-X-X-X-X-X-X-X-X-X-X-X-X-X-X-X-X-X-X-X-X-X-X",
"-X-X-X-X-X-X-X-X-X-X-X-X-X-X-X-X-X-X-X-X-X-X-X-X-X-X-X-X-X-X-X-X-X-X-X-X-X-X-X-X-X-X-X-X-X-X-X-X-X-X-X",
"-X-X-X-X-X-X-X-X-X-X-X-X-X-X-X-X-X-X-X-X-X-X-X-X-X-X-X-X-X-X-X-X-X-X-X-X-X-X-X-X-X-X-X-X-X-X-X-X-X-X-X",
"-X-X-X-X-X-X-X-X-X-X-X-X-X-X-X-X-X-X-X-X-X-X-X-X-X-X-X-X-X-X-X-X-X-X-X-X-X-X-X-X-X-X-X-X-X-X-X-X-X-X-X",
"-X-X-X-X-X-X-X-X-X-X-X-X-X-X-X-X-X-X-X-X-X-X-X-X-X-X-X-X-X-X-X-X-X-X-X-X-X-X-X-X-X-X-X-X-X-X-X-X-X-X-X",
"-X-X-X-X-X-X-X-X-X-X-X-X-X-X-X-X-X-X-X-X-X-X-X-X-X-X-X-X-X-X-X-X-X-X-X-X-X-X-X-X-X-X-X-X-X-X-X-X-X-X-X"
};
