/* XPM */
static char *result[] = {
/* columns rows colors chars-per-pixel */
"51 51 200 2 ",
"   c #010101",
".  c #090500",
"X  c #0F0801",
"o  c #04060B",
"O  c #0B080B",
"+  c #010A0C",
"@  c #140C02",
"#  c #1C0F02",
"$  c #1C1202",
"%  c #161003",
"&  c #0B0C13",
"*  c #000E19",
"=  c #03131B",
"-  c #0D1318",
";  c #11141C",
":  c #101213",
">  c #261502",
",  c #341E02",
"<  c #221B17",
"1  c #352105",
"2  c #3F2503",
"3  c #131522",
"4  c #1A1B28",
"5  c #1B1F31",
"6  c #031922",
"7  c #1C2535",
"8  c #20252E",
"9  c #232738",
"0  c #343338",
"q  c #412404",
"w  c #4C2B05",
"e  c #532C00",
"r  c #5B3405",
"t  c #543607",
"y  c #4F321A",
"u  c #663707",
"i  c #4E372D",
"p  c #503B31",
"a  c #6F4E0D",
"s  c #7B4309",
"d  c #77410B",
"f  c #74520D",
"g  c #794A17",
"h  c #5C4332",
"j  c #514E31",
"k  c #65452B",
"l  c #7C4D21",
"z  c #75502B",
"x  c #79572A",
"c  c #644A35",
"v  c #78573C",
"b  c #0A3646",
"n  c #14374A",
"m  c #032E46",
"M  c #2A2F49",
"N  c #272B46",
"B  c #2C314C",
"V  c #27364D",
"C  c #33344D",
"Z  c #3A394C",
"A  c #323743",
"S  c #2C3452",
"D  c #293A57",
"F  c #393C56",
"G  c #213D60",
"H  c #34435C",
"J  c #3B435C",
"K  c #094866",
"L  c #194668",
"P  c #135262",
"I  c #1E4B72",
"U  c #185979",
"Y  c #085277",
"T  c #3E4C67",
"R  c #3A5375",
"E  c #26536F",
"W  c #54474A",
"Q  c #44445C",
"!  c #484856",
"~  c #4C4F54",
"^  c #775943",
"/  c #615858",
"(  c #705A58",
")  c #5E654C",
"_  c #676946",
"`  c #686B49",
"'  c #7F7244",
"]  c #717251",
"[  c #4C4C65",
"{  c #444B65",
"}  c #555369",
"|  c #485775",
" . c #4C5D68",
".. c #55656C",
"X. c #4F6775",
"o. c #68696E",
"O. c #8B4D0C",
"+. c #82480A",
"@. c #8C5509",
"#. c #99560A",
"$. c #975B0E",
"%. c #995B0F",
"&. c #945409",
"*. c #8E5615",
"=. c #A35D09",
"-. c #A65E02",
";. c #986414",
":. c #A66107",
">. c #AB620A",
",. c #AE690F",
"<. c #A86208",
"1. c #B56909",
"2. c #BC6E09",
"3. c #B16707",
"4. c #BE700A",
"5. c #A16315",
"6. c #B86E10",
"7. c #B17116",
"8. c #AE7119",
"9. c #955E21",
"0. c #9A622C",
"q. c #8A6E31",
"w. c #856328",
"e. c #C27107",
"r. c #C17008",
"t. c #CA7C0C",
"y. c #C7790A",
"u. c #AF7746",
"i. c #8B7464",
"p. c #9C7A6B",
"a. c #A57C64",
"s. c #A98A37",
"d. c #CA8713",
"f. c #D38B12",
"g. c #D49418",
"h. c #DC9A19",
"j. c #D89416",
"k. c #E29E1A",
"l. c #E7A21A",
"z. c #B08267",
"x. c #CA936A",
"c. c #D39E79",
"v. c #D09770",
"b. c #0C5D82",
"n. c #1A5480",
"m. c #0E6184",
"M. c #0C638A",
"N. c #06618A",
"B. c #15678A",
"V. c #0D6A9B",
"C. c #0D6895",
"Z. c #146697",
"A. c #286686",
"S. c #2B7290",
"D. c #337186",
"F. c #0C6EA0",
"G. c #096FA8",
"H. c #0B74AC",
"J. c #0E73A5",
"K. c #1573A3",
"L. c #1679A8",
"P. c #0A78B2",
"I. c #496685",
"U. c #4E6C8C",
"Y. c #506D8D",
"T. c #577795",
"R. c #1487BA",
"E. c #2D8FB2",
"W. c #2B95B7",
"Q. c #6C99B2",
"!. c #7792A4",
"~. c #1A93C4",
"^. c #219DC4",
"/. c #1FA0CE",
"(. c #1FA2D0",
"). c #29A6C9",
"_. c #27ACD3",
"`. c #2DB5DB",
"'. c #2DB6D9",
"]. c #2CBCE3",
"[. c #2EC1E6",
"{. c #2EC3EA",
"}. c #829DAD",
"|. c #89A2AF",
" X c #89A3B1",
".X c #DAAC8A",
"XX c #DEA782",
"oX c #DFB292",
"OX c #E1AC89",
"+X c #EABEA0",
"@X c #F5CEB5",
"#X c #F8CEB4",
"$X c #F9D0B6",
"%X c #FBD3BA",
"&X c #EDC8B0",
"*X c #9BB7C9",
"=X c #F2E0DB",
"-X c #F0EAEE",
";X c #ECE7EC",
":X c None",
/* pixels */
":X:X:X:X:X:X:X:X:X:X:X:X:X:X:X:X:X:X:X:X:X:X:X:X:X:X:X:X:X:X:X:X:X:X:X:X:X:X:X:X:X:X:X:X:X:X:X:X:X:X:X",
":X:X:X:X:X:X:X:X:X:X:X:X:X:X:X:X:X:X:X:X:X:X:X:X:X:X:X:X:X:X:X:X:X:X:X:X:X:X:X:X:X:X:X:X:X:X:X:X:X:X:X",
":X:X:X:X:X:X:X:X:X:X:X:X:X:X:X:X:X:X:X:X:X:X:X:X:X:X:X:X:X:X:X:X:X:X:X:X:X:X:X:X:X:X:X:X:X:X:X:X:X:X:X",
":X:X:X:X:X:X:X:X:X:X:X:X:X:X:X:X:X:X:X:X:X:X:X:X:X:X:X:X:X:X:X:X:X:X:X:X:X:X:X:X:X:X:X:X:X:X:X:X:X:X:X",
":X:X:X:X:X:X:X:X:X:X:X:X:X:X:X:X:X:X:X:X:X:X:X:X:X:X:X:X:X:X:X:X:X:X:X:X:X:X:X:X:X:X:X:X:X:X:X:X:X:X:X",
":X:X:X:X:X:X:X:X:X:X:X:X:X:X:X:X:X:X:X                  :X:X:X:X:X:X:X:X:X:X:X:X:X:X:X:X:X:X:X:X:X:X:X",
":X:X:X:X:X:X:X:X:X:X:X:X:X:X:X:X:X:X:Xt f f f f f f f a X   :X:X:X:X:X:X:X:X:X:X:X:X:X:X:X:X:X:X:X:X:X",
":X:X:X:X:X:X:X:X:X:X:X:X:X:X:X:X:X:X$ ;.l.k.k.k.k.k.k.g.1 $ $ :X:X:X:X:X:X:X:X:X:X:X:X:X:X:X:X:X:X:X:X",
":X:X:X:X:X:X:X:X:X:X:X:X:X:X:X:X:X% d.h.h.h.h.h.h.h.h.h.g.t.#.. 7 M :X:X:X:X:X:X:X:X:X:X:X:X:X:X:X:X:X",
":X:X:X:X:X:X:X:X:X:X:X:X:X:X:X  w @.g.h.h.h.h.h.h.h.h.h.h.d.3.t ~ R N o :X:X:X:X:X:X:X:X:X:X:X:X:X:X:X",
":X:X:X:X:X:X:X:X:X:X:X:X:X:X:X  r t.f.j.h.h.h.h.h.h.h.h.j.t.1.#./ | { 9 ; :X:X:X:X:X:X:X:X:X:X:X:X:X:X",
":X:X:X:X:X:X:X:X:X:X:X:X:X:X:X  r e.4.f.h.h.h.h.h.h.h.h.r.r.e.e.h T |.T.H   :X:X:X:X:X:X:X:X:X:X:X:X:X",
":X:X:X:X:X:X:X:X:X:X:X:X:X:X. +.<.e.e.>.%.%.$.$.%.%.,.y.r.4.e.e.h T |.}. .  :X:X:X:X:X:X:X:X:X:X:X:X:X",
":X:X:X:X:X:X:X:X:X:X:X:X:X:X. <.y.2.3.%.#.#.#.#.#.#.%.>.4.e.e.4.c | !.}...  :X:X:X:X:X:X:X:X:X:X:X:X:X",
":X:X:X:X:X:X:X:X:X:X:X:X:X:X. :.e.1.O.>.r.r.r.r.e.e.>.O.2.2.4.2.^ | Y.!...  :X:X:X:X:X:X:X:X:X:X:X:X:X",
":X:X:X:X:X:X:X:X:X:X:X:X:X:X. :.>.O.1.2.r.r.r.e.2.e.2.1.O.>.5.p | U.T.8 : :X:X:X:X:X:X:X:X:X:X:X:X:X:X",
":X:X:X:X:X:X:X:X:X:X:X:X:X:XX <.=.O.2.2.r.r.r.r.r.r.r.r.=.9.q.R I.I.V - :X:X:X:X:X:X:X:X:X:X:X:X:X:X:X",
":X:X:X:X:X:X:X:X:X:X:X:X:X:X. %.=.&.2.r.r.r.r.r.r.r.r.r.6.^ I.I.I.H   :X:X:X:X:X:X:X:X:X:X:X:X:X:X:X:X",
":X:X:X:X:X:X:X:X:X:X:X:X:X:X  9 x e.r.r.r.r.r.r.r.r.e.r./ I.I.M -     :X:X:X:X:X:X:X:X:X:X:X:X:X:X:X:X",
":X:X:X:X:X:X:X:X:X:X:X:X:X:X  C W k c ;.e.e.e.e.r.=.O.p Z F Q i v h   :X:X:X:X:X:X:X:X:X:X:X:X:X:X:X:X",
":X:X:X:X:X:X:X:X:X:X:X:X:X:X. Q Q B B z 5.5.5.5.5.g h Q } C 0 0.x.a.> :X:X:X:X:X:X:X:X:X:X:X:X:X:X:X:X",
":X:X:X:X:X:X:X:X:X:X:X:X:X:Xo Q [ [ [ F B M C M M N ( v.;Xo.< +X@X.X+.:X:X:X:X:X:X:X:X:X:X:X:X:X:X:X:X",
":X:X:X:X:X:X:X:X:X:X:X:X:X:X:X; A [ [ [ Q { C W a.p.a.XX-XQ.A.+X%X.X+.:X:X:X:X:X:X:X:X:X:X:X:X:X:X:X:X",
":X:X:X:X:X:X:X:X:X:X:X:X:X:X:X  4 Z [ [ [ [ F [ p.x.XXOX;X*XQ.%X%XoX0.:X:X:X:X:X:X:X:X:X:X:X:X:X:X:X:X",
":X:X:X:X:X:X:X:X:X:X:X:X:X:X:X:X:XO ! [ [ [ [ { C a.oX@X@X%X@X@X@X+Xv.:X:X:X:X:X:X:X:X:X:X:X:X:X:X:X:X",
":X:X:X:X:X:X:X:X:X:X:X:X:X:X:X:X:X:XC 4 O O Z [ [ } p.XX$X%X#XXXu.0.:X:X:X:X:X:X:X:X:X:X:X:X:X:X:X:X:X",
":X:X:X:X:X:X:X:X:X:X:X:X:X:X:X:X:X:XS.U P P U R Q F W ^ i.i.i.^ l :X:X:X:X:X:X:X:X:X:X:X:X:X:X:X:X:X:X",
":X:X:X:X:X:X:X:X:X:X:X:X:X:X:X:X:XD `.[.{.[.~.Z.C S 9 & o       :X:X:X:X:X:X:X:X:X:X:X:X:X:X:X:X:X:X:X",
":X:X:X:X:X:X:X:X:X:X:X:X:X:X:X:X:XD H._.{.[.].`.`.`.`.).H.m   :X:X:X:X:X:X:X:X:X:X:X:X:X:X:X:X:X:X:X:X",
":X:X:X:X:X:X:X:X:X:X:X:X:X:X:X:X:XD I L.).[.{.{.[./.~.~.n.0 q . :X:X:X:X:X:X:X:X:X:X:X:X:X:X:X:X:X:X:X",
":X:X:X:X:X:X:X:X:X:X:X:X:X:X:X:X:X:XN I K.^._._.).K.V.F.G k s . :X:X:X:X:X:X:X:X:X:X:X:X:X:X:X:X:X:X:X",
":X:X:X:X:X:X:X:X:X:X:X:X:X:X:X:X:X:X:XS N O K U S M L M.G.] -.. :X:X:X:X:X:X:X:X:X:X:X:X:X:X:X:X:X:X:X",
":X:X:X:X:X:X:X:X:X:X:X:X:X:X:X:X:X:X:X:X:X  Y L.E.E.W.).R.` :.  :X:X:X:X:X:X:X:X:X:X:X:X:X:X:X:X:X:X:X",
":X:X:X:X:X:X:X:X:X:X:X:X:X:X:X:X:X:X:X:X:X6 b.R._.].[.].L...w.1 > :X:X:X:X:X:X:X:X:X:X:X:X:X:X:X:X:X:X",
":X:X:X:X:X:X:X:X:X:X:X:X:X:X:X:X:X:X:X  = m.V.F.N.`.[.`.B.V.S.4.2   :X:X:X:X:X:X:X:X:X:X:X:X:X:X:X:X:X",
":X:X:X:X:X:X:X:X:X:X:X:X:X:X:X:X:X:X:X  = b.M.C.G.m j s.s.q.x 2.q   :X:X:X:X:X:X:X:X:X:X:X:X:X:X:X:X:X",
":X:X:X:X:X:X:X:X:X:X:X:X:X:X:X:X:X:X:X  = m.m.M.V.* e e.f.&.u 2.q   :X:X:X:X:X:X:X:X:X:X:X:X:X:X:X:X:X",
":X:X:X:X:X:X:X:X:X:X:X:X:X:X:X:X:X:X:X  = U m.m.m.= w 2.2.t > 3.2   :X:X:X:X:X:X:X:X:X:X:X:X:X:X:X:X:X",
":X:X:X:X:X:X:X:X:X:X:X:X:X:X:X:X:X:X:X  % g E N.N.Y b # @ w u $ :X:X:X:X:X:X:X:X:X:X:X:X:X:X:X:X:X:X:X",
":X:X:X:X:X:X:X:X:X:X:X:X:X:X:X:X:X:X:X; 8  .) _ _ _ j q q y i 3 & :X:X:X:X:X:X:X:X:X:X:X:X:X:X:X:X:X:X",
":X:X:X:X:X:X:X:X:X:X:X:X:X:X:X:X:X:X:XV L H.' 7.7.7.5.u d i M B 3   :X:X:X:X:X:X:X:X:X:X:X:X:X:X:X:X:X",
":X:X:X:X:X:X:X:X:X:X:X:X:X:X:X:X:X:X  K H.H.K.K.L.B.n .   4 S M M 7   :X:X:X:X:X:X:X:X:X:X:X:X:X:X:X:X",
":X:X:X:X:X:X:X:X:X:X:X:X:X:X:X:X:XX w A n.G.H.V.I L n :X:X& 3 M 5 &   :X:X:X:X:X:X:X:X:X:X:X:X:X:X:X:X",
":X:X:X:X:X:X:X:X:X:X:X:X:X:X:X:X:XX +.k ! D.b.I 9 N :X:X:X:Xo 9 &     :X:X:X:X:X:X:X:X:X:X:X:X:X:X:X:X",
":X:X:X:X:X:X:X:X:X:X:X:X:X:X:X:X:XX s >.r.r.1   . :X:X:X:X:X:X      :X:X:X:X:X:X:X:X:X:X:X:X:X:X:X:X:X",
":X:X:X:X:X:X:X:X:X:X:X:X:X:X:X:X:X:X> > , , :X:X:X:X:X:X:X:X:X:X:X:X:X:X:X:X:X:X:X:X:X:X:X:X:X:X:X:X:X",
":X:X:X:X:X:X:X:X:X:X:X:X:X:X:X:X:X:X        :X:X:X:X:X:X:X:X:X:X:X:X:X:X:X:X:X:X:X:X:X:X:X:X:X:X:X:X:X",
":X:X:X:X:X:X:X:X:X:X:X:X:X:X:X:X:X:X:X:X:X:X:X:X:X:X:X:X:X:X:X:X:X:X:X:X:X:X:X:X:X:X:X:X:X:X:X:X:X:X:X",
":X:X:X:X:X:X:X:X:X:X:X:X:X:X:X:X:X:X:X:X:X:X:X:X:X:X:X:X:X:X:X:X:X:X:X:X:X:X:X:X:X:X:X:X:X:X:X:X:X:X:X",
":X:X:X:X:X:X:X:X:X:X:X:X:X:X:X:X:X:X:X:X:X:X:X:X:X:X:X:X:X:X:X:X:X:X:X:X:X:X:X:X:X:X:X:X:X:X:X:X:X:X:X",
":X:X:X:X:X:X:X:X:X:X:X:X:X:X:X:X:X:X:X:X:X:X:X:X:X:X:X:X:X:X:X:X:X:X:X:X:X:X:X:X:X:X:X:X:X:X:X:X:X:X:X"
};
