/* XPM */
static char *result[] = {
/* columns rows colors chars-per-pixel */
"51 51 198 2 ",
"   c #000000",
".  c #040509",
"X  c #0A080A",
"o  c #160C01",
"O  c #1B1202",
"+  c #1A130E",
"@  c #0A0C12",
"#  c #080C16",
"$  c #0A1218",
"%  c #111416",
"&  c #2C1901",
"*  c #221604",
"=  c #321C02",
"-  c #3E2402",
";  c #181A26",
":  c #0B1A25",
">  c #211E28",
",  c #062936",
"<  c #1E2537",
"1  c #05232F",
"2  c #3B3F2F",
"3  c #262738",
"4  c #4A2C08",
"5  c #532E08",
"6  c #463108",
"7  c #5C3604",
"8  c #543207",
"9  c #46301E",
"0  c #523912",
"q  c #663A05",
"w  c #653A12",
"e  c #4E3825",
"r  c #7B4607",
"t  c #74520D",
"y  c #7F590E",
"u  c #73481E",
"i  c #514039",
"p  c #51452A",
"a  c #69482B",
"s  c #734E2F",
"d  c #74513A",
"f  c #6E4D2D",
"g  c #09344C",
"h  c #2B2D46",
"j  c #2A2E49",
"k  c #262A43",
"l  c #2C314B",
"z  c #353748",
"x  c #283754",
"c  c #383C57",
"v  c #463D42",
"b  c #09455E",
"n  c #394558",
"m  c #165365",
"M  c #09547C",
"N  c #195874",
"B  c #074C6B",
"V  c #254663",
"C  c #20456A",
"Z  c #394B66",
"A  c #3C4561",
"S  c #305F6B",
"D  c #3E5677",
"F  c #236175",
"G  c #44445B",
"H  c #414057",
"J  c #4F4F51",
"K  c #74594D",
"L  c #4E6050",
"P  c #77674D",
"I  c #66725A",
"U  c #464760",
"Y  c #4C4C65",
"T  c #4F4F68",
"R  c #49516A",
"E  c #535267",
"W  c #435977",
"Q  c #46617E",
"!  c #487369",
"~  c #70616A",
"^  c #884B08",
"/  c #8E510A",
"(  c #925203",
")  c #93520B",
"_  c #99560A",
"`  c #9A5B0D",
"'  c #9B5A07",
"]  c #985F19",
"[  c #995B13",
"{  c #8D5517",
"}  c #A55E0A",
"|  c #9E621A",
" . c #A96109",
".. c #AF680F",
"X. c #B26608",
"o. c #B5690A",
"O. c #BC6E09",
"+. c #B56A07",
"@. c #BD700B",
"#. c #A26315",
"$. c #A56B19",
"%. c #B06F14",
"&. c #AF7118",
"*. c #B67A11",
"=. c #895F35",
"-. c #8E5B29",
";. c #9C6328",
":. c #836F3C",
">. c #9D6531",
",. c #87733F",
"<. c #8D7238",
"1. c #A46D22",
"2. c #C37107",
"3. c #C17108",
"4. c #C97609",
"5. c #C87A0B",
"6. c #836754",
"7. c #B17847",
"8. c #8C6D61",
"9. c #8E7769",
"0. c #A37B65",
"q. c #CE8410",
"w. c #CE8D15",
"e. c #D99516",
"r. c #DC9A19",
"t. c #D79518",
"y. c #D18A13",
"u. c #E29E1A",
"i. c #E6A11A",
"p. c #B98869",
"a. c #A28777",
"s. c #CB926A",
"d. c #D29B76",
"f. c #D9A37E",
"g. c #095B87",
"h. c #075682",
"j. c #175C86",
"k. c #325C82",
"l. c #0D6186",
"z. c #0C638C",
"x. c #0D6999",
"c. c #1A719E",
"v. c #14668E",
"b. c #296583",
"n. c #29718F",
"m. c #247396",
"M. c #0A6EA3",
"N. c #0C71A6",
"B. c #0C73AC",
"V. c #0B76AF",
"C. c #1572A2",
"Z. c #0774B2",
"A. c #2379A1",
"S. c #4A6887",
"D. c #4F6D8C",
"F. c #4C6483",
"G. c #506D8C",
"H. c #527294",
"J. c #657C91",
"K. c #328094",
"L. c #1C8BB0",
"P. c #2686A5",
"I. c #2494B8",
"U. c #218CB7",
"Y. c #579A95",
"T. c #628099",
"R. c #758B9B",
"E. c #7D939F",
"W. c #6DAF99",
"Q. c #5A95B4",
"!. c #7994A7",
"~. c #1C98C6",
"^. c #148CC1",
"/. c #1FA0CC",
"(. c #26A5C8",
"). c #29ADD5",
"_. c #2EB4D9",
"`. c #29B1D7",
"'. c #2BBAE2",
"]. c #2EC1E7",
"[. c #2EC4EB",
"{. c #30C7ED",
"}. c #2BC7F1",
"|. c #839BA7",
" X c #86A0AF",
".X c #A5A4A2",
"XX c #DAA581",
"oX c #E8B695",
"OX c #C0BAB5",
"+X c #EFBFA0",
"@X c #E4C8BA",
"#X c #F6CDB4",
"$X c #FBD1B7",
"%X c #FED6BC",
"&X c #F2C8AE",
"*X c #CFD0D7",
"=X c #C9D8E8",
"-X c None",
/* pixels */
"-X-X-X-X-X-X-X-X-X-X-X-X-X-X-X-X-X-X-X-X-X-X-X-X-X-X-X-X-X-X-X-X-X-X-X-X-X-X-X-X-X-X-X-X-X-X-X-X-X-X-X",
"-X-X-X-X-X-X-X-X-X-X-X-X-X-X-X-X-X-X-X-X-X-X-X-X-X-X-X-X-X-X-X-X-X-X-X-X-X-X-X-X-X-X-X-X-X-X-X-X-X-X-X",
"-X-X-X-X-X-X-X-X-X-X-X-X-X-X-X-X-X-X-X-X-X-X-X-X-X-X-X-X-X-X-X-X-X-X-X-X-X-X-X-X-X-X-X-X-X-X-X-X-X-X-X",
"-X-X-X-X-X-X-X-X-X-X-X-X-X-X-X-X-X-X-X-X-X-X-X-X-X-X-X-X-X-X-X-X-X-X-X-X-X-X-X-X-X-X-X-X-X-X-X-X-X-X-X",
"-X-X-X-X-X-X-X-X-X-X-X-X-X-X-X-X-X-X-X-X-X-X-X-X-X-X-X-X-X-X-X-X-X-X-X-X-X-X-X-X-X-X-X-X-X-X-X-X-X-X-X",
"-X-X-X-X-X-X-X-X-X-X-X-X-X-X-X-X-X-X-X-X-X                -X-X-X-X-X-X-X-X-X-X-X-X-X-X-X-X-X-X-X-X-X-X",
"-X-X-X-X-X-X-X-X-X-X-X-X-X-X-X-X-X-X-X-X* t t t t t t t t 6     -X-X-X-X-X-X-X-X-X-X-X-X-X-X-X-X-X-X-X",
"-X-X-X-X-X-X-X-X-X-X-X-X-X-X-X-X-X-X-XO 6 r.u.u.u.u.u.u.i.t O O -X-X-X-X-X-X-X-X-X-X-X-X-X-X-X-X-X-X-X",
"-X-X-X-X-X-X-X-X-X-X-X-X-X-X-X-X-X-X  y r.r.r.r.r.r.r.r.r.t.w.O.4 . j -X-X-X-X-X-X-X-X-X-X-X-X-X-X-X-X",
"-X-X-X-X-X-X-X-X-X-X-X-X-X-X-X-X-Xo r *.r.r.r.r.r.r.r.r.r.r.e.3.r e W c ;   -X-X-X-X-X-X-X-X-X-X-X-X-X",
"-X-X-X-X-X-X-X-X-X-X-X-X-X-X-X-X-Xo +.q.t.r.r.r.r.r.r.r.r.e.y.3.} s Q R z : -X-X-X-X-X-X-X-X-X-X-X-X-X",
"-X-X-X-X-X-X-X-X-X-X-X-X-X-X-X-X-Xo +.@.5.r.r.t.r.r.r.r.r.q.@.3.O.| l R.!.S.@   -X-X-X-X-X-X-X-X-X-X-X",
"-X-X-X-X-X-X-X-X-X-X-X-X-X-X-X  5 ' O.3.O.` ` [ [ ` ` ` 5.2.@.3.2.| l R. XR.%   -X-X-X-X-X-X-X-X-X-X-X",
"-X-X-X-X-X-X-X-X-X-X-X-X-X-X-X  7 4.O.+.} ' _ _ _ _ _ _  .o.3.3.2.| c J.!.|.%   -X-X-X-X-X-X-X-X-X-X-X",
"-X-X-X-X-X-X-X-X-X-X-X-X-X-X-X  7 2.O.' ) O.3.3.3.3.3.O.^ } O.3.O.| E G.T.!.% -X-X-X-X-X-X-X-X-X-X-X-X",
"-X-X-X-X-X-X-X-X-X-X-X-X-X-X-X  7 O.)  .O.3.3.3.3.O.3.O.O.} ) 3.f H S.H.Z % -X-X-X-X-X-X-X-X-X-X-X-X-X",
"-X-X-X-X-X-X-X-X-X-X-X-X-X-X-X  7 O.^ } 3.3.3.3.3.3.3.3.3.X.[ =.E D D.n < -X-X-X-X-X-X-X-X-X-X-X-X-X-X",
"-X-X-X-X-X-X-X-X-X-X-X-X-X-X-X  8 o./  .2.2.3.3.3.3.3.3.3.o.1.T F.S.Q %   -X-X-X-X-X-X-X-X-X-X-X-X-X-X",
"-X-X-X-X-X-X-X-X-X-X-X-X-X-X-X  ; v o.3.2.2.3.2.O.3.3.3.2.=.E G.Z 3 .     -X-X-X-X-X-X-X-X-X-X-X-X-X-X",
"-X-X-X-X-X-X-X-X-X-X-X-X-X-X-X  ; U a a s 3.2.2.2.2.X._ f v c A e a K +   -X-X-X-X-X-X-X-X-X-X-X-X-X-X",
"-X-X-X-X-X-X-X-X-X-X-X-X-X-X-X  3 Y x x v ] #.#.#.| { u v Y R < s 7.XX9 o -X-X-X-X-X-X-X-X-X-X-X-X-X-X",
"-X-X-X-X-X-X-X-X-X-X-X-X-X-X-X  3 T Y T U l l l l l j v s.@X*X. a.$X#X>.^ -X-X-X-X-X-X-X-X-X-X-X-X-X-X",
"-X-X-X-X-X-X-X-X-X-X-X-X-X-X-X-X@ ; Y T Y U U c l 8.0.0.s.@X=Xh..X$X#X>.r -X-X-X-X-X-X-X-X-X-X-X-X-X-X",
"-X-X-X-X-X-X-X-X-X-X-X-X-X-X-X-X-XX z v T T Y U c 8.0.d.XX@X*XQ.OX$X#X7.;.-X-X-X-X-X-X-X-X-X-X-X-X-X-X",
"-X-X-X-X-X-X-X-X-X-X-X-X-X-X-X-X-X-X  h Y Y Y Y Y l ~ d.+X#X#X$X$X#X&XXXs.-X-X-X-X-X-X-X-X-X-X-X-X-X-X",
"-X-X-X-X-X-X-X-X-X-X-X-X-X-X-X-X-X-X-Xh 3 X X > T U T ~ XX+X%X%XoXs.;.-X-X-X-X-X-X-X-X-X-X-X-X-X-X-X-X",
"-X-X-X-X-X-X-X-X-X-X-X-X-X-X-X-X-X-X-Xk.b.m m N k.U H v K P 9.9.P s ^ -X-X-X-X-X-X-X-X-X-X-X-X-X-X-X-X",
"-X-X-X-X-X-X-X-X-X-X-X-X-X-X-X-X-X-Xh P.[.{.}.`.B.V x x # # . .     -X-X-X-X-X-X-X-X-X-X-X-X-X-X-X-X-X",
"-X-X-X-X-X-X-X-X-X-X-X-X-X-X-X-X-X-Xh j.^.'.{.'.'.'._._.).L.h.. -X-X-X-X-X-X-X-X-X-X-X-X-X-X-X-X-X-X-X",
"-X-X-X-X-X-X-X-X-X-X-X-X-X-X-X-X-X-X-XC j.~.'.[.'.'.`.~.~.c.C 4 * -X-X-X-X-X-X-X-X-X-X-X-X-X-X-X-X-X-X",
"-X-X-X-X-X-X-X-X-X-X-X-X-X-X-X-X-X-X-X-Xx x.U.(.'.).U.x.M.j.z / &   -X-X-X-X-X-X-X-X-X-X-X-X-X-X-X-X-X",
"-X-X-X-X-X-X-X-X-X-X-X-X-X-X-X-X-X-X-X-X-Xl % 1 v.x j l h.x.n.@.4   -X-X-X-X-X-X-X-X-X-X-X-X-X-X-X-X-X",
"-X-X-X-X-X-X-X-X-X-X-X-X-X-X-X-X-X-X-X-X-X-X. , (.I.m.v.x.N.n.@.- . -X-X-X-X-X-X-X-X-X-X-X-X-X-X-X-X-X",
"-X-X-X-X-X-X-X-X-X-X-X-X-X-X-X-X-X-X-X-X-X-X, N ].{.(.N.V.V.m.<.0 & -X-X-X-X-X-X-X-X-X-X-X-X-X-X-X-X-X",
"-X-X-X-X-X-X-X-X-X-X-X-X-X-X-X-X-X-X-X-X-X  P.[.].[.I.l.N.V.N.V.,.(   -X-X-X-X-X-X-X-X-X-X-X-X-X-X-X-X",
"-X-X-X-X-X-X-X-X-X-X-X-X-X-X-X-X-X-X-X-X-X  L.}.].}.~.l.N.N.N.V.,.(   -X-X-X-X-X-X-X-X-X-X-X-X-X-X-X-X",
"-X-X-X-X-X-X-X-X-X-X-X-X-X-X-X-X-X-X-X-X-X  ! W.W.Y.K.x.N.B.V.V.,.(   -X-X-X-X-X-X-X-X-X-X-X-X-X-X-X-X",
"-X-X-X-X-X-X-X-X-X-X-X-X-X-X-X-X-X-X-X-X-X  ^ 5.e.( J B.B.B.N.C.P (   -X-X-X-X-X-X-X-X-X-X-X-X-X-X-X-X",
"-X-X-X-X-X-X-X-X-X-X-X-X-X-X-X-X-X-X-X-X-X  / 4.5.& g Z.V.Z.c.1.8 X   -X-X-X-X-X-X-X-X-X-X-X-X-X-X-X-X",
"-X-X-X-X-X-X-X-X-X-X-X-X-X-X-X-X-X-X-X-X-X; 4 q 7 4 p I I I P  .2 1   -X-X-X-X-X-X-X-X-X-X-X-X-X-X-X-X",
"-X-X-X-X-X-X-X-X-X-X-X-X-X-X-X-X-X-X-X-X-Xk # . . w [ %.&.&.$.u S B   -X-X-X-X-X-X-X-X-X-X-X-X-X-X-X-X",
"-X-X-X-X-X-X-X-X-X-X-X-X-X-X-X-X-X-X-X-X-X. < j h h V v.c.C.C.C.B.h.  q 5   -X-X-X-X-X-X-X-X-X-X-X-X-X",
"-X-X-X-X-X-X-X-X-X-X-X-X-X-X-X-X-X-X-X-X-X  @ ; j ; : , v.N.V.V.M.N 5 ' r   -X-X-X-X-X-X-X-X-X-X-X-X-X",
"-X-X-X-X-X-X-X-X-X-X-X-X-X-X-X-X-X-X-X-X-X    @ 3 .   . b M g.g.F L ) ' q   -X-X-X-X-X-X-X-X-X-X-X-X-X",
"-X-X-X-X-X-X-X-X-X-X-X-X-X-X-X-X-X-X-X-X-X-X      -X-X-X    .   ^ 3.O.&   -X-X-X-X-X-X-X-X-X-X-X-X-X-X",
"-X-X-X-X-X-X-X-X-X-X-X-X-X-X-X-X-X-X-X-X-X-X-X-X-X-X-X-X-X-X-X-X& = = -X-X-X-X-X-X-X-X-X-X-X-X-X-X-X-X",
"-X-X-X-X-X-X-X-X-X-X-X-X-X-X-X-X-X-X-X-X-X-X-X-X-X-X-X-X-X-X-X-X-X    -X-X-X-X-X-X-X-X-X-X-X-X-X-X-X-X",
"-X-X-X-X-X-X-X-X-X-X-X-X-X-X-X-X-X-X-X-X-X-X-X-X-X-X-X-X-X-X-X-X-X-X-X-X-X-X-X-X-X-X-X-X-X-X-X-X-X-X-X",
"-X-X-X-X-X-X-X-X-X-X-X-X-X-X-X-X-X-X-X-X-X-X-X-X-X-X-X-X-X-X-X-X-X-X-X-X-X-X-X-X-X-X-X-X-X-X-X-X-X-X-X",
"-X-X-X-X-X-X-X-X-X-X-X-X-X-X-X-X-X-X-X-X-X-X-X-X-X-X-X-X-X-X-X-X-X-X-X-X-X-X-X-X-X-X-X-X-X-X-X-X-X-X-X",
"-X-X-X-X-X-X-X-X-X-X-X-X-X-X-X-X-X-X-X-X-X-X-X-X-X-X-X-X-X-X-X-X-X-X-X-X-X-X-X-X-X-X-X-X-X-X-X-X-X-X-X"
};
