/* XPM */
static char *result[] = {
/* columns rows colors chars-per-pixel */
"51 51 219 2 ",
"   c #020202",
".  c #050807",
"X  c #07070A",
"o  c #080808",
"O  c #090708",
"+  c #0F001E",
"@  c #0D002D",
"#  c #19002F",
"$  c #0E0034",
"%  c #0E0039",
"&  c #15003A",
"*  c #160039",
"=  c #3F3F3F",
"-  c #423F40",
";  c #423B5D",
":  c #45356A",
">  c #463666",
",  c gray25",
"<  c #6F6F6F",
"1  c #706E6F",
"2  c #6F6E71",
"3  c #746A7C",
"4  c #78677B",
"5  c gray44",
"6  c #6F716F",
"7  c #711EBE",
"8  c #6F24AF",
"9  c #746A83",
"0  c #7C628F",
"q  c #786782",
"w  c #75649C",
"e  c #776496",
"r  c #6D6B90",
"t  c #7761A1",
"y  c #761BC6",
"u  c #7D17D1",
"i  c #7A18D2",
"p  c #7C3CF7",
"a  c #7E5EEA",
"s  c #7944F2",
"d  c #7A46F2",
"f  c #825C9B",
"g  c #835AA2",
"h  c #8B53B2",
"j  c #8753B2",
"k  c #840EE6",
"l  c #890CEB",
"z  c #870FE9",
"x  c #8B0AF0",
"c  c #8C06FD",
"v  c #890AF6",
"b  c #823CFE",
"n  c #8236FF",
"m  c #9946D9",
"M  c #9744D4",
"N  c #A468CC",
"B  c #A766D6",
"V  c #8444F4",
"C  c #864CF5",
"Z  c #8543FD",
"A  c #854BFB",
"S  c #8B4BFD",
"D  c #8A49F9",
"F  c #9B4EFD",
"G  c #964BF7",
"H  c #8953F5",
"J  c #8D54FD",
"K  c #855BFC",
"L  c #8B5BFC",
"P  c #865CF5",
"I  c #9455FE",
"U  c #9B54FE",
"Y  c #955BFD",
"T  c #9C5CFE",
"R  c #9859F5",
"E  c #AD5EE2",
"W  c #B45CEB",
"Q  c #B05DE2",
"!  c #A24DFA",
"~  c #BD4EFF",
"^  c #A454FD",
"/  c #AA55FD",
"(  c #A35BFE",
")  c #AB5AFC",
"_  c #B556F4",
"`  c #BA52FE",
"'  c #B25CFC",
"]  c #B659FA",
"[  c #A14DE9",
"{  c #8667ED",
"}  c #9178EF",
"|  c #8A65FC",
" . c #9262FC",
".. c #9B63FE",
"X. c #956BFE",
"o. c #9C6BFD",
"O. c #9A68F6",
"+. c #8E73FD",
"@. c #9B72FD",
"#. c #937CFD",
"$. c #9C7AFF",
"%. c #9772FC",
"&. c #AD6EF5",
"*. c #A364FE",
"=. c #AC62FD",
"-. c #A46CFE",
";. c #AB6CFE",
":. c #AE63F6",
">. c #B56CF5",
",. c #B365FD",
"<. c #BC64FD",
"1. c #B26CFE",
"2. c #B764F6",
"3. c #AC7AF5",
"4. c #A473FE",
"5. c #AA73FE",
"6. c #A57CFF",
"7. c #A77AFA",
"8. c #B677FD",
"9. c #B071EF",
"0. c #CA6BF7",
"q. c #C46BFF",
"w. c #CA6CFE",
"e. c #C269F5",
"r. c #C672FF",
"t. c #C875F8",
"y. c #D374FE",
"u. c #DA7CFC",
"i. c #D978F7",
"p. c #CA74EF",
"a. c #E27DFF",
"s. c #9684FD",
"d. c #9C8AFD",
"f. c #9982F7",
"g. c #9C92FD",
"h. c #9E96FA",
"j. c #8F82FF",
"k. c #A383FF",
"l. c #A18BFF",
"z. c #AD88FD",
"x. c #BD82FE",
"c. c #B58CFF",
"v. c #BD8CFD",
"b. c #B081FE",
"n. c #AB94FD",
"m. c #A79AFC",
"M. c #B494FF",
"N. c #B893FB",
"B. c #AFACFE",
"V. c #A3A1FF",
"C. c #B3A4FF",
"Z. c #BCA3FE",
"A. c #B2ABFF",
"S. c #BAAAFF",
"D. c #B7B7FF",
"F. c #C588FE",
"G. c #D483FE",
"H. c #D48BFD",
"J. c #DA89FC",
"K. c #C29CFF",
"L. c #CA96FC",
"P. c #D493FE",
"I. c #DA92FF",
"U. c #D79FFD",
"Y. c #DF8FE5",
"T. c #EA84FD",
"R. c #EB8DFD",
"E. c #E286FB",
"W. c #F38EFE",
"Q. c #E594FB",
"!. c #E897FD",
"~. c #F194FD",
"^. c #F49AFE",
"/. c #FC9DFE",
"(. c #C5A5FE",
"). c #C5ADFD",
"_. c #CAAAFE",
"`. c #C6A7FB",
"'. c #DDA2FE",
"]. c #D5AEFE",
"[. c #D7A7F8",
"{. c #C6B7FD",
"}. c #D3B1FD",
"|. c #DBB4FF",
" X c #D6B8F8",
".X c #ECA6FD",
"XX c #E4ADFD",
"oX c #EDAAFE",
"OX c #E8ABF6",
"+X c #F4A3FC",
"@X c #FDA4FD",
"#X c #F4ACFC",
"$X c #FDABFF",
"%X c #F1A8F5",
"&X c #E5B7FD",
"*X c #F4B6FC",
"=X c #FBB2FD",
"-X c #F4BCFD",
";X c #FDBBFE",
":X c #F4BAF6",
">X c #EFB9EE",
",X c #DBC6FF",
"<X c #DDCCFE",
"1X c #D1CBFF",
"2X c #EAC5EF",
"3X c #E9CAEA",
"4X c #E7C4FC",
"5X c #F4C4F5",
"6X c #F5C1FE",
"7X c #FDC3FE",
"8X c #FEC9FE",
"9X c #F0CFFF",
"0X c #FED3FF",
"qX c #FCDBFF",
"wX c #F0D1FF",
"eX c #EED2FF",
"rX c #FEE2FF",
"tX c #FFFEFF",
"yX c None",
/* pixels */
"yXyXyXyXyXyXyXyXyXyXyXyXyXyXyXyXyXyXyXyXyXyXyXyXyXyXyXyXyXyXyXyXyXyXyXyXyXyXyXyXyXyXyXyXyXyXyXyXyXyXyX",
"yXyXyXyXyXyXyXyXyXyXyXyXyXyXyXyXyXyXyXyXyXyXyXyXyXyXyXyXyXyXyXyXyXyXyXyXyXyXyXyXyXyXyXyXyXyXyXyXyXyXyX",
"yXyXyXyXyXyXyXyXyXyXyXyXyXyXyXyXyXyXyXyXyXyXyXyXyXyXyXyXyXyXyXyXyXyXyXyXyXyXyXyXyXyXyXyXyXyXyXyXyXyXyX",
"yXyXyXyXyXyXyXyXyXyXyXyXyXyXyXyXyXyXyXyX                      yXyXyXyXyXyXyXyXyXyXyXyXyXyXyXyXyXyXyXyX",
"yXyXyXyXyXyXyXyXyXyXyXyXyXyXyXyXyXyXyXyX                      yXyXyXyXyXyXyXyXyXyXyXyXyXyXyXyXyXyXyXyX",
"yXyXyXyXyXyXyXyXyXyXyXyXyXyXyX          < < < 6 :XW _ < < < <           yXyXyXyXyXyXyXyXyXyXyXyXyXyXyX",
"yXyXyXyXyXyXyXyXyXyXyXyXyXyX  2 < < < < < < < < ` x k < < < < < < < < <   yXyXyXyXyXyXyXyXyXyXyXyXyXyX",
"yXyXyXyXyXyXyXyXyXyXyXyXyXyX  2 < < < < < < 1 5 E y 7 < < < < < < < < <   yXyXyXyXyXyXyXyXyXyXyXyXyXyX",
"yXyXyXyXyXyXyXyXyXyXyX      < < 5 5 < < 2 X . . X X X . X X 5 5 6 6 6 < <       yXyXyXyXyXyXyXyXyXyXyX",
"yXyXyXyXyXyXyXyXyX    < 2 2 < < 5   . . X n p p b Z p Z b p X X . X < < < < < 5     yXyXyXyXyXyXyXyXyX",
"yXyXyXyXyXyXyXyXyX    4 0 0 < < 3 & % % % p p s d s s d s s @ $ % % 3 < < 2 q f     yXyXyXyXyXyXyXyXyX",
"yXyXyXyXyXyXyXyX  1 4 -X` E < o $ n Z Z A K | +.s.+.| #.+.X.K A Z n % X < 2X=X` 0 <   yXyXyXyXyXyXyXyX",
"yXyXyXyXyXyXyXyX  < f ` c u   5 t J +.+.s.X.+.X.X. . .d.m.h.g.#.#.K w 2   E ` c h 2   yXyXyXyXyXyXyXyX",
"yXyXyXyXyXyXyXyX  < 0 E i 8 o < w L +.+.$.o.o.....Y  .k.l.n.l.#.#.{ w 2   N W u g 2   yXyXyXyXyXyXyXyX",
"yXyXyXyXyXyX    < < < <   o 6 < w %.$.4.-.^ ( ( ) / ^ *.-.5.o.$.#.d.r < <     < < < 2     yXyXyXyXyXyX",
"yXyXyXyXyX  < < < < <   , , = < j c ,.,.8.r.r.<.r.<.<.,.' ) ^ ( / c h 1 = = =   < < < < 5 o yXyXyXyXyX",
"yXyXyXyXyX  < < < 6 9 & : : : j m z ,.:.t.t.t.e.0.>.e.<._ 2.^ / ( l m h ; > :   9 < < < 5   yXyXyXyXyX",
"yXyXyXyXyX  < < 6 X & b  . . .c z ` <.>.E.Q.E.J.E.u.u.u.0.w.' ) ' ` l c V.s.#.A     < < 5 . yXyXyXyXyX",
"yXyXyXyXyX  < < <   $ S s.k.=.=.:.y.G.G.!.@X@X^.~.~.~.^.i.y.y.2.<.=.5.5.d.s.s.L     < < 5 X yXyXyXyXyX",
"yXyXyXyXyX  < < 5 o @ C k.6.) :.:.p.G.J.!.#X@X@X^.~.~.^.i.u.y.] ] ,.;.-.l.s.d.K     < < 5 o yXyXyXyXyX",
"yXyXyX    < < < 5 o @ #.-.;.1.H.H.Q.@X+X+X7X7X7X=X@X@X@XW.T.a.p.w.' ^ ^ o.l.g.f.    < < < <   o yXyXyX",
"yXyXyX    < < < X S V ..( :.F.+X.X=X;X;X;X;X5XqXrX7X;X;X/./.u.w.r.' / ^ ..d.d.d.a K   < < < O o yXyXyX",
"yXyXyX    < 5 2   D D T =.:.H..X%X:X-X:X7X7X8XqXrX3X5X5X%X/.i.0.w.) / ^ T k.l.h.a P   < < <   o yXyXyX",
"yXyXyX    1 < 5 o S D T 1.>.H.=X:X8X0X0X7X7X7X8XtXtXtXtX%X@Xa.w.w.' / / T b.n.B.{  .  < < < o   yXyXyX",
"yXyXyX    -X~ E . I I T ,.>.H.=X:X7X0X8X7X=X=X7XtXtXtXtX>X$XW.i.y.q.) ( 5.S.A.B.} %.  2X-X` # o yXyXyX",
"yXyXyX    W x y . J Y ( 1.>.P.#X#X;X-X;X%X!.!.+XtXtXtXtXY.R.0._ ' ! F F -.S.D.D.} $.  B _ x * o yXyXyX",
"yXyXyX    _ k 7 . Y U T 8.>.P.oXOX;X;X;X.XQ.!.+XtXtXtX;XT.a.q.] ' ! F I -.S.A.D.f.$.  B _ z * O yXyXyX",
"yXyXyX    < < 2 . I J o.8.F.'.6X6X*X'.'.P.P.I.I./.R.R.w.0.w.] / ^ F F F @.A.B.A.} %.  5 1 2   o yXyXyX",
"yXyXyX    < < < X A C -.&.9.P.XXXX6X*X*X-XI.I.>.p.W W 2.[ ! _ / ( U ( T 6.C.B.m.{ |   1 < 6   o yXyXyX",
"yXyXyX    < < < O D C o.;.&.P.XX[.6X-X-X;XP.P.1.r.) ,.2.G ! ( ^ ( ^ *...d.C.B.m.{ L   1 < < o o yXyXyX",
"yXyXyX    < < < 1 o @ O.*.*.x.[.[.0XrXrX&Xb.x.8.1.R F ;.G U S U T -.N.Z.1XB.D.k.    1 1 6 6 X X yXyXyX",
"yXyXyXyXyX  < < 1 o @ L T R x.XXOX8XqXqX4Xv.F.P.;.*.*.5.=.;.Y *.O.M.{.S.{.m.m.%.    < < 5 . yXyXyXyXyX",
"yXyXyXyXyX  < < <   $ I Y R 8.#X.X8XqXqX&XN.N.L.&.O.O.&.&.-.R o.%.N.`.(.{.M.M.@.    < < < o yXyXyXyXyX",
"yXyXyXyXyX  < < 5 o $ b 4.4.1.c l ` eX9X&X|.|.|.c.b.b.c.K.K.6.M.c.` l c A.%.@.S     < < 1   yXyXyXyXyX",
"yXyXyXyXyX  < < 5 < 9   e e e h m l [. X}.qXqX9X}._._.].,X,X4X)._.l m h 9 e e   9 < < < 6 o yXyXyXyXyX",
"yXyXyXyXyX  < < < < 3   1 1 < 5 h c }.].].qXrXeX}.).).}.<X<X<XS.`.c h 1 < < <   < < < < < X yXyXyXyXyX",
"yXyXyXyXyXyX    < < < 2     < = > -.5.3.L. X|.].<X1X<X).4X<X Xm.M.C.; - <     1 < < 5 o X yXyXyXyXyXyX",
"yXyXyXyXyXyXyXyX  < 3 2XE N   = > ..T R 3.3.3.v.`.{.).(.`.).N.7.7.X.> =   3X4XE 0 5 o yXyXyXyXyXyXyXyX",
"yXyXyXyXyXyXyXyX  < q ;X~ W   = :  .Y R 5.8.6.v._._.).N._.(.c.6.5.X.: =   4X=X~ f 2   yXyXyXyXyXyXyXyX",
"yXyXyXyXyXyXyXyX  < f ` c u <     n A S ..I I T @.4.4.-.X... .....Z     < E ~ v h 1   yXyXyXyXyXyXyXyX",
"yXyXyXyXyXyXyXyXyX    f h g < < 9         Z V V C H H C V V         9 < < 0 f h + o yXyXyXyXyXyXyXyXyX",
"yXyXyXyXyXyXyXyXyX    < < 6 < < <         Z Z Z S S J Z Z p         < 1 < < 1 < o o yXyXyXyXyXyXyXyXyX",
"yXyXyXyXyXyXyXyXyXyXyX      < < < < 5 5 <                   5 5 < < 2 5 <   o   yXyXyXyXyXyXyXyXyXyXyX",
"yXyXyXyXyXyXyXyXyXyXyXyXyXyX  < < 6 1 5 < < < < 2XN B 6 < < 5 5 < < 5 5 o yXyXyXyXyXyXyXyXyXyXyXyXyXyX",
"yXyXyXyXyXyXyXyXyXyXyXyXyXyX  < 5 5 5 5 < 6 1 1 ;X_ _ 2 5 1 6 5 < 1 6 < . yXyXyXyXyXyXyXyXyXyXyXyXyXyX",
"yXyXyXyXyXyXyXyXyXyXyXyXyXyXyX  o o   o 1 < 1 1 ` x k < 2 5 <     o o   yXyXyXyXyXyXyXyXyXyXyXyXyXyXyX",
"yXyXyXyXyXyXyXyXyXyXyXyXyXyXyXyXyXyXyXyX  o   o # * & o o o o yXyXyXyXyXyXyXyXyXyXyXyXyXyXyXyXyXyXyXyX",
"yXyXyXyXyXyXyXyXyXyXyXyXyXyXyXyXyXyXyXyX  o o o o o o o X o o yXyXyXyXyXyXyXyXyXyXyXyXyXyXyXyXyXyXyXyX",
"yXyXyXyXyXyXyXyXyXyXyXyXyXyXyXyXyXyXyXyXyXyXyXyXyXyXyXyXyXyXyXyXyXyXyXyXyXyXyXyXyXyXyXyXyXyXyXyXyXyXyX",
"yXyXyXyXyXyXyXyXyXyXyXyXyXyXyXyXyXyXyXyXyXyXyXyXyXyXyXyXyXyXyXyXyXyXyXyXyXyXyXyXyXyXyXyXyXyXyXyXyXyXyX",
"yXyXyXyXyXyXyXyXyXyXyXyXyXyXyXyXyXyXyXyXyXyXyXyXyXyXyXyXyXyXyXyXyXyXyXyXyXyXyXyXyXyXyXyXyXyXyXyXyXyXyX"
};
