/* XPM */
static char *result[] = {
/* columns rows colors chars-per-pixel */
"51 51 117 2 ",
"   c black",
".  c #05060A",
"X  c #120B08",
"o  c #0D0512",
"O  c #0F0A17",
"+  c #110E1D",
"@  c #0F101C",
"#  c #1B1411",
"$  c #11101E",
"%  c #2C170E",
"&  c #271913",
"*  c #2A1C16",
"=  c #2C1E18",
"-  c #2C201B",
";  c #34241D",
":  c #0F1423",
">  c #131525",
",  c #151728",
"<  c #161829",
"1  c #1C1D2B",
"2  c #1B2134",
"3  c #2D2825",
"4  c #372721",
"5  c #3C2D25",
"6  c #342E2A",
"7  c #242036",
"8  c #2A243B",
"9  c #30273F",
"0  c #422D22",
"q  c #4D3427",
"w  c #43332C",
"e  c #4C392F",
"r  c #463832",
"t  c #4F3C33",
"y  c #513D34",
"u  c #544036",
"i  c #202D43",
"p  c #322942",
"a  c #392C47",
"s  c #24344B",
"d  c #313540",
"f  c #293F59",
"g  c #50395A",
"h  c #2B435D",
"j  c #2F4B67",
"k  c #304C67",
"l  c #304C68",
"z  c #4E4540",
"x  c #504741",
"c  c #5C4D44",
"v  c #5F5148",
"b  c #614F46",
"n  c #69584F",
"m  c #6D5D51",
"M  c #715E53",
"N  c #736256",
"B  c #73655C",
"V  c #77685C",
"C  c #796A5F",
"Z  c #454D64",
"A  c #445066",
"S  c #694770",
"D  c #6E4B72",
"F  c #714B75",
"G  c #784F7B",
"H  c #806F64",
"J  c #837167",
"K  c #85776D",
"L  c #88776C",
"P  c #86786E",
"I  c #8B796E",
"U  c #8B7D72",
"Y  c #8F8075",
"T  c #928277",
"R  c #948479",
"E  c #98867A",
"W  c #99887C",
"Q  c #3D779D",
"!  c #1B6DA1",
"~  c #1F72A6",
"^  c #2376AB",
"/  c #317BAA",
"(  c #2B7FB4",
")  c #406F92",
"_  c #8C5485",
"`  c #8A598B",
"'  c #8F5B90",
"]  c #925E91",
"[  c #846EA2",
"{  c #8B6FA4",
"}  c #827BAD",
"|  c #3388BE",
" . c #5395BF",
".. c #708ABC",
"X. c #629FBC",
"o. c #579AC1",
"O. c #579DCA",
"+. c #459CD3",
"@. c #58A1CD",
"#. c #5EAAD9",
"$. c #75A6DC",
"%. c #48A5E1",
"&. c #52ABE1",
"*. c #73AEE3",
"=. c #68B8E7",
"-. c #64B8EB",
";. c #71B5EC",
":. c #6BC6FF",
">. c #6CCBFF",
",. c #70D2FF",
"<. c #9E8D81",
"1. c #A29184",
"2. c #B6A395",
"3. c #9DDAFF",
"4. c #B6E3FF",
"5. c #BBE5FF",
"6. c None",
/* pixels */
"6.6.6.6.6.6.6.6.6.6.6.6.6.6.6.6.6.6.6.6.6.6.6.6.6.6.6.6.6.6.6.6.6.6.6.6.6.6.6.6.6.6.6.6.6.6.6.6.6.6.6.",
"6.6.6.6.6.6.6.6.6.6.6.6.6.6.6.6.6.6.6.6.6.6.6.6.6.6.6.6.6.6.6.6.6.6.6.6.6.6.6.6.6.6.6.6.6.6.6.6.6.6.6.",
"6.6.6.6.6.6.6.6.6.6.6.6.6.6.6.6.6.6.6.6.6.6.6.6.6.6.6.6.6.6.6.6.6.6.6.6.6.6.6.6.6.6.6.6.6.6.6.6.6.6.6.",
"6.6.6.6.6.6.6.6.6.6.6.6.6.6.6.6.6.6.6.6.6.6.6.6.6.6.6.6.6.6.6.6.6.6.6.6.6.6.6.6.6.6.6.6.6.6.6.6.6.6.6.",
"6.6.6.6.6.6.6.6.6.6.6.6.6.6.6.6.6.6.6.6.6.W E W W W W W W W 6.6.6.6.6.6.6.6.6.6.6.6.6.6.6.6.6.6.6.6.6.",
"6.6.6.6.6.6.6.6.6.6.6.6.6.6.6.6.6.6.6.6.. K = = * = = = = K . 6.6.6.6.6.6.6.6.6.6.6.6.6.6.6.6.6.6.6.6.",
"6.6.6.6.6.6.6.6.6.6.6.6.6.6.6.6.6.6.  1.W P t t ,.5.>.t t K W 1.  6.6.6.6.6.6.6.6.6.6.6.6.6.6.6.6.6.6.",
"6.6.6.6.6.6.6.6.6.6.6.6.    6.6.  W W m m y V t :.:.:.t V y K N W -   6.6.    6.6.6.6.6.6.6.6.6.6.6.6.",
"6.6.6.6.6.6.6.6.6.6.6.B c P z W Y K K m V K K t | ~ | t K K N v U P T W u U x B 6.6.6.6.6.6.6.6.6.6.6.",
"6.6.6.6.6.6.6.6.6.6.P b t & W P K 2.K P K m c t y = y t c K K L K m n P W * t v P 6.6.6.6.6.6.6.6.6.6.",
"6.6.6.6.6.6.6.6.6.P P t t y K K K * - 5 P t v W W W W W c t P I K m m K K u t t P P 6.6.6.6.6.6.6.6.6.",
"6.6.6.6.6.6.6.6.B b t =.3.X.U W P K m t # @ @ # # # # # $ $ # - b K K W U X.3.=.t b B 6.6.6.6.6.6.6.6.",
"6.6.6.6.6.6.6.K n t t :.:.>.* P K y   < < < < < < < , , < < < <   y P K & >.:.:.y t n K 6.6.6.6.6.6.6.",
"6.6.6.6.6.6.6.K W e t ~ ^ ! t U W < < < < , < < ] ` ` ` p > < < < < <.U y ! ^ ~ t e W K 6.6.6.6.6.6.6.",
"6.6.6.6.6.6.6.6.X P K y % y t U   < < < , , < < , : : : ` >.>.{ > <   U y y % y K K X 6.6.6.6.6.6.6.6.",
"6.6.6.6.6.6.6.6.W t * K E t U   < < < < , >.< < < < < , , , > :.:.:.<   U y W K * t W 6.6.6.6.6.6.6.6.",
"6.6.6.6.6.6.6.  U P m ; U K   < < : < i h , < , , + + + > < < < ,.>.:.<   K U ; M K U   6.6.6.6.6.6.6.",
"6.6.6.6.6.6.6.W P K P K t , < < > < :.< < < < >.:.:.:.:.:.:.< < < < :.:.< < y K K K K W 6.6.6.6.6.6.6.",
"6.6.6.6.6.6.  W C P K b   < < < ` :.>.> < , >.< ` ` ` ] < :.:.< < < ,.:.,.<   b P = I W   6.6.6.6.6.6.",
"6.6.6.6.6.6.; - K K K t < < < ` > >.< > 7 #.< < < s s s 7 G Z k < < < :.:.> < w R K m w 1.6.6.6.6.6.6.",
"6.6.6.6.6.. 1.R K P P # < < ` ` O.f < < < < < F *.:.:.:.:.@.1 [ > < < > :.O.< # P K K K <.. 6.6.6.6.6.",
"6.6.6.6.K P K W K K t $ < : ` < :.< < < < < k ` , < < > $.:.O., :., < < :.>.> @ t K K <.K K K 6.6.6.6.",
"6.6.6.6.K t 4 m K T T 1 < ` ` < :.< < < < < ..a >.< a l ) :.:.< S } < < + :.` 1 R R K m 4 t K 6.6.6.6.",
"6.6.6.6.P t t y y * * 3 < ` : < :.< < < < >.` > < < < , >.< :.8 < ` < , , :.< 3 & = t t t t K 6.6.6.6.",
"6.6.6.6.K t >.4.:.t t 3 < ` < < :.` > < < :.D > ] :.` :.o.` h G < :.@ , < :.< 3 t t :.4.>.t K 6.6.6.6.",
"6.6.6.6.K t ^ >.+.t t 3 > ` < < :.` > < 9 :.D :.:.d ` `  .` < < > :.` , < :.< 3 t e +.:.^ t K 6.6.6.6.",
"6.6.6.6.K t %.~ | t t 3 < ` < < o ` < #.9 :.o._ :.:.>.<  .` < < , :.` < < :.< 3 t t | ^ %.y K 6.6.6.6.",
"6.6.6.6.K y t = 5 W W 3 < ` < < < :.< s [ < >.< < < > $ ,.` < < < < ` < @ :.< 3 W W 5 - t t K 6.6.6.6.",
"6.6.6.6.K t J U K r r @ :.` : < < :. .> ;.$.g j l < } l =.< < < < < ` < :.>.> $ r r K I J t K 6.6.6.6.",
"6.6.6.6.K K K = t K t @ < >.` < < < :.< F :.:.> < < < :.l , < < < < ` > :.< < $ t K t - K K P 6.6.6.6.",
"6.6.6.6.6.6.y K K K U 6 < D ` > < < > >.2 F *.:.:.:.:.@.< < < < < 9 F :.>., < 6 K K P P y 6.6.6.6.6.6.",
"6.6.6.6.6.6.u K C K P C < < ` ` < < < a Z #.1 8 8 < < < < #.i < < ` , :.< < > K 5 K K K u 6.6.6.6.6.6.",
"6.6.6.6.6.6.  t K K K T   , ] ` ] < < < ` ` < >.>.:.>.< ` > , < ' ` :.> < <   T K = = =   6.6.6.6.6.6.",
"6.6.6.6.6.6.6.t K K K P W , , ` >.< < < < ` ` ` ` ` ` ` < < , < ` < $ < < < W m m K K t 6.6.6.6.6.6.6.",
"6.6.6.6.6.6.6.  m K K I K K   < _ >.] , < < > > : > < < < < p 7 < $ < <   K K R K K c   6.6.6.6.6.6.6.",
"6.6.6.6.6.6.6.6.t K W K = t K   < :.:.:.> > < < < < < < < ` , < < < <   K t = K W K t 6.6.6.6.6.6.6.6.",
"6.6.6.6.6.6.6.6.z P U 0 q t t K   < > ,.:.:.:.+ + < < < < < < < < <   K y t q 0 U K z 6.6.6.6.6.6.6.6.",
"6.6.6.6.6.6.6.K & y e :.4.:.t K & , , < , + h :.:.:.,.< < < < < < < & K t :.4.:.t y & K 6.6.6.6.6.6.6.",
"6.6.6.6.6.6.6.K n y y &.:.~ <.K t E   , < < < < < < < < < < , <   W e K <.~ :.&.y t m K 6.6.6.6.6.6.6.",
"6.6.6.6.6.6.6.6.B b t / ( Q K = K K T W 6 @ $ 6 6 6 6 6 @ @ 6 W T K K = K Q ( / t b B 6.6.6.6.6.6.6.6.",
"6.6.6.6.6.6.6.6.6.P P t t t K t m K K K K W J & = & = & J W K m K P P t K t t t P K 6.6.6.6.6.6.6.6.6.",
"6.6.6.6.6.6.6.6.6.6.P b t W & P K K K K K m c t y t t t c K K K m m P P & W t b P 6.6.6.6.6.6.6.6.6.6.",
"6.6.6.6.6.6.6.6.6.6.6.B n U - t m m m K K K K t :.4.:.t K P K K C m m t = P n B 6.6.6.6.6.6.6.6.6.6.6.",
"6.6.6.6.6.6.6.6.6.6.6.6.    6.6.  t t K N t V t ! :.! t V y K K t t   6.6.    6.6.6.6.6.6.6.6.6.6.6.6.",
"6.6.6.6.6.6.6.6.6.6.6.6.6.6.6.6.6.6.  u y K t t %.! %.y t K t u   6.6.6.6.6.6.6.6.6.6.6.6.6.6.6.6.6.6.",
"6.6.6.6.6.6.6.6.6.6.6.6.6.6.6.6.6.6.6.6.. K * * = = = = * K . 6.6.6.6.6.6.6.6.6.6.6.6.6.6.6.6.6.6.6.6.",
"6.6.6.6.6.6.6.6.6.6.6.6.6.6.6.6.6.6.6.6.6.t t t t t t t t t 6.6.6.6.6.6.6.6.6.6.6.6.6.6.6.6.6.6.6.6.6.",
"6.6.6.6.6.6.6.6.6.6.6.6.6.6.6.6.6.6.6.6.6.6.6.6.6.6.6.6.6.6.6.6.6.6.6.6.6.6.6.6.6.6.6.6.6.6.6.6.6.6.6.",
"6.6.6.6.6.6.6.6.6.6.6.6.6.6.6.6.6.6.6.6.6.6.6.6.6.6.6.6.6.6.6.6.6.6.6.6.6.6.6.6.6.6.6.6.6.6.6.6.6.6.6.",
"6.6.6.6.6.6.6.6.6.6.6.6.6.6.6.6.6.6.6.6.6.6.6.6.6.6.6.6.6.6.6.6.6.6.6.6.6.6.6.6.6.6.6.6.6.6.6.6.6.6.6.",
"6.6.6.6.6.6.6.6.6.6.6.6.6.6.6.6.6.6.6.6.6.6.6.6.6.6.6.6.6.6.6.6.6.6.6.6.6.6.6.6.6.6.6.6.6.6.6.6.6.6.6."
};
