/* XPM */
static char *result[] = {
/* columns rows colors chars-per-pixel */
"51 51 185 2 ",
"   c #272C28",
".  c #282F28",
"X  c #243628",
"o  c #2B342C",
"O  c #233F29",
"+  c #2A3B2D",
"@  c #2F3930",
"#  c #343C34",
"$  c #383D37",
"%  c #393F3B",
"&  c #2B432E",
"*  c #2F4534",
"=  c #2F4D35",
"-  c #324235",
";  c #374338",
":  c #3A443C",
">  c #364B39",
",  c #3B4D3D",
"<  c #2E5436",
"1  c #2A5A34",
"2  c #325D39",
"3  c #3C553F",
"4  c #2E6639",
"5  c #3F4B41",
"6  c #3F5341",
"7  c #3D5C42",
"8  c #3F6347",
"9  c #3F6B48",
"0  c #3C6844",
"q  c #357040",
"w  c #397D47",
"e  c #3F764A",
"r  c #3E7B49",
"t  c #3A7444",
"y  c #444C44",
"u  c #494F49",
"i  c #445046",
"p  c #415844",
"a  c #465249",
"s  c #4B544C",
"d  c #4D5A4F",
"f  c #445D48",
"g  c #4E5A50",
"h  c #515752",
"j  c #525D54",
"k  c #585F58",
"l  c #406546",
"z  c #44674A",
"x  c #4A644E",
"c  c #456C4C",
"v  c #48704E",
"b  c #44794E",
"n  c #4F6552",
"m  c #4D6B53",
"M  c #546256",
"N  c #526956",
"B  c #566359",
"V  c #59655B",
"C  c #556A59",
"Z  c #5C6A5E",
"A  c #477A51",
"S  c #4A7C54",
"D  c #54745A",
"F  c #537A59",
"G  c #597B5E",
"H  c #5E6A61",
"J  c #626E63",
"K  c #647266",
"L  c #667369",
"P  c #6A766B",
"I  c #677868",
"U  c #6C7A6D",
"Y  c #6E7D71",
"T  c #6E7470",
"R  c #727E73",
"E  c #787D77",
"W  c #7A7F7A",
"Q  c #3D814B",
"!  c #3A8447",
"~  c #42824E",
"^  c #458953",
"/  c #488854",
"(  c #4F8D5B",
")  c #4B8054",
"_  c #508058",
"`  c #55885F",
"'  c #4C935A",
"]  c #4E995C",
"[  c #459654",
"{  c #53945F",
"}  c #578B62",
"|  c #559360",
" . c #5C9365",
".. c #569D63",
"X. c #589F67",
"o. c #5E9469",
"O. c #63896A",
"+. c #62936A",
"@. c #6F8473",
"#. c #6C8B72",
"$. c #738376",
"%. c #728C76",
"&. c #768679",
"*. c #79867A",
"=. c #768A79",
"-. c #7A8A7C",
";. c #699473",
":. c #6B9E75",
">. c #6F9F79",
",. c #76937A",
"<. c #57A967",
"1. c #5BA769",
"2. c #5CAD6B",
"3. c #54A563",
"4. c #5CB06D",
"5. c #62A36E",
"6. c #68AF77",
"7. c #6FAF7B",
"8. c #65A873",
"9. c #70A07A",
"0. c #79A17F",
"q. c #71AF7E",
"w. c #63B272",
"e. c #69BA77",
"r. c #6BBC7A",
"t. c #6DB27B",
"y. c #6CC27B",
"u. c #70C17F",
"i. c #80917F",
"p. c #7E8D81",
"a. c #7E8480",
"s. c #7E9081",
"d. c #799D81",
"f. c #76AF82",
"g. c #7CB285",
"h. c #75BA82",
"j. c #7AB786",
"k. c #74C484",
"l. c #78C388",
"z. c #828783",
"x. c #818D83",
"c. c #829385",
"v. c #869589",
"b. c #8A958C",
"n. c #87998A",
"m. c #8B9C8D",
"M. c #809984",
"N. c #8E9E91",
"B. c #949E94",
"V. c #88AA8F",
"C. c #87A48D",
"Z. c #8FA191",
"A. c #93A395",
"S. c #96A699",
"D. c #98A49A",
"F. c #97A898",
"G. c #9BAC9D",
"H. c #89B592",
"J. c #9FB29F",
"K. c #98BA9F",
"L. c #91BA98",
"P. c #9EAEA1",
"I. c #9FB0A0",
"U. c #9EBAA3",
"Y. c #A1AFA3",
"T. c #A9AEAA",
"R. c #A2B3A4",
"E. c #ABB7AC",
"W. c #A9BDAD",
"Q. c #B6B7B6",
"!. c #8EC397",
"~. c #8DC898",
"^. c #97C5A0",
"/. c #9FC4A5",
"(. c #A6CDAE",
"). c #A8D1AF",
"_. c #B5D6BB",
"`. c #C3C5C2",
"'. c #C4D1C7",
"]. c #C6D6C9",
"[. c #DCF1E0",
"{. c #E7F7EA",
"}. c #E4F4E7",
"|. c #FEFFFF",
" X c None",
/* pixels */
" X X X X X X X X X X X X X X X X X X X X X X X X X X X X X X X X X X X X X X X X X X X X X X X X X X X",
" X X X X X X X X X X X X X X X X X X X X X X X X X X X X X X X X X X X X X X X X X X X X X X X X X X X",
" X X X X X X X X X X X X X X X X X X X X X X X X X X X X X X X X X X X X X X X X X X X X X X X X X X X",
" X X X X X X X X X X X X X X X X X X X X X X X X X X X X X X X X X X X X X X X X X X X X X X X X X X X",
" X X X X X X X X X X X X X X X X X X X X X X X X X X X X X X X X X X X X X X X X X X X X X X X X X X X",
" X X X X X X X X X X X X X X X X X X X X X X X X X X X X X X X X X X X X X X X X X X X X X X X X X X X",
" X X X X X X X X X X X X X X X X X X X X X XJ o ; $ # # #  X X X X X X X X X X X X X X X X X X X X X X",
" X X X X X X X X X X X X X X X X X X X X: u U a.*.-.L j k u : Z  X X X X X X X X X X X X X X X X X X X",
" X X X X X X X X X X X X X X X X X X XT H H $.p.-.-.R U Y $.$.*.E  X X X X X X X X X X X X X X X X X X",
" X X X X X X X X X X X X X X X X X Xi g v.p.=.&.-.*.-.p.-.S.P.B.y  X X X X X X X X X X X X X X X X X X",
" X X X X X X X X X X X X X X X X X X: V p.&.-.-.-.-.*.=.-.*.$.p.W.s R  X X X X X X X X X X X X X X X X",
" X X X X X X X X X X X X X X X X XD.N.p.-.-.&.-.-.*.p.$.V *.-.-.-.B.*.k  X X X X X X X X X X X X X X X",
" X X X X X X X X X X X X X X X XV S.R.N.$.p.=.-.&.p.-.$.I P R -.$.m.s.P  X X X X X X X X X X X X X X X",
" X X X X X X X X X X X X X X X X&.$.A.m.=.p.p.-.=.&.-.-.p.V I c.p.*.m.R.o  X X X X X X X X X X X X X X",
" X X X X X X X X X X X X X X XB R Y $.N.G.%.&.p.p.&.-.-.p.M $.R.G.J.P.G.:  X X X X X X X X X X X X X X",
" X X X X X X X X X X X X X Xu s K Y Y -.n.A.p.$.p.=.-.-.-.n.n.c.c.v.c.c.+  X X X X X X X X X X X X X X",
" X X X X X X X X X X X X X Xh h H R U Y -.Z.m.c.*.*.*.*.*.Y.B.$.&.@.&.&.V b. X X X X X X X X X X X X X",
" X X X X X X X X X X X X Xo k B Z U Y U U $.F.A.=.-.-.-.,.F.m.$.P Y P Y E.V V  X X X X X X X X X X X X",
" X X X X X X X X X X XW y V B B B V U U U U *.n.J.J.M.i.J.c.$.U H B I p.$.S.b.5  X X X X X X X X X X X",
" X X X X X X X X X Xz.J V P B M B B U R U U @.*.i.i.m.Z.s.$.U H B g K a.&.c.v.*.E  X X X X X X X X X X",
" X X X X X X X X X X: P *.@.H B B B K U Y U U R U K p.v.K $.K j B H L -.p.$.p.P.i -. X X X X X X X X X",
" X X X X X X X XD.# $.*.-.*.$.J B V M H R Y U $.-.V M M M &.P B B Y p.=.=.=.a.&.v.H # o  X X X X X X X",
" X X X X X X XT M U &.*.-.*.Y U K B B J $.U m.Z.$.=.J n B $.*.$.Y -.-.-.=.=.c.I.-.Y Y &.Z h  X X X X X",
" X X X X X X XT U *.-.*.-.-.$.$.I B B Z K U i.Z.m.-.Y K L $.c.m.N.p.-.-.=.U U -.b.B.N.p.Z B  X X X X X",
" X X X X X Xo D.F.&.-.-.-.-.-.$.P V B B B Y $.c.G.s.s.s.s.p.m.G.F.M.p.=.c.I M d m.F.Z.-.i.A. Xo  X X X",
" X X X X X X$ m.Z.$.-.-.-.-.-.-.&.P Z j V Y *.=.=.G.I.P.I.R.Z.$.U S.A.&.G.m.P : j M J I.I.R.G.:  X X X",
" X X X X XZ j A.m.&.-.-.-.*.*.-.-.&.U J V Z Y $.@.c.c.c.v.p.Y H H K -.G.I.m.K $ M B V U I P P #  X X X",
" X X X Xz.o Z A.Z.%.=.*.-.*.-.=.*.&.$.H d B H L Y $.$.Y U L B d B g L n.m.N.-.j d j B x j j M #  X X X",
" X X X Xz.: V N.m.*.-.-.-.-.-.-.&.U U k : B M H Y P Y L B B a 5 V V B M Y N.D.i.y i m m C C V #  X X X",
" X X Xk J $.B B -.R.J.R.Z.$.$.$.U B y ; % : : : : B H H H ; B p.-.V M V M R x.-.a - 2 H.G x B #  X X X",
" X X Xy V %.B M K $.$.Y i.A.F.$.V V : V a.H J K J y y y y B Y p.$.v.$.M M J K L 5 * 2 +.| _ M #  X X X",
" X X Xi G ,.x M M j j d I Z.Z.U x N ; P Y.n.p.p.p.g a s a &.p.-.i.F.c.B M M M M h 6 < b ..| x $  X X X",
" X X X,  .h.9 m B B B V B j n m v v > B i.I.c.$.-.-.p.p.p.p.&.p.P.c.P M B N m n -.V = S ..{ N $  X X X",
" X X Xp ~ w.f.D n B B B B N 8 +.q.V.7 a K i.S.N.&.&.&.&.&.$.n.S.H %.Y m l ;.d.n =.Z * < | | 6    X X X",
" X X X, w 2.7.S n V B V M c { e.r.+.3 i Z L c.N.m.m.m.m.m.m.A.s.k R Y z { w.9.z =.Z - & e :.R. X X X X",
" X X XD / 3.X.b x B B M m ) r.y.1.0 , a B j U c.G.G.F.G.S.P.m.Y M U o.S u.4.` m =.H : V F U. X X X X X",
" X X X Xj.! 8.1 + : V z ( k.2.^ v V y s Z B $.-.=.-.-.&.-.=.p.&.M x } k.<.Q F s.c.B s  X X X X X X X X",
" X X XM.S t b (.].E.* F 1.4.' 4 & : # # : V H U -.=.%.%.=.-.Y H a.D ( k.4.t * y ;  X X X X X X X X X X",
" X X XA.C.V.C. X X X=.+.] [ w } -.z.z.z.E s h L p.=.9.9.%.p.L k K 7 ~ r.] o.-. X X X X X X X X X X X X",
" X X X X X X X X X X X0.e ( A _. X X X X Xu h L -.@.q.h.;.,.U j y 5 e 8.A  X X X X X X X X X X X X X X",
" X X X X X X X X X X X#.,. X[. X X X X X X XJ o % & Q w.j.2 X h  X X).+. X X X X X X X X X X X X X X X",
" X X X X X X X X X X X'.]. X X X X X X X X X`.T.E.W.7.1.l.~.R.Q. X X X X X X X X X X X X X X X X X X X",
" X X X X X X X X X X X X X X X X X X X X X X X|. X X~.] h. X X X X X X X X X X X X X X X X X X X X X X",
" X X X X X X X X X X X X X X X X X X X X X X X X X Xj.Q 8. X X X X X X X X X X X X X X X X X X X X X X",
" X X X X X X X X X X X X X X X X X X X X X X X X}.#.e r o. X X X X X X X X X X X X X X X X X X X X X X",
" X X X X X X X X X X X X X X X X X X X X X X X X{.U.L.^.). X X X X X X X X X X X X X X X X X X X X X X",
" X X X X X X X X X X X X X X X X X X X X X X X X X X X X X X X X X X X X X X X X X X X X X X X X X X X",
" X X X X X X X X X X X X X X X X X X X X X X X X X X X X X X X X X X X X X X X X X X X X X X X X X X X",
" X X X X X X X X X X X X X X X X X X X X X X X X X X X X X X X X X X X X X X X X X X X X X X X X X X X",
" X X X X X X X X X X X X X X X X X X X X X X X X X X X X X X X X X X X X X X X X X X X X X X X X X X X",
" X X X X X X X X X X X X X X X X X X X X X X X X X X X X X X X X X X X X X X X X X X X X X X X X X X X"
};
